<svg id="Layer_1" data-name="Layer 1" xmlns="http://www.w3.org/2000/svg" viewBox="0 0 38.18 38.18"><defs><style>.cls-1{fill:#d9d9d8;}</style></defs><path class="cls-1" d="M-2600.18,703.45H-2633a2.68,2.68,0,0,0-2.68,2.67V739a2.67,2.67,0,0,0,2.68,2.67h32.82a2.67,2.67,0,0,0,2.68-2.67V706.12A2.68,2.68,0,0,0-2600.18,703.45Zm-23.43,3.17a5,5,0,0,1,5,5,5,5,0,0,1-5,5,5,5,0,0,1-5-5A5,5,0,0,1-2623.61,706.62Zm22.78,29.88a2.11,2.11,0,0,1-2.11,2.11h-27.59a2.1,2.1,0,0,1-2.1-2.11v-3.89a.28.28,0,0,1,.06-.18l7.33-8.76a.72.72,0,0,1,1.07,0l5.39,5.62,7.49-9.45a.73.73,0,0,1,1-.1l9.33,7.77a.28.28,0,0,1,.1.21Z" transform="translate(2635.68 -703.45)"/></svg>