<svg width="300" height="300" viewBox="0 0 300 300" fill="none" xmlns="http://www.w3.org/2000/svg">
<circle cx="150" cy="150" r="150" fill="#FAFAFA"/>
<mask id="mask0_40000396_74098" style="mask-type:alpha" maskUnits="userSpaceOnUse" x="0" y="0" width="300" height="300">
<circle cx="150" cy="150" r="150" fill="#FAFAFA"/>
</mask>
<g mask="url(#mask0_40000396_74098)">
<path d="M120.259 215.403H65.8576L57.4102 59.2578H128.706L120.259 215.403ZM58.086 273.196C58.086 261.48 61.4649 253.256 68.2229 248.524C75.2061 243.793 83.4282 241.427 92.8894 241.427C102.125 241.427 110.122 243.793 116.88 248.524C123.638 253.256 127.017 261.48 127.017 273.196C127.017 284.237 123.638 292.236 116.88 297.193C110.122 302.15 102.125 304.628 92.8894 304.628C83.4282 304.628 75.2061 302.15 68.2229 297.193C61.4649 292.236 58.086 284.237 58.086 273.196Z" fill="#E8E8E8"/>
<g clip-path="url(#clip0_40000396_74098)">
<path d="M182.514 190.555L127.339 192.323C127.339 192.323 114.339 279.166 114.69 285.203L106.672 348.194L130.005 349.008C130.005 349.008 133.672 328.582 136.237 314.601C137.94 305.295 141.052 291.647 141.894 283.879C142.737 276.11 156.385 221.86 156.385 221.86C156.385 221.86 155.376 284.832 155.403 287.416C155.431 289.999 152.709 348.953 152.709 348.953H175.885C177.079 338.314 179.922 295.74 180.542 287.138C181.644 271.61 185.135 227.721 185.644 216.508C186.153 205.295 182.533 190.555 182.533 190.555H182.514Z" fill="#263238"/>
<path d="M178.883 190.971C178.772 190.971 178.68 190.082 178.68 188.989C178.68 187.897 178.772 187.008 178.883 187.008C178.995 187.008 179.087 187.897 179.087 188.989C179.087 190.082 178.995 190.971 178.883 190.971Z" fill="#455A64"/>
<path d="M181.173 192.017C181.071 192.035 180.821 190.896 180.951 189.48C181.062 188.063 181.497 186.98 181.589 187.017C181.701 187.054 181.46 188.146 181.349 189.517C181.228 190.887 181.293 192.007 181.173 192.017Z" fill="#455A64"/>
<path d="M160.56 187.877C160.579 187.951 159.949 187.877 159.393 188.525C159.134 188.84 158.912 189.322 159.014 189.831C159.097 190.34 159.579 190.775 160.181 190.886C160.782 190.998 161.393 190.775 161.653 190.331C161.931 189.896 161.903 189.359 161.773 188.979C161.495 188.164 160.884 188.007 160.921 187.942C160.921 187.923 161.079 187.923 161.31 188.044C161.542 188.164 161.847 188.433 162.032 188.877C162.208 189.312 162.292 189.942 161.958 190.525C161.625 191.127 160.819 191.423 160.088 191.275C159.356 191.146 158.718 190.572 158.625 189.886C158.523 189.22 158.838 188.655 159.162 188.322C159.505 187.979 159.884 187.84 160.143 187.812C160.403 187.785 160.551 187.84 160.542 187.859L160.56 187.877Z" fill="#455A64"/>
<path d="M135.124 283.702C135.078 283.804 132.439 282.813 129.217 281.489C125.994 280.165 123.42 279.007 123.457 278.906C123.504 278.804 126.143 279.795 129.365 281.119C132.587 282.443 135.161 283.6 135.124 283.702Z" fill="#455A64"/>
<path d="M132.126 60.0377C132.311 56.8248 134.284 54.8525 137.052 53.2137C139.821 51.5748 143.413 51.4081 146.311 52.797C148.256 53.7229 149.95 55.297 152.089 55.5748C155.608 56.0285 158.932 52.7692 162.376 53.584C164.413 54.0655 165.969 56.1118 165.895 58.2044C165.821 60.297 164.117 62.2229 162.043 62.547C164.348 62.8803 165.645 65.7877 164.793 67.9544C163.941 70.1211 161.524 71.3711 159.2 71.4266C156.876 71.4729 154.645 70.5285 152.626 69.3618C150.617 68.1951 148.737 66.7877 146.635 65.7877C144.534 64.7877 142.126 64.1951 139.876 64.797C136.83 65.6025 134.682 68.4822 133.885 71.5285C133.089 74.5748 133.432 77.797 133.904 80.9081C134.376 84.0192 134.978 87.1581 134.682 90.297C134.645 90.6674 134.561 91.084 134.237 91.2692C133.774 91.5285 133.237 91.084 132.885 90.6766C128.997 86.0655 126.024 80.6859 124.2 74.9451C123.135 71.6118 122.552 68.3618 123.83 65.1025C125.108 61.8433 129.395 58.7322 132.098 60.0655" fill="#263238"/>
<path d="M129.164 75.5546L134.303 107.286C135.266 113.212 139.118 118.934 148.414 116.99C156.358 114.693 155.766 108.98 154.729 101.934C154.729 101.934 163.46 99.6657 162.682 90.7768C162.303 86.4805 160.803 77.7027 159.358 69.7768C157.803 61.2675 149.96 55.3786 141.349 56.2397L140.497 56.3231C131.321 57.786 127.442 66.4064 129.164 75.536V75.5546Z" fill="#FFBE9D"/>
<path d="M154.738 101.945C154.738 101.945 149.182 102.834 142.84 99.6953C142.84 99.6953 146.321 106.297 155.099 104.603L154.738 101.945Z" fill="#EB996E"/>
<path d="M157.618 77.5494C157.711 78.2161 157.22 78.8457 156.526 78.9476C155.831 79.0587 155.192 78.605 155.109 77.9383C155.016 77.2717 155.507 76.642 156.201 76.5402C156.896 76.4291 157.535 76.8828 157.627 77.5494H157.618Z" fill="#263238"/>
<path d="M157.898 74.3281C157.759 74.5133 156.722 73.8929 155.361 74.0318C153.999 74.1522 153.064 74.9577 152.907 74.8003C152.823 74.7355 152.953 74.4207 153.361 74.0596C153.759 73.6985 154.462 73.3188 155.305 73.2355C156.157 73.1522 156.898 73.3929 157.342 73.6707C157.796 73.9485 157.962 74.2355 157.898 74.3188V74.3281Z" fill="#263238"/>
<path d="M145.204 79.5104C145.297 80.177 144.806 80.8067 144.111 80.9085C143.417 81.0196 142.778 80.5659 142.695 79.8993C142.602 79.2326 143.093 78.603 143.787 78.5011C144.482 78.39 145.121 78.8437 145.213 79.5104H145.204Z" fill="#263238"/>
<path d="M144.778 75.9296C144.639 76.1148 143.602 75.4945 142.241 75.6333C140.88 75.7537 139.945 76.5593 139.778 76.4019C139.695 76.3371 139.824 76.0222 140.232 75.6611C140.63 75.3 141.333 74.9204 142.176 74.8371C143.028 74.7537 143.769 74.9945 144.213 75.2722C144.667 75.55 144.833 75.8371 144.769 75.9204L144.778 75.9296Z" fill="#263238"/>
<path d="M150.481 85.5477C150.463 85.4736 151.296 85.2421 152.657 84.9273C153 84.8532 153.324 84.7514 153.361 84.5106C153.416 84.2514 153.231 83.8903 153.028 83.5014C152.611 82.6958 152.185 81.844 151.731 80.9551C149.926 77.3255 148.574 74.3255 148.722 74.2514C148.87 74.1773 150.454 77.0662 152.268 80.6958C152.704 81.594 153.12 82.4458 153.528 83.2607C153.694 83.6403 153.972 84.0662 153.842 84.6125C153.778 84.881 153.537 85.094 153.324 85.1773C153.111 85.2699 152.907 85.2884 152.741 85.3162C151.37 85.5292 150.509 85.6218 150.5 85.5477H150.481Z" fill="#263238"/>
<path d="M144.332 70.5572C144.23 70.9461 142.86 70.8998 141.276 71.2609C139.693 71.585 138.443 72.1776 138.202 71.872C138.091 71.7239 138.286 71.3535 138.767 70.9368C139.249 70.5294 140.036 70.1035 140.989 69.8998C141.943 69.6961 142.832 69.7609 143.443 69.9368C144.054 70.1128 144.378 70.372 144.341 70.5572H144.332Z" fill="#263238"/>
<path d="M156.998 70.4426C156.785 70.7759 155.823 70.5537 154.684 70.6463C153.545 70.7019 152.619 71.063 152.369 70.7667C152.258 70.6185 152.369 70.2945 152.767 69.9611C153.147 69.6278 153.813 69.3222 154.591 69.2667C155.369 69.2111 156.073 69.4241 156.498 69.7019C156.934 69.9796 157.091 70.2852 156.998 70.4519V70.4426Z" fill="#263238"/>
<path d="M130.541 82.0535C130.384 82.0072 124.264 80.8591 125.069 86.9054C125.875 92.9517 131.773 90.8961 131.764 90.7202C131.754 90.5443 130.541 82.0443 130.541 82.0443V82.0535Z" fill="#FFBE9D"/>
<path d="M129.616 88.6861C129.616 88.6861 129.523 88.7695 129.357 88.8806C129.19 88.9824 128.903 89.075 128.57 89.0009C127.903 88.8528 127.227 87.9083 127.051 86.825C126.958 86.2787 127.005 85.7417 127.144 85.2787C127.273 84.8157 127.514 84.4639 127.829 84.362C128.134 84.2417 128.394 84.4083 128.486 84.5657C128.588 84.7232 128.57 84.8528 128.597 84.8528C128.616 84.862 128.718 84.7324 128.634 84.4917C128.597 84.3713 128.505 84.2417 128.347 84.1491C128.19 84.0472 127.968 84.0194 127.745 84.075C127.282 84.1676 126.921 84.6583 126.773 85.1583C126.597 85.6676 126.532 86.2787 126.634 86.8898C126.838 88.1028 127.607 89.1583 128.514 89.2972C128.958 89.3528 129.292 89.1769 129.458 89.0102C129.625 88.8343 129.644 88.6954 129.616 88.6861Z" fill="#EB996E"/>
<path d="M158.636 61.5179C157.673 59.8513 156.127 58.6013 154.478 57.6013C150.932 55.4439 146.738 54.305 142.599 54.6568C138.469 55.0087 134.432 56.9068 131.738 60.055C129.58 62.5735 128.33 65.805 127.932 69.1013C127.534 72.3976 127.951 75.7587 128.867 78.9439C129.265 80.342 129.802 81.7865 130.914 82.7309C131.608 83.3235 132.719 83.6476 133.386 83.0179C133.775 82.6476 133.877 82.0735 133.951 81.5457C134.645 76.7494 135.293 71.6013 133.127 67.2587C134.136 65.6291 135.34 64.0828 136.923 62.9994C138.497 61.9068 140.478 61.3142 142.358 61.6939C145.145 62.2587 147.08 64.7216 149.423 66.3328C152.775 68.6383 157.265 69.1846 161.062 67.7494L158.645 61.5087L158.636 61.5179Z" fill="#263238"/>
<path d="M151.678 89.2361C151.577 89.8009 151.484 90.3842 151.225 90.9027C150.966 91.4212 150.53 91.8842 149.975 92.0231C149.382 92.1805 148.725 91.9398 148.28 91.5138C147.836 91.0879 147.595 90.4861 147.493 89.8749C147.401 89.3286 147.521 88.6249 148.049 88.449C148.271 88.3749 148.512 88.412 148.734 88.449C149.762 88.6342 150.79 88.8194 151.817 89.0046" fill="#EB996E"/>
<path d="M151.032 91.8122C150.995 91.7289 150.43 92.1085 149.477 91.9418C149.014 91.8585 148.477 91.6178 148.115 91.1363C147.745 90.6641 147.551 89.9604 147.69 89.2844C147.717 89.1178 147.782 88.9511 147.847 88.8122C147.94 88.6733 147.912 88.6826 148.041 88.6733C148.162 88.6733 148.365 88.7289 148.532 88.7567C148.708 88.7844 148.875 88.8215 149.041 88.8492C149.699 88.9696 150.301 89.0715 150.801 89.1455C151.801 89.3029 152.43 89.3585 152.449 89.2844C152.467 89.2104 151.856 89.0252 150.875 88.7844C150.384 88.6641 149.791 88.5252 149.143 88.377C148.977 88.34 148.81 88.303 148.643 88.2659C148.467 88.2289 148.319 88.1826 148.078 88.1641C147.958 88.1641 147.801 88.1641 147.662 88.2659C147.523 88.3585 147.449 88.4789 147.402 88.5807C147.31 88.7752 147.236 88.9696 147.199 89.1826C147.023 90.0344 147.291 90.877 147.764 91.4418C148.245 92.0159 148.921 92.2659 149.449 92.3029C149.995 92.3492 150.43 92.2196 150.69 92.09C150.958 91.9604 151.069 91.8307 151.051 91.803L151.032 91.8122Z" fill="#263238"/>
<path d="M173.578 76.1887L175.004 75.7998L197.347 97.522L215.439 99.6979C215.439 99.6979 215.263 94.2257 208.448 87.2442C202.374 81.0127 188.161 73.5868 183.356 69.772C182.152 68.8183 181.273 68.5312 181.273 68.5312L173.578 76.1979V76.1887Z" fill="#FFBE9D"/>
<path d="M173.572 65.8507L171.285 65.2118L165.896 62.6562L159.766 64.934C159.766 64.934 159.905 67.0359 161.516 66.4618L155.09 68.5822C155.09 68.5822 155.618 70.1007 155.905 70.2025C156.192 70.3044 152.137 70.647 152.137 70.647C152.137 70.647 152.1 72.7118 155.97 72.6748C159.84 72.6377 161.303 71.9803 161.303 71.9803L164.387 72.8044L164.266 74.6377L160.072 74.5729L160.266 76.9248C160.887 77.2211 165.674 77.7488 165.674 77.7488C165.674 77.7488 172.155 77.8414 173.915 76.9988C175.665 76.1562 177.915 74.9248 177.915 74.9248L181.276 68.5174L173.572 65.8507Z" fill="#FFBE9D"/>
<path d="M167.783 66.9404C167.746 66.9959 167.413 66.8108 166.857 66.5608C166.302 66.2922 165.515 65.9774 164.682 65.4034H164.959C164.876 65.4589 164.793 65.5145 164.709 65.57C163.811 66.1441 162.867 66.4126 162.182 66.4959C161.496 66.5793 161.07 66.5145 161.07 66.4589C161.052 66.3108 162.765 66.2459 164.459 65.1626C164.543 65.1071 164.617 65.0608 164.691 65.0145L164.83 64.9219L164.969 65.0145C165.719 65.5422 166.506 65.9219 167.024 66.2737C167.552 66.6071 167.83 66.8941 167.793 66.9404H167.783Z" fill="#EB996E"/>
<path d="M165.813 70.2092C165.813 70.2092 165.405 70.3573 164.776 70.0981C164.137 69.8666 163.461 69.1999 162.581 68.8018L162.803 68.7833C162.433 69.0333 162.016 69.274 161.572 69.487C160.294 70.0981 159.016 70.3111 158.109 70.3388C157.192 70.3666 156.637 70.237 156.637 70.1814C156.637 70.0333 158.914 70.2277 161.368 69.0518C161.794 68.8481 162.192 68.6259 162.553 68.3944L162.664 68.3203L162.776 68.3759C163.766 68.8759 164.359 69.5611 164.905 69.8388C165.433 70.1444 165.822 70.1444 165.813 70.2185V70.2092Z" fill="#EB996E"/>
<path d="M171.552 72.214C171.524 72.2881 171.079 72.1492 170.348 72.1584C169.626 72.1584 168.607 72.3621 167.681 72.964C167.107 73.3344 166.663 73.8066 166.366 74.2695L166.311 74.3529L166.227 74.3714C164.931 74.6121 164.042 74.7325 164.024 74.6399C164.005 74.5473 164.857 74.2788 166.135 73.9547L165.996 74.0566C166.292 73.5288 166.783 72.9732 167.413 72.5658C168.44 71.8992 169.579 71.7418 170.357 71.8251C171.144 71.9084 171.57 72.177 171.552 72.2232V72.214Z" fill="#EB996E"/>
<path d="M177.913 74.9282C177.913 74.9282 177.857 74.9745 177.728 75.0579C177.57 75.1505 177.385 75.2523 177.154 75.3819C176.607 75.6782 175.857 76.0856 174.913 76.5949C174.422 76.8449 173.904 77.1968 173.219 77.3542C172.552 77.5208 171.82 77.6227 171.033 77.706C169.459 77.8634 167.663 77.9282 165.682 77.9282H165.663C164.895 77.8449 164.089 77.7708 163.256 77.6782C162.404 77.5579 161.57 77.5208 160.607 77.2245L160.515 77.1968L160.496 77.0764C160.367 76.2708 160.219 75.3912 160.07 74.4931L160.033 74.2338H160.293C161.552 74.2986 162.904 74.3542 164.283 74.4097L164.052 74.6134C164.089 74.0394 164.126 73.419 164.172 72.7801L164.339 73.0116C163.367 72.7523 162.32 72.4745 161.256 72.1968H161.413C159.913 72.706 158.367 72.8171 156.774 72.8912C155.987 72.919 155.163 72.9282 154.33 72.7708C153.524 72.6134 152.626 72.2616 152.135 71.4375C152.006 71.1968 151.913 70.956 151.895 70.6412V70.4282L152.117 70.4097C153.08 70.3264 154.024 70.2431 154.959 70.1319C155.191 70.1042 155.422 70.0764 155.645 70.0394L155.793 70.0116C155.793 70.0116 155.811 69.9931 155.737 70.0579C155.682 70.1134 155.663 70.2153 155.682 70.2616C155.663 70.3449 155.848 70.456 155.811 70.419C155.756 70.3912 155.682 70.3449 155.663 70.3171C155.533 70.1875 155.487 70.0856 155.422 69.9745C155.191 69.5301 155.024 69.1042 154.867 68.6505L154.783 68.419L155.015 68.3449C157.237 67.6134 159.385 66.9097 161.441 66.2338L161.589 66.6597C161.339 66.7338 161.07 66.8079 160.783 66.7523C160.496 66.706 160.237 66.5486 160.061 66.3356C159.709 65.9097 159.598 65.4282 159.543 64.9375L159.524 64.7801L159.682 64.7245C161.857 63.919 163.904 63.169 165.82 62.4653L165.904 62.4375L165.978 62.4745C167.932 63.419 169.728 64.2801 171.348 65.0579H171.32C172.107 65.2708 172.857 65.4931 173.57 65.6968C174.265 65.9468 174.913 66.1782 175.533 66.3912C176.737 66.8264 177.783 67.1968 178.654 67.5116C179.469 67.8171 180.126 68.0579 180.607 68.2338C181.052 68.4005 181.283 68.5023 181.274 68.5116C181.274 68.5301 181.033 68.456 180.58 68.3171C180.089 68.1597 179.432 67.9468 178.598 67.6782C177.728 67.3912 176.672 67.0394 175.459 66.6319C174.848 66.4282 174.191 66.206 173.487 65.9745C172.774 65.7801 172.024 65.5764 171.237 65.3634H171.228L171.219 65.3542C169.589 64.5949 167.783 63.7431 165.82 62.8264H165.978C164.07 63.5486 162.024 64.3171 159.857 65.1319L159.996 64.9097C160.043 65.3079 160.163 65.7616 160.413 66.0486C160.663 66.3449 161.052 66.3819 161.45 66.2431L161.598 66.669C159.543 67.3542 157.395 68.0671 155.182 68.7986L155.33 68.4931C155.478 68.919 155.654 69.3542 155.857 69.7338C155.904 69.8264 155.969 69.9282 156.015 69.9653C156.006 69.9653 155.969 70.0301 155.959 70.0671V70.0764C156.052 69.8356 155.996 70.0116 156.015 69.9653C156.033 69.9745 156.061 69.9931 156.08 70.0116C156.126 70.0486 156.154 70.1042 156.163 70.1505C156.182 70.206 156.163 70.3171 156.098 70.3727C156.024 70.4375 156.043 70.419 156.024 70.4282C155.987 70.4468 155.95 70.456 155.941 70.456C155.857 70.4745 155.802 70.4838 155.746 70.4931C155.506 70.5301 155.274 70.5579 155.033 70.5856C154.089 70.6968 153.135 70.7801 152.172 70.8634L152.395 70.6319C152.395 70.7894 152.469 71.0116 152.57 71.1875C152.932 71.8079 153.691 72.1412 154.441 72.2801C155.2 72.4282 155.987 72.419 156.774 72.3912C158.32 72.3264 159.904 72.1968 161.237 71.7431L161.33 71.7153L161.395 71.7338C162.459 72.0208 163.506 72.2986 164.478 72.5579L164.663 72.6042V72.7894C164.607 73.4282 164.561 74.0486 164.524 74.6227L164.506 74.8449H164.293C162.904 74.7708 161.561 74.706 160.302 74.6505L160.524 74.4097C160.663 75.3079 160.802 76.1875 160.932 77.0023L160.82 76.8542C161.589 77.0856 162.524 77.1782 163.339 77.2894C164.172 77.3819 164.978 77.4745 165.737 77.5579H165.728C167.7 77.5856 169.496 77.5394 171.052 77.4097C171.83 77.3449 172.552 77.2616 173.2 77.1042C173.839 76.9745 174.367 76.6319 174.867 76.4005C175.83 75.9282 176.589 75.5486 177.145 75.2708C177.385 75.1597 177.58 75.0671 177.746 74.9931C177.885 74.9282 177.959 74.9005 177.959 74.9097L177.913 74.9282Z" fill="#EB996E"/>
<path d="M170.173 67.9588C170.275 68.0328 169.339 69.2828 167.793 70.3754C166.247 71.4773 164.775 71.9495 164.728 71.8384C164.673 71.7088 166.025 71.0514 167.515 69.9865C169.006 68.931 170.071 67.8662 170.173 67.9588Z" fill="#EB996E"/>
<path d="M215.29 99.0171L197.355 97.5078L176.216 105.554L171.559 108.387L178.179 130.98C178.179 130.98 211.318 111.452 212.725 109.786C217.068 104.647 215.299 99.0171 215.299 99.0171H215.29Z" fill="#60C29B"/>
<path d="M119.549 115.639L113.383 119.463L127.624 175.519L125.04 207.796C128.716 211 138.003 213.75 155.624 212.75C173.244 211.75 184.966 204.13 184.966 204.13L183.281 170.88L179.281 133.361L174.753 107.713L161.198 108.694L155.92 105.565L153.549 106.75L150.512 115.176L142.596 109.463L133.337 105L129.957 111.315L119.559 115.639H119.549Z" fill="#60C29B"/>
<path d="M174.742 114.25C174.742 114.25 174.946 114.685 175.233 115.5C175.52 116.315 175.9 117.5 176.335 118.981C177.205 121.935 178.251 126.065 179.076 130.704C179.9 135.333 180.344 139.574 180.538 142.648C180.64 144.185 180.696 145.435 180.705 146.296C180.714 147.157 180.705 147.63 180.677 147.639C180.65 147.648 180.585 147.167 180.52 146.306C180.437 145.361 180.335 144.139 180.205 142.676C179.918 139.62 179.427 135.398 178.603 130.787C177.779 126.176 176.798 122.046 176.011 119.074C175.631 117.657 175.307 116.481 175.057 115.565C174.826 114.731 174.714 114.269 174.751 114.259L174.742 114.25Z" fill="#263238"/>
<path d="M147.967 114.694C147.967 114.694 147.476 114.62 146.689 114.222C145.911 113.823 144.828 113.092 143.883 111.823L144.217 111.731C144.068 113.953 143.615 116.833 142.568 119.833L142.467 120.129L142.207 119.953C142.004 119.814 141.781 119.657 141.559 119.509C138.374 117.314 135.504 115.296 133.439 113.823C132.476 113.12 131.661 112.527 131.013 112.055C130.448 111.629 130.142 111.379 130.161 111.351C130.179 111.323 130.522 111.518 131.124 111.898C131.8 112.342 132.642 112.888 133.642 113.536C135.754 114.944 138.661 116.907 141.846 119.111C142.068 119.268 142.291 119.416 142.494 119.555L142.133 119.675C143.17 116.722 143.661 113.898 143.874 111.703L143.92 111.203L144.207 111.611C145.068 112.851 146.087 113.601 146.809 114.036C147.541 114.481 147.994 114.648 147.985 114.685L147.967 114.694Z" fill="#263238"/>
<path d="M160.643 109.741C160.717 109.815 159.467 111.213 157.634 113.157L157.467 113.333L157.3 113.148C156.726 112.481 156.05 111.778 155.282 111.111C154.902 110.778 154.513 110.463 154.134 110.166C153.939 110.028 153.754 109.889 153.569 109.75C153.486 109.694 153.439 109.694 153.458 109.694C153.458 109.685 153.412 109.731 153.384 109.824C153.078 110.611 152.782 111.342 152.513 112.028C152.004 113.278 151.662 114.046 151.597 114.018C151.532 114 151.763 113.194 152.189 111.907C152.43 111.213 152.689 110.463 152.958 109.666C153.004 109.555 153.05 109.379 153.273 109.278C153.513 109.185 153.708 109.296 153.81 109.361C154.023 109.5 154.208 109.639 154.412 109.787C154.81 110.083 155.208 110.398 155.597 110.741C156.384 111.426 157.06 112.157 157.634 112.861H157.3C159.189 110.953 160.56 109.666 160.634 109.741H160.643Z" fill="#263238"/>
<path d="M156.977 210.38C164.589 208.944 172.7 209.778 180.246 213.287C189.533 217.611 196.589 225.296 200.098 234.917C203.607 244.546 203.163 254.963 198.839 264.25C189.913 283.426 167.052 291.768 147.866 282.842C138.579 278.518 131.524 270.833 128.014 261.213C124.505 251.583 124.95 241.167 129.274 231.88C134.69 220.241 145.237 212.602 156.977 210.38ZM170.653 283.231C181.607 281.157 191.45 274.028 196.505 263.167C200.542 254.5 200.959 244.778 197.681 235.796C194.403 226.815 187.829 219.648 179.163 215.611C170.496 211.574 160.774 211.157 151.792 214.435C142.811 217.713 135.644 224.287 131.607 232.954C127.57 241.62 127.153 251.342 130.431 260.324C133.709 269.305 140.283 276.472 148.95 280.509C155.987 283.787 163.552 284.565 170.653 283.222V283.231Z" fill="#455A64"/>
<path d="M163.997 288.289C158.219 288.289 152.469 287.03 147.08 284.52C137.339 279.983 129.95 271.937 126.274 261.844C122.589 251.752 123.062 240.835 127.599 231.094C133.052 219.391 143.904 210.965 156.636 208.557C164.932 206.993 173.367 208.039 181.024 211.604C190.765 216.141 198.154 224.187 201.83 234.28C205.515 244.372 205.043 255.289 200.506 265.03C195.978 274.752 187.923 282.141 177.821 285.826C173.312 287.474 168.645 288.289 163.987 288.289H163.997ZM164.071 214.113C160.145 214.113 156.219 214.798 152.423 216.187C143.904 219.298 137.108 225.53 133.284 233.752C129.46 241.974 129.062 251.187 132.173 259.706C135.274 268.224 141.515 275.02 149.737 278.844C156.2 281.854 163.321 282.743 170.321 281.419C181.071 279.381 190.237 272.27 194.83 262.4C198.654 254.178 199.052 244.965 195.941 236.446C192.839 227.928 186.599 221.131 178.376 217.307C173.821 215.187 168.95 214.122 164.071 214.122V214.113Z" fill="#455A64"/>
<path d="M70.7356 210.583L71.0782 209.75C71.8096 207.963 73.4022 206.916 74.643 207.426L130.699 230.231C130.976 230.342 131.069 230.759 130.902 231.157L128.513 237.028C128.347 237.426 127.995 237.657 127.717 237.546L71.6615 214.741C70.4207 214.241 70.0133 212.379 70.7356 210.583Z" fill="#455A64"/>
<path d="M123.086 146.032L116.345 168.338L119.725 213.791L109.781 215.051C109.781 215.051 98.3825 176.31 99.5214 169.356C100.66 162.402 105.262 141.977 105.262 141.977L123.086 146.032Z" fill="#FFBE9D"/>
<path d="M119.706 213.477L124.336 221.384L127.224 228.819L122.854 227.097C122.854 227.097 120.984 236.041 120.252 236.282C119.521 236.523 117.419 235.791 117.632 234.078C117.632 234.078 116.586 235.134 115.271 234.856C113.956 234.588 113.65 233.736 113.789 232.106C113.789 232.106 112.261 233.356 111.345 232.578C110.428 231.801 110.521 230.449 110.521 230.449C110.521 230.449 108.53 230.625 108.252 229.588C107.974 228.551 107.91 225.606 108.141 224.477C108.373 223.356 109.326 218.764 109.326 218.764L109.78 215.069L119.697 213.495L119.706 213.477Z" fill="#FFBE9D"/>
<path d="M118.615 228.914C118.504 228.896 118.189 230.025 117.921 231.451C117.652 232.877 117.522 234.044 117.634 234.072C117.745 234.09 118.059 232.961 118.328 231.535C118.597 230.109 118.726 228.942 118.615 228.914Z" fill="#EB996E"/>
<path d="M114.556 227.883C114.445 227.865 114.167 228.763 113.936 229.911C113.704 231.05 113.612 231.994 113.723 232.013C113.834 232.031 114.112 231.133 114.343 229.985C114.574 228.846 114.667 227.902 114.556 227.883Z" fill="#EB996E"/>
<path d="M111.169 226.93C111.049 226.93 110.956 227.726 110.808 228.68C110.651 229.624 110.401 230.383 110.512 230.439C110.605 230.485 111.04 229.763 111.216 228.754C111.373 227.745 111.271 226.939 111.169 226.93Z" fill="#EB996E"/>
<path d="M123.197 224.517C123.086 224.499 122.789 225.619 122.456 226.999C122.123 228.378 121.873 229.508 121.984 229.545C122.095 229.582 122.521 228.489 122.863 227.091C123.206 225.693 123.308 224.526 123.197 224.508V224.517Z" fill="#EB996E"/>
<path d="M98.9768 184.385C98.9768 183.626 95.8565 173.034 96.8102 167.543C97.7546 162.052 109.051 124.95 110.569 122.302C112.088 119.654 115.393 118.219 115.393 118.219C115.393 118.219 122.116 121.358 124.384 129.497C126.653 137.635 126.653 147.858 126.653 147.858L117.569 170.385L118.653 183.182L98.9768 184.395V184.385Z" fill="#60C29B"/>
<path d="M126.08 147.109C125.987 147.109 126.163 145.451 126.08 142.775C126.043 141.442 125.895 139.859 125.636 138.118C125.349 136.377 124.923 134.488 124.321 132.544C123.7 130.609 122.95 128.822 122.191 127.229C121.404 125.655 120.617 124.275 119.876 123.164C118.413 120.933 117.321 119.683 117.386 119.618C117.413 119.599 117.7 119.896 118.2 120.461C118.71 121.016 119.386 121.868 120.154 122.97C120.932 124.072 121.765 125.442 122.58 127.025C123.376 128.618 124.145 130.433 124.774 132.387C125.386 134.349 125.802 136.275 126.071 138.035C126.311 139.803 126.432 141.405 126.423 142.757C126.423 144.099 126.367 145.192 126.265 145.942C126.182 146.692 126.117 147.099 126.08 147.099V147.109Z" fill="#263238"/>
<path d="M125.494 151.822C125.55 151.841 125.217 152.924 124.55 154.628C123.893 156.332 122.902 158.656 121.754 161.193C120.643 163.665 119.633 165.896 118.828 167.693C118.087 169.359 117.643 170.396 117.568 170.369C117.513 170.35 117.846 169.267 118.513 167.563C119.17 165.859 120.161 163.535 121.309 160.989C122.42 158.517 123.43 156.285 124.235 154.489C124.976 152.822 125.42 151.785 125.494 151.813V151.822Z" fill="#263238"/>
<path d="M118.095 171.248C118.012 171.377 115.475 169.609 111.873 168.544C108.28 167.442 105.178 167.525 105.188 167.368C105.188 167.312 105.956 167.211 107.206 167.266C108.456 167.312 110.178 167.535 112.012 168.09C113.845 168.646 115.41 169.405 116.475 170.053C117.539 170.701 118.132 171.211 118.095 171.257V171.248Z" fill="#263238"/>
<path d="M177.227 235.056C177.311 235.158 170.014 241.547 160.922 249.324C151.829 257.102 144.394 263.324 144.301 263.223C144.218 263.121 151.514 256.732 160.607 248.954C169.7 241.176 177.135 234.954 177.227 235.056Z" fill="white"/>
<path d="M186.615 235.055C186.698 235.157 180.55 240.582 172.883 247.175C165.207 253.768 158.92 259.036 158.837 258.934C158.753 258.832 164.892 253.407 172.568 246.814C180.235 240.221 186.522 234.962 186.615 235.064V235.055Z" fill="white"/>
<path d="M200.44 248.062C200.44 248.062 200.412 247.858 200.384 247.469C200.356 247.062 200.319 246.487 200.273 245.737C200.255 245.358 200.227 244.932 200.199 244.469C200.153 244.006 200.051 243.497 199.968 242.95C199.884 242.404 199.782 241.812 199.69 241.182C199.616 240.543 199.375 239.895 199.218 239.2C198.579 236.386 197.264 233.071 195.19 229.543C193.097 226.034 190.079 222.376 185.968 219.265C185.449 218.886 184.931 218.497 184.403 218.099C183.856 217.737 183.273 217.404 182.699 217.052C182.116 216.719 181.56 216.312 180.931 216.034C180.31 215.737 179.681 215.432 179.051 215.136C178.736 214.987 178.412 214.83 178.097 214.682C177.764 214.562 177.431 214.441 177.097 214.321C176.421 214.08 175.745 213.83 175.06 213.58C174.366 213.349 173.644 213.2 172.931 213.006C172.208 212.839 171.495 212.589 170.736 212.506C169.236 212.293 167.727 211.987 166.162 211.978C165.384 211.95 164.597 211.876 163.801 211.886C163.005 211.923 162.208 211.969 161.403 212.006C161.005 212.034 160.597 212.034 160.19 212.08L158.986 212.265C158.181 212.395 157.366 212.497 156.551 212.663C154.958 213.099 153.301 213.423 151.727 214.08C150.106 214.599 148.579 215.404 147.014 216.154C146.255 216.571 145.514 217.052 144.764 217.497C144.394 217.737 143.995 217.932 143.644 218.2L142.579 218.997C141.106 220.006 139.819 221.265 138.477 222.487C137.264 223.83 135.986 225.154 134.931 226.682L134.097 227.793L133.366 228.978L132.634 230.173C132.384 230.571 132.153 230.978 131.958 231.404C131.551 232.247 131.144 233.099 130.727 233.95C130.403 234.839 130.069 235.728 129.745 236.626C128.569 240.256 127.931 244.108 127.875 248.034C127.931 251.96 128.56 255.812 129.736 259.441C130.06 260.339 130.394 261.228 130.718 262.117C131.125 262.969 131.542 263.821 131.949 264.663L132.255 265.293L132.616 265.895L133.347 267.089L134.079 268.284L134.912 269.395C135.958 270.923 137.236 272.237 138.458 273.589C139.801 274.802 141.088 276.071 142.56 277.08L143.625 277.876C143.977 278.145 144.375 278.349 144.745 278.58C145.505 279.025 146.236 279.515 146.995 279.923C148.56 280.673 150.088 281.478 151.718 281.997C153.292 282.654 154.949 282.978 156.542 283.413C157.347 283.58 158.171 283.673 158.977 283.812L160.181 283.997C160.579 284.052 160.986 284.043 161.394 284.071C162.199 284.117 162.995 284.154 163.792 284.191C164.588 284.2 165.375 284.126 166.153 284.099C167.718 284.099 169.236 283.784 170.727 283.571C171.486 283.497 172.19 283.237 172.921 283.071C173.634 282.876 174.366 282.728 175.051 282.497C175.736 282.247 176.412 281.997 177.088 281.756C177.421 281.636 177.755 281.515 178.088 281.395C178.412 281.247 178.727 281.089 179.042 280.941C179.671 280.636 180.301 280.339 180.921 280.043C181.551 279.756 182.106 279.358 182.69 279.025C183.264 278.673 183.847 278.339 184.394 277.978C184.921 277.589 185.44 277.2 185.958 276.812C190.069 273.7 193.088 270.043 195.171 266.534C197.245 263.015 198.56 259.691 199.199 256.886C199.366 256.182 199.597 255.534 199.671 254.904C199.773 254.275 199.866 253.682 199.949 253.136C200.032 252.589 200.134 252.08 200.181 251.617C200.208 251.154 200.236 250.728 200.255 250.349C200.301 249.599 200.338 249.025 200.366 248.617C200.394 248.228 200.421 248.025 200.421 248.025C200.421 248.025 200.421 248.228 200.421 248.617C200.403 249.025 200.384 249.599 200.356 250.349C200.338 250.728 200.319 251.154 200.301 251.626C200.264 252.099 200.171 252.599 200.088 253.154C200.005 253.71 199.921 254.302 199.829 254.932C199.764 255.571 199.532 256.219 199.375 256.932C198.755 259.765 197.458 263.117 195.394 266.673C193.31 270.219 190.282 273.932 186.153 277.08C185.634 277.469 185.106 277.867 184.579 278.265C184.023 278.636 183.44 278.969 182.866 279.33C182.273 279.673 181.718 280.08 181.088 280.367C180.458 280.673 179.829 280.978 179.19 281.284C178.866 281.441 178.551 281.589 178.227 281.747C177.894 281.867 177.551 281.997 177.218 282.117C176.542 282.367 175.856 282.617 175.162 282.876C174.468 283.108 173.736 283.265 173.005 283.46C172.273 283.626 171.551 283.886 170.792 283.969C169.282 284.191 167.755 284.506 166.162 284.515C165.375 284.543 164.579 284.626 163.773 284.617C162.968 284.58 162.162 284.534 161.347 284.497C160.94 284.469 160.532 284.469 160.125 284.423L158.903 284.237C158.088 284.108 157.255 284.006 156.44 283.839C154.819 283.404 153.144 283.08 151.551 282.413C149.903 281.886 148.356 281.08 146.773 280.321C145.995 279.904 145.255 279.413 144.486 278.96C144.106 278.719 143.708 278.515 143.356 278.247L142.273 277.441C140.782 276.423 139.477 275.145 138.116 273.913C136.884 272.552 135.588 271.219 134.523 269.673L133.681 268.543L132.94 267.339L132.199 266.126L131.829 265.515L131.514 264.876C131.097 264.015 130.681 263.154 130.264 262.293C129.931 261.395 129.597 260.487 129.264 259.58C128.069 255.904 127.421 251.997 127.375 248.015C127.431 244.043 128.069 240.136 129.264 236.46C129.597 235.552 129.931 234.645 130.264 233.747C130.681 232.886 131.097 232.025 131.505 231.163C131.699 230.728 131.931 230.312 132.19 229.913L132.931 228.7L133.671 227.497L134.514 226.367C135.579 224.821 136.875 223.487 138.106 222.126C139.468 220.895 140.773 219.617 142.264 218.599L143.347 217.793C143.708 217.525 144.106 217.321 144.477 217.08C145.245 216.626 145.986 216.136 146.764 215.719C148.356 214.96 149.903 214.154 151.542 213.626C153.134 212.969 154.81 212.636 156.431 212.2C157.255 212.034 158.079 211.941 158.894 211.802L160.116 211.617C160.523 211.562 160.931 211.571 161.338 211.543C162.153 211.506 162.958 211.46 163.764 211.423C164.569 211.413 165.356 211.487 166.153 211.515C167.736 211.525 169.264 211.839 170.782 212.062C171.542 212.145 172.264 212.404 172.995 212.571C173.718 212.765 174.449 212.923 175.153 213.154C175.847 213.404 176.532 213.663 177.208 213.913C177.551 214.043 177.884 214.163 178.218 214.284C178.542 214.441 178.866 214.589 179.181 214.747C179.819 215.052 180.449 215.358 181.079 215.663C181.708 215.95 182.273 216.367 182.856 216.7C183.431 217.062 184.014 217.395 184.569 217.765C185.097 218.163 185.625 218.562 186.144 218.95C190.282 222.108 193.301 225.812 195.384 229.358C197.449 232.913 198.745 236.275 199.366 239.099C199.523 239.802 199.755 240.46 199.819 241.099C199.912 241.737 199.995 242.33 200.079 242.876C200.153 243.432 200.245 243.932 200.292 244.404C200.31 244.876 200.329 245.302 200.347 245.682C200.375 246.432 200.394 247.006 200.412 247.413C200.421 247.802 200.412 248.006 200.412 248.006L200.44 248.062Z" fill="#263238"/>
<path d="M187.012 267.389C187.012 267.389 187.327 266.935 187.928 266.148C188.53 265.361 189.354 264.195 190.243 262.676C192.03 259.658 193.965 255.084 194.53 249.732C195.095 244.38 194.151 239.5 193.03 236.176C192.475 234.51 191.91 233.195 191.484 232.297C191.067 231.408 190.817 230.917 190.845 230.898C190.864 230.898 190.938 231 191.077 231.223C191.206 231.445 191.419 231.769 191.651 232.213C192.132 233.084 192.743 234.389 193.354 236.065C194.577 239.389 195.586 244.343 195.012 249.787C194.447 255.223 192.428 259.861 190.539 262.861C189.604 264.371 188.725 265.519 188.077 266.278C187.762 266.667 187.484 266.935 187.308 267.13C187.123 267.315 187.03 267.417 187.012 267.398V267.389Z" fill="#263238"/>
<path d="M185.086 270.707C185.151 270.818 184.864 271.114 184.447 271.346C184.031 271.587 183.633 271.688 183.568 271.568C183.503 271.457 183.79 271.161 184.207 270.929C184.623 270.688 185.021 270.587 185.086 270.707Z" fill="#263238"/>
<path d="M137.348 263.647C137.348 263.647 137.255 263.508 137.126 263.212C136.996 262.916 136.792 262.49 136.579 261.916C136.135 260.786 135.579 259.101 135.107 256.971C134.153 252.74 133.764 246.536 135.514 240.064C137.264 233.592 140.718 228.425 143.672 225.249C145.153 223.647 146.477 222.471 147.431 221.721C147.894 221.332 148.292 221.073 148.552 220.879C148.811 220.694 148.959 220.601 148.968 220.62C148.996 220.647 148.468 221.073 147.552 221.87C146.635 222.666 145.357 223.87 143.922 225.49C141.061 228.703 137.7 233.823 135.977 240.203C134.255 246.582 134.579 252.703 135.44 256.916C135.866 259.036 136.357 260.721 136.755 261.87C137.144 263.018 137.385 263.647 137.348 263.657V263.647Z" fill="white"/>
<path d="M158.837 218.266C158.847 218.395 157.893 218.59 156.689 218.682C155.495 218.784 154.513 218.757 154.504 218.627C154.495 218.497 155.448 218.303 156.652 218.21C157.847 218.108 158.828 218.136 158.837 218.266Z" fill="white"/>
</g>
</g>
<defs>
<clipPath id="clip0_40000396_74098">
<rect width="145.269" height="310.546" fill="white" transform="translate(70.375 51.8516)"/>
</clipPath>
</defs>
</svg>
