<svg width="300" height="300" viewBox="0 0 300 300" fill="none" xmlns="http://www.w3.org/2000/svg">
<circle cx="150" cy="150" r="150" fill="#FAFAFA"/>
<mask id="mask0_40000396_74031" style="mask-type:alpha" maskUnits="userSpaceOnUse" x="0" y="0" width="300" height="300">
<circle cx="150" cy="150" r="150" fill="#FAFAFA"/>
</mask>
<g mask="url(#mask0_40000396_74031)">
<path d="M-0.1875 106.177H40.8963C40.8963 106.177 40.8963 71.694 76.7584 71.1029C95.3791 70.8073 105.034 82.9256 108.975 92.2852C113.507 103.123 112.128 115.536 106.02 125.586C99.0244 137.113 83.7535 147.556 56.1673 142.63V235.241H96.7584V181.054C96.7584 181.054 153.704 166.374 153.704 103.615C153.704 43.6152 99.8126 29.625 76.8569 29.625C59.2214 29.625 -0.778688 33.8614 -0.0890318 106.374L-0.1875 106.177Z" fill="#E8E8E8"/>
<path d="M97.026 254.227H55.8438V292.749H97.026V254.227Z" fill="#E8E8E8"/>
<path d="M138.887 -2.15129H179.971C179.971 -2.15129 179.97 -36.6341 215.833 -37.2252C234.453 -37.5208 244.109 -25.4026 248.049 -16.0429C252.581 -5.20548 251.202 7.20832 245.094 17.2576C238.099 28.7847 222.828 39.2281 195.241 34.3019V126.913H235.833V72.7256C235.833 72.7256 292.779 58.0458 292.779 -4.71288C292.779 -64.713 238.887 -78.7031 215.931 -78.7031C198.296 -78.7031 138.296 -74.4667 138.985 -1.95426L138.887 -2.15129Z" fill="#F3F3F3"/>
<path d="M236.1 145.898H194.918V184.421H236.1V145.898Z" fill="#F3F3F3"/>
<g clip-path="url(#clip0_40000396_74031)">
<path d="M79.2174 122.394C92.6545 118.761 100.602 104.923 96.969 91.4857C93.3358 78.0486 79.4976 70.1009 66.0605 73.7341C52.6234 77.3672 44.6757 91.2054 48.3089 104.643C51.942 118.08 65.7802 126.027 79.2174 122.394Z" fill="white"/>
<path d="M91.7172 81.5886C91.7172 81.5886 91.6061 81.496 91.4209 81.3109C91.2172 81.1072 90.9394 80.8201 90.5783 80.459C90.3931 80.2738 90.1894 80.0609 89.9579 79.8294C89.7172 79.6072 89.4394 79.3942 89.1431 79.1442C88.5505 78.6534 87.8931 78.0609 87.0412 77.5238C85.4301 76.3479 83.2357 75.209 80.5598 74.3016C77.8838 73.4127 74.6431 72.8664 71.0968 73.0979C67.5598 73.3386 63.6801 74.3109 60.0783 76.459C56.5227 78.6072 53.1061 81.7275 50.8653 85.8664C50.2542 86.8664 49.819 87.9775 49.3375 89.0794C49.1246 89.6442 48.9579 90.2275 48.7727 90.8016C48.5598 91.3757 48.4394 91.9683 48.3098 92.5701C47.9949 93.7646 47.8931 95.0053 47.7449 96.246C47.7172 97.496 47.6431 98.7646 47.782 100.033C48.0042 102.57 48.5227 105.153 49.5783 107.57C50.5968 109.996 52.0135 112.302 53.7542 114.376C55.5505 116.403 57.6246 118.135 59.8746 119.496C62.1153 120.894 64.5968 121.783 67.069 122.366C68.3098 122.69 69.569 122.802 70.8098 122.959C72.0598 122.987 73.3005 123.07 74.532 122.931C75.1431 122.894 75.7542 122.857 76.3561 122.737C76.9579 122.626 77.5505 122.552 78.1431 122.422C79.3005 122.107 80.4579 121.839 81.5412 121.376C85.9672 119.765 89.5505 116.839 92.1894 113.626C94.8375 110.376 96.3561 106.672 97.1061 103.209C97.8561 99.7275 97.782 96.4497 97.2912 93.672C96.7912 90.8942 95.9764 88.5609 95.0505 86.7923C94.6431 85.8757 94.1616 85.1349 93.7542 84.4775C93.5505 84.1534 93.3746 83.8386 93.1894 83.5794C92.9949 83.3201 92.819 83.0886 92.6524 82.8757C92.3468 82.4683 92.1061 82.1534 91.9394 81.9127C91.782 81.6905 91.6986 81.5794 91.7079 81.5701C91.7079 81.5701 91.8098 81.672 91.9764 81.8757C92.1616 82.1072 92.4116 82.4127 92.7357 82.8109C92.9024 83.0146 93.0875 83.246 93.2912 83.5053C93.4857 83.7646 93.6616 84.0794 93.8746 84.4034C94.2912 85.0516 94.8005 85.7923 95.2172 86.709C96.1801 88.4683 97.0227 90.8201 97.5598 93.6257C98.0783 96.4312 98.1801 99.746 97.4394 103.283C96.6986 106.792 95.1709 110.561 92.4949 113.876C89.8283 117.153 86.1894 120.135 81.6894 121.792C80.5875 122.265 79.4116 122.542 78.2264 122.866C77.6338 122.996 77.0227 123.079 76.4116 123.19C75.8005 123.32 75.1801 123.357 74.5598 123.394C73.3098 123.533 72.0505 123.459 70.7727 123.431C69.5042 123.274 68.2172 123.163 66.9579 122.839C64.4394 122.237 61.9024 121.339 59.6153 119.913C57.319 118.524 55.2079 116.765 53.3746 114.69C51.5968 112.579 50.1616 110.237 49.1246 107.755C48.0505 105.283 47.5227 102.653 47.3005 100.07C47.1616 98.7738 47.2357 97.4868 47.2635 96.209C47.4209 94.9405 47.532 93.6812 47.8468 92.4683C47.9764 91.8571 48.1061 91.246 48.319 90.6627C48.5135 90.0794 48.6894 89.4868 48.9024 88.9127C49.3931 87.7923 49.8375 86.6627 50.4672 85.6442C52.7542 81.4312 56.2449 78.2646 59.8653 76.1072C63.532 73.9405 67.4764 72.9775 71.0598 72.7553C74.6616 72.5423 77.9301 73.1164 80.6338 74.0423C83.3283 74.9775 85.532 76.1534 87.1338 77.3664C87.9764 77.9127 88.6338 78.5238 89.2172 79.0331C89.5042 79.2923 89.782 79.5146 90.0135 79.746C90.2357 79.9868 90.4394 80.1997 90.6153 80.3942C90.9579 80.7738 91.2264 81.0609 91.4301 81.2831C91.6153 81.4868 91.6986 81.5886 91.6986 81.5979L91.7172 81.5886Z" fill="#263238"/>
<path d="M65.7978 91.0255H69.7885C69.7885 91.0255 69.7885 87.6736 73.27 87.6088C75.0755 87.581 76.02 88.7662 76.3996 89.6736C76.8441 90.7292 76.7052 91.9329 76.1126 92.9051C75.4366 94.0255 73.9552 95.0347 71.2607 94.5625V103.562H75.2052V98.294C75.2052 98.294 80.7422 96.8588 80.7422 90.7569C80.7422 84.6551 75.5107 83.5625 73.27 83.5625C71.557 83.5625 65.7144 83.9792 65.7978 91.0162V91.0255Z" fill="#CC0004"/>
<path d="M75.2593 105.422H71.25V109.163H75.2593V105.422Z" fill="#CC0004"/>
<path d="M107.114 109.87C107.114 111.564 105.744 112.934 104.049 112.934C102.355 112.934 100.984 111.564 100.984 109.87C100.984 108.175 102.355 106.805 104.049 106.805C105.744 106.805 107.114 108.175 107.114 109.87Z" fill="white"/>
<path d="M107.115 109.867C107.115 109.867 107.069 109.598 106.93 109.145C106.791 108.7 106.476 108.061 105.8 107.571C105.152 107.08 104.097 106.821 103.087 107.2C102.087 107.552 101.226 108.626 101.235 109.867C101.226 111.108 102.087 112.182 103.087 112.534C104.097 112.913 105.152 112.654 105.8 112.163C106.476 111.672 106.791 111.034 106.93 110.589C107.069 110.135 107.078 109.867 107.115 109.867C107.143 109.867 107.198 110.145 107.115 110.635C107.032 111.117 106.735 111.848 106.013 112.432C105.319 113.015 104.124 113.367 102.939 112.95C101.772 112.571 100.745 111.33 100.754 109.867C100.745 108.404 101.763 107.163 102.939 106.784C104.124 106.367 105.319 106.719 106.013 107.302C106.735 107.885 107.022 108.617 107.115 109.098C107.208 109.598 107.143 109.867 107.115 109.867Z" fill="#263238"/>
<path d="M198.836 106.862L207.253 106.371C210.799 109.677 215.281 112.066 220.382 113.094C235.058 116.029 249.336 106.51 252.271 91.8344C255.206 77.1585 245.688 62.8807 231.012 59.9455C216.336 57.0103 202.058 66.5288 199.123 81.2048C197.901 87.3344 198.845 93.39 201.438 98.5844H201.429L198.836 106.871V106.862Z" fill="white"/>
<path d="M198.837 106.859C198.837 106.859 198.883 106.684 198.985 106.332C199.096 105.971 199.254 105.443 199.467 104.748C199.902 103.332 200.531 101.248 201.365 98.5354L201.402 98.415L201.485 98.5076H201.494L201.383 98.6002C199.828 95.4891 198.346 91.0261 198.513 85.5817C198.55 84.2298 198.707 82.8224 198.976 81.3965C199.318 79.9798 199.624 78.4983 200.207 77.0446C201.281 74.128 202.93 71.202 205.226 68.5817C207.513 65.9613 210.43 63.665 213.846 62.0076C217.254 60.3502 221.152 59.3502 225.217 59.2668C229.281 59.1557 233.485 60.0724 237.355 61.8965C241.226 63.7205 244.781 66.4983 247.439 70.1002C247.772 70.5539 248.105 70.9983 248.43 71.452C248.717 71.9335 249.004 72.4057 249.291 72.8872L249.717 73.6002L250.078 74.3502C250.318 74.8502 250.55 75.3502 250.791 75.8502C251.013 76.3594 251.17 76.878 251.365 77.3965C251.541 77.915 251.763 78.415 251.883 78.952C252.142 80.0076 252.467 81.0446 252.587 82.1187C253.281 86.378 252.939 90.6743 251.744 94.5817C250.522 98.4798 248.457 101.971 245.892 104.785C243.328 107.609 240.281 109.767 237.115 111.221C233.948 112.684 230.661 113.452 227.55 113.656C225.994 113.795 224.476 113.684 223.022 113.6C221.578 113.378 220.17 113.221 218.865 112.85C213.596 111.471 209.735 108.795 207.207 106.424L207.254 106.443C204.513 106.582 202.402 106.693 200.967 106.767C200.272 106.804 199.735 106.832 199.365 106.841C199.004 106.859 198.837 106.859 198.837 106.859C198.837 106.859 199.031 106.841 199.392 106.813C199.763 106.785 200.309 106.748 201.013 106.702C202.439 106.609 204.531 106.471 207.254 106.295H207.281L207.3 106.313C209.828 108.646 213.68 111.285 218.911 112.628C220.207 112.989 221.605 113.137 223.031 113.359C224.476 113.443 225.976 113.545 227.522 113.396C230.605 113.184 233.855 112.415 236.985 110.961C240.115 109.508 243.124 107.369 245.661 104.572C248.189 101.785 250.226 98.3409 251.439 94.4798C252.615 90.6187 252.948 86.3687 252.263 82.165C252.142 81.1002 251.828 80.0817 251.568 79.0354C251.457 78.5076 251.235 78.0076 251.059 77.4983C250.865 76.9891 250.707 76.4705 250.485 75.9705C250.254 75.4798 250.013 74.9891 249.781 74.4891L249.43 73.7483L249.004 73.0446C248.717 72.5724 248.439 72.1002 248.152 71.628C247.837 71.1742 247.494 70.7391 247.17 70.2854C244.55 66.7298 241.031 63.9891 237.217 62.1742C233.392 60.3687 229.235 59.4613 225.217 59.5724C221.198 59.6557 217.337 60.6372 213.967 62.2668C210.587 63.8965 207.689 66.165 205.42 68.7483C203.142 71.3317 201.504 74.2298 200.43 77.1187C199.837 78.5539 199.541 80.0261 199.189 81.4242C198.911 82.8409 198.754 84.2391 198.707 85.5724C198.513 90.9705 199.957 95.415 201.485 98.5168L201.707 98.9705L201.365 98.5909H201.355L201.476 98.5539C200.615 101.23 199.957 103.295 199.513 104.693C199.291 105.387 199.115 105.915 199.004 106.285C198.883 106.646 198.818 106.832 198.818 106.832L198.837 106.859Z" fill="#263238"/>
<path d="M217.41 81.3507H221.271C221.271 81.3507 221.271 78.11 224.642 78.0544C226.392 78.0266 227.299 79.1655 227.669 80.0451C228.095 81.0637 227.966 82.2303 227.392 83.1748C226.734 84.2581 225.299 85.2396 222.706 84.7766V93.4803H226.521V88.3877C226.521 88.3877 231.873 87.0081 231.873 81.11C231.873 75.4711 226.808 74.1562 224.651 74.1562C222.993 74.1562 217.355 74.5544 217.419 81.3692L217.41 81.3507Z" fill="#CC0004"/>
<path d="M226.546 95.2656H222.676V98.886H226.546V95.2656Z" fill="#CC0004"/>
<g filter="url(#filter0_d_40000396_74031)">
<path d="M119.636 237.812C119.636 237.812 116.534 249.831 117.654 264.479C118.089 270.146 137.21 426.914 137.21 426.914H163.024L155.765 279.571L157.876 280.034C157.876 280.034 171.969 342.877 173.117 353.053C174.154 362.201 186.812 434.081 186.812 434.081L211.173 433.812L202.108 341.034L193.33 256.71L190.034 232.164L119.626 237.821L119.636 237.812Z" fill="#EEEEEE"/>
<path d="M122.625 263.887C146.421 272.091 177.69 276.211 193.727 260.406L188.532 140.609H127.931L122.625 263.887Z" fill="#60C29B"/>
<path d="M168.412 202.947C168.505 203.049 164.31 206.975 159.06 211.716C153.801 216.466 149.468 220.225 149.384 220.132C149.292 220.03 153.486 216.104 158.745 211.364C164.005 206.623 168.338 202.854 168.421 202.947H168.412Z" fill="#263238"/>
<path opacity="0.3" d="M145.866 269.803C145.866 269.803 147.394 169.201 145.375 164.294C143.357 159.386 136.144 268.34 136.773 268.34L145.866 269.803Z" fill="#4CA07F"/>
<path d="M120.745 166.019L117.67 216.75L115.448 267.713C122.032 272.741 130.994 275.361 141.689 276.213L145.874 173.25V133.75L145.133 133.25L140.022 137.667L138.856 137.787C138.041 136.102 136.745 136.731 136.745 136.731C136.337 136.046 135.754 135.926 135.754 135.926C134.522 135.741 133.763 136.731 133.763 136.731L132.828 135.731C131.309 135.296 130.439 137.176 130.439 137.176C117.078 138.657 115.272 146.509 113.18 151.491L120.754 166.019H120.745Z" fill="#003054"/>
<path d="M124.662 167.012C124.523 167.438 123.384 196.003 123.384 196.003C123.384 196.003 126.514 199.271 125.375 203.531C124.236 207.79 122.162 217.623 116.523 218.058C108.615 218.66 101.217 214.049 101.365 199.836C101.504 185.623 113.06 151.484 113.06 151.484L126.662 161.133L124.671 167.012H124.662Z" fill="#003054"/>
<path d="M170.354 131.852C170.354 131.852 175.077 134.916 176.447 137.148L179.864 137.12C180.465 137.055 181.104 136.37 181.873 136.398C182.327 136.416 182.882 137.111 183.382 137.157C183.808 137.194 184.16 136.435 184.604 136.49C185.558 136.611 186.262 137.25 187.271 137.5C191.095 138.444 195.345 139.74 197.345 141.176C202.521 144.889 204.262 151.472 204.262 151.472C204.262 151.472 190.28 166.555 191.252 167.268C192.225 167.981 191.697 205.787 191.697 205.787C191.697 205.787 196.873 263.416 195.493 265.305C194.114 267.194 180.225 275.62 167.16 274.879C167.16 274.879 166.734 267.565 167.827 250.361C169.456 224.5 169.271 215.194 169.734 205.889C170.475 190.87 169.604 162.537 169.743 157.833C169.845 154.435 170.03 131.935 170.354 131.861V131.852Z" fill="#003054"/>
<g opacity="0.3">
<path d="M189.68 196.242C187.393 200.057 186.44 204.64 187.023 209.048C187.597 213.455 189.708 217.64 192.903 220.733V214.863L190.153 197.594L189.68 196.242Z" fill="black"/>
</g>
<path d="M204.271 151.469C204.271 151.469 209.16 188.348 211.707 191.747C214.253 195.154 213.41 199.959 212.753 204.635C212.031 209.756 209.475 221.913 199.744 221.08C194.642 220.645 191.614 216.95 189.873 211.441C186.855 201.885 190.771 190.598 190.762 188.006C190.753 185.413 187.688 166.071 188.049 165.052C188.41 164.034 204.271 151.469 204.271 151.469Z" fill="#003054"/>
<path d="M145.709 157.943C145.709 157.943 145.496 157.675 145.163 157.156C144.82 156.647 144.339 155.888 143.58 155.101C143.2 154.712 142.737 154.323 142.172 154.027C141.617 153.721 140.931 153.592 140.209 153.508C138.755 153.369 137.089 153.656 135.607 154.527L135.07 154.842L135.255 154.249C135.487 153.518 135.718 152.749 135.941 151.962C137.033 148.055 138.015 144.518 138.765 141.832C139.117 140.61 139.404 139.582 139.644 138.768C139.857 138.045 139.996 137.647 140.024 137.656C140.052 137.656 139.987 138.073 139.82 138.814C139.663 139.555 139.413 140.61 139.089 141.916C138.441 144.527 137.533 148.138 136.404 152.092C136.181 152.879 135.941 153.656 135.709 154.397L135.357 154.119C138.533 152.268 142.404 152.971 143.811 154.879C144.57 155.73 145.015 156.527 145.311 157.064C145.607 157.61 145.737 157.925 145.709 157.934V157.943Z" fill="#263238"/>
<g opacity="0.3">
<path d="M173.04 154.312C174.53 153.636 176.289 153.636 177.864 154.09L177.882 154.164C178.327 155.386 178.632 156.646 178.808 157.933C176.141 156.368 172.743 155.72 170.012 157.155C170.919 155.849 171.558 154.979 173.049 154.303L173.04 154.312Z" fill="black"/>
</g>
<path d="M169.736 157.354C169.736 157.354 169.865 157.057 170.217 156.585C170.569 156.122 171.134 155.465 171.977 154.798C172.402 154.465 172.902 154.141 173.504 153.881C174.106 153.622 174.819 153.492 175.551 153.502C177.023 153.502 178.69 154.039 180.014 155.215L179.625 155.418C179.477 154.372 179.282 153.27 179.088 152.131C178.338 148.048 177.671 144.354 177.152 141.548C176.93 140.27 176.745 139.187 176.588 138.335C176.467 137.576 176.412 137.15 176.44 137.141C176.477 137.141 176.588 137.548 176.764 138.298C176.94 139.048 177.19 140.131 177.477 141.483C178.051 144.178 178.81 147.9 179.551 152.048C179.745 153.187 179.94 154.289 180.078 155.354L180.162 155.992L179.69 155.557C178.467 154.455 176.921 153.918 175.541 153.9C174.134 153.826 172.995 154.428 172.152 155.039C170.467 156.289 169.791 157.409 169.727 157.344L169.736 157.354Z" fill="#263238"/>
<g opacity="0.3">
<path d="M127.781 204.213C124.679 203.898 121.466 205.111 119.336 207.38C117.207 209.648 116.216 212.945 116.725 216.01C116.883 215.926 117.772 215.574 117.772 215.574L117.503 220.111C121.012 219.63 124.42 217.389 126.336 214.408C128.253 211.426 128.799 207.602 127.781 204.204V204.213Z" fill="black"/>
</g>
<path d="M116.512 218.054C119.373 217.804 122.058 216.203 123.984 213.916C125.91 211.628 127.095 208.712 127.632 205.693C128.243 202.304 127.993 198.554 126.086 195.777C124.141 192.943 121.336 191.777 118.225 190.656" fill="#003054"/>
<path d="M118.223 190.658C118.223 190.658 118.742 190.769 119.649 191.084C120.547 191.417 121.862 191.889 123.316 192.824C124.76 193.75 126.316 195.26 127.223 197.408C128.131 199.537 128.362 202.13 128.029 204.741C127.686 207.352 126.881 209.778 125.742 211.76C124.612 213.76 123.14 215.269 121.714 216.241C120.288 217.232 118.936 217.695 118.001 217.898C117.529 218 117.158 218.047 116.908 218.056C116.658 218.074 116.52 218.065 116.52 218.056C116.52 218.01 117.047 217.963 117.955 217.713C118.862 217.463 120.158 216.963 121.52 215.963C122.881 214.982 124.288 213.491 125.362 211.537C126.445 209.593 127.223 207.223 127.557 204.676C127.881 202.13 127.668 199.621 126.825 197.574C125.982 195.519 124.52 194.047 123.14 193.102C121.751 192.158 120.464 191.63 119.594 191.25C118.714 190.88 118.223 190.676 118.242 190.648L118.223 190.658Z" fill="#263238"/>
<path d="M120.382 159.555C120.382 159.555 120.641 160.166 121.002 161.286C121.373 162.499 121.864 164.092 122.447 165.981V166.008V166.036C122.475 168.768 122.502 172.101 122.539 175.712C122.576 180.203 122.614 184.258 122.641 187.323C122.651 188.74 122.66 189.916 122.669 190.842C122.669 191.675 122.651 192.129 122.623 192.138C122.586 192.138 122.539 191.684 122.484 190.851C122.428 190.018 122.364 188.823 122.308 187.332C122.188 184.36 122.104 180.258 122.058 175.721C122.03 172.092 122.03 168.731 122.058 166.045V166.101C121.549 164.194 121.114 162.592 120.78 161.36C120.484 160.221 120.336 159.582 120.373 159.564L120.382 159.555Z" fill="#263238"/>
<path d="M195.145 160.665C195.145 160.665 194.876 161.155 194.312 161.998C193.691 162.905 192.876 164.081 191.904 165.498L191.941 165.396C191.95 168.313 191.839 172.183 191.626 176.415C191.386 181.007 191.173 185.165 191.006 188.294C190.941 189.748 190.886 190.952 190.839 191.896C190.802 192.748 190.756 193.22 190.728 193.22C190.691 193.22 190.673 192.748 190.654 191.896C190.636 191.044 190.645 189.813 190.673 188.285C190.728 185.239 190.923 181.035 191.154 176.387C191.367 172.165 191.525 168.304 191.58 165.396V165.331L191.617 165.285C192.645 163.905 193.497 162.757 194.163 161.878C194.775 161.081 195.126 160.646 195.154 160.665H195.145Z" fill="#263238"/>
<path d="M201.745 221.059C201.745 221.059 201.19 221.096 200.181 221.077C199.19 220.948 197.699 220.79 196.06 219.966C194.431 219.151 192.736 217.67 191.495 215.605C190.236 213.55 189.375 211.031 188.819 208.337C188.227 205.642 188.19 202.966 188.486 200.605C188.782 198.235 189.412 196.161 190.106 194.494C190.819 192.837 191.588 191.587 192.19 190.781C192.468 190.364 192.736 190.077 192.903 189.874C193.079 189.67 193.171 189.577 193.181 189.587C193.282 189.651 191.745 191.318 190.421 194.633C189.782 196.29 189.19 198.337 188.921 200.67C188.662 202.994 188.699 205.605 189.292 208.253C189.838 210.911 190.671 213.383 191.875 215.383C193.069 217.392 194.662 218.846 196.218 219.67C197.782 220.512 199.227 220.716 200.199 220.901C201.19 220.975 201.745 221.031 201.745 221.068V221.059Z" fill="#263238"/>
<g opacity="0.3">
<path d="M142.003 153.789C140.512 153.113 138.753 153.113 137.179 153.567L137.16 153.641C136.716 154.863 136.41 156.122 136.234 157.409C138.901 155.844 142.383 155.761 145.114 157.206C144.429 155.715 143.484 154.456 141.994 153.78L142.003 153.789Z" fill="black"/>
</g>
<path d="M154.801 78.4297L153.764 78.476C143.31 78.9019 134.93 87.3001 134.523 97.7538C134.143 107.485 133.847 116.976 134.125 122.18C134.699 132.939 145.754 134.004 145.754 134.004C145.782 134.004 145.736 137.745 145.727 140.911C150.736 149.383 162.745 150.254 168.68 142.393L170.004 140.726L171.634 99.4945C172.134 88.2723 166.023 78.6241 154.791 78.4389L154.801 78.4297Z" fill="#FFBF9D"/>
<path d="M145.754 134.097C145.754 134.097 152.559 134.218 159.606 129.375C159.606 129.375 156.569 137.606 145.782 137.088L145.754 134.106V134.097Z" fill="#FF9A6C"/>
<path d="M139.477 106.001C139.477 106.815 140.171 107.482 141.023 107.491C141.875 107.501 142.56 106.853 142.551 106.038C142.551 105.223 141.856 104.556 141.004 104.547C140.153 104.538 139.467 105.186 139.477 106.001Z" fill="#263238"/>
<path d="M137.006 102.401C137.2 102.596 138.33 101.679 139.987 101.624C141.635 101.54 142.885 102.336 143.061 102.124C143.145 102.031 142.941 101.679 142.395 101.309C141.858 100.948 140.959 100.614 139.922 100.661C138.895 100.707 138.043 101.124 137.561 101.531C137.07 101.938 136.913 102.309 137.006 102.401Z" fill="#263238"/>
<path d="M154.727 105.821C154.727 106.636 155.421 107.302 156.273 107.312C157.125 107.321 157.81 106.673 157.801 105.858C157.801 105.043 157.106 104.377 156.254 104.367C155.403 104.358 154.717 105.006 154.727 105.821Z" fill="#263238"/>
<path d="M153.244 102.112C153.448 102.307 154.577 101.399 156.225 101.334C157.874 101.251 159.124 102.047 159.3 101.834C159.383 101.742 159.179 101.39 158.633 101.02C158.096 100.659 157.198 100.325 156.161 100.372C155.133 100.418 154.281 100.834 153.8 101.242C153.309 101.649 153.151 102.02 153.244 102.112Z" fill="#263238"/>
<path d="M147.838 115.075C147.838 114.982 146.811 114.843 145.135 114.705C144.709 114.677 144.311 114.612 144.227 114.325C144.116 114.019 144.274 113.566 144.459 113.056C144.811 112.019 145.181 110.927 145.579 109.788C147.125 105.13 148.227 101.316 148.042 101.251C147.857 101.186 146.45 104.908 144.903 109.566C144.533 110.714 144.181 111.806 143.838 112.853C143.7 113.343 143.45 113.899 143.69 114.519C143.82 114.834 144.135 115.047 144.412 115.112C144.69 115.186 144.922 115.177 145.135 115.186C146.82 115.205 147.857 115.168 147.857 115.075H147.838Z" fill="#263238"/>
<path d="M153.671 93.8924C153.856 94.3369 155.495 94.0591 157.449 94.2165C159.402 94.3369 160.995 94.8369 161.236 94.4295C161.347 94.235 161.051 93.8183 160.402 93.4109C159.754 93.0035 158.736 92.6239 157.569 92.5406C156.402 92.4572 155.338 92.6887 154.643 93.0035C153.94 93.3183 153.597 93.6887 153.68 93.9017L153.671 93.8924Z" fill="#263238"/>
<path d="M137.589 94.7619C137.95 95.123 139.283 94.6786 140.904 94.5953C142.524 94.4656 143.904 94.7249 144.209 94.3267C144.339 94.1323 144.107 93.7619 143.496 93.4286C142.894 93.0953 141.894 92.8453 140.783 92.9193C139.672 92.9934 138.718 93.373 138.172 93.7804C137.617 94.1879 137.441 94.586 137.598 94.7619H137.589Z" fill="#263238"/>
<path d="M171.086 107.496C171.262 107.412 178.392 105.005 178.466 112.375C178.54 119.746 170.531 118.551 170.512 118.338C170.494 118.125 171.086 107.496 171.086 107.496Z" fill="#FFBF9D"/>
<path d="M173.328 115.269C173.328 115.269 173.458 115.361 173.671 115.454C173.884 115.547 174.245 115.611 174.634 115.463C175.412 115.167 176.05 113.926 176.078 112.602C176.088 111.935 175.939 111.297 175.699 110.769C175.467 110.232 175.115 109.861 174.726 109.787C174.338 109.704 174.06 109.935 173.967 110.148C173.875 110.352 173.921 110.5 173.884 110.519C173.865 110.537 173.726 110.398 173.782 110.093C173.81 109.945 173.893 109.769 174.069 109.63C174.245 109.482 174.504 109.408 174.773 109.435C175.338 109.472 175.856 109.991 176.125 110.565C176.421 111.148 176.606 111.861 176.588 112.611C176.55 114.093 175.81 115.491 174.745 115.815C174.226 115.954 173.791 115.806 173.569 115.63C173.338 115.454 173.3 115.287 173.328 115.269Z" fill="#FF9A6C"/>
<path d="M119.644 88.0428C119.755 87.6076 120.07 87.2465 120.45 87.015C121.292 86.5057 122.265 86.5613 123.2 86.5335C125.542 86.4687 127.848 85.8483 129.922 84.765C129.19 84.4039 128.505 83.9687 127.922 83.3946C126.718 82.2187 126.015 80.4039 126.542 78.8113C126.644 78.515 126.811 78.2002 127.116 78.0983C127.598 77.9502 128.015 78.4131 128.357 78.7835C129.468 79.9965 130.487 80.515 132.126 80.3298C133.144 80.2187 134.126 79.978 134.922 79.4687C134.95 79.4317 134.978 79.3946 135.015 79.3668C135.394 78.9687 135.765 78.5891 136.126 78.2187C138.866 75.4409 141.228 73.5057 143.672 72.4872C147.255 70.9965 153.265 70.3391 157.033 71.2835C160.802 72.228 164.2 75.228 164.765 79.0705C166.848 77.265 170.005 77.2465 172.579 78.2465L172.644 78.2187C175.515 79.2002 177.163 82.2002 178.042 85.1076C178.089 85.265 178.135 85.4317 178.181 85.5891C179.163 87.1076 180.487 88.4039 182.061 89.2928C182.339 89.4502 182.653 89.6446 182.69 89.9594C182.728 90.2743 182.468 90.5335 182.209 90.728C181.533 91.228 180.737 91.5613 179.913 91.7187C180.181 92.4039 180.496 93.0798 180.885 93.7094C181.209 94.2557 181.607 94.9039 181.329 95.4687C181.116 95.9131 180.561 96.0983 180.079 96.0335C179.598 95.9687 179.163 95.7002 178.746 95.4502C179.07 96.2094 179.403 96.9687 179.728 97.728C178.7 97.9224 177.626 97.8483 176.616 97.552C176.042 100.284 175.644 105.33 174.959 107.182C173.005 107.237 172.524 107.034 171.542 107.367C170.274 107.802 170.783 110.061 169.116 109.432C168.265 109.117 166.931 105.922 166.635 105.061C164.69 99.3668 163.996 93.2465 164.607 87.265C163.413 86.015 161.968 85.0057 160.394 84.2928L160.524 84.4039C157.496 83.3946 154.079 82.4039 151.237 83.8483C149.033 84.9687 147.755 87.2928 146.116 89.1446C143.015 92.6631 139.478 94.5613 134.792 94.8113C134.403 98.0705 134.339 103.395 134.218 106.432L131.552 100.385V100.413C131.339 100.061 131.163 99.7002 130.987 99.3483L130.931 99.2372C130.663 98.6446 130.403 98.0705 130.061 97.5057C130.052 97.5057 130.042 97.5243 130.033 97.5335C128.403 99.0057 125.95 96.8113 127.228 95.0243C127.478 94.6724 127.783 94.3576 128.135 94.0891C127.394 94.802 126.274 95.1539 125.283 94.8668C124.292 94.5705 123.515 93.5891 123.589 92.5613C123.635 91.8576 124.135 91.228 124.765 90.9409C123.44 91.0613 122.07 90.7835 120.903 90.1354C120.135 89.7094 119.385 89.0057 119.635 88.052L119.644 88.0428Z" fill="#263238"/>
<path d="M161.387 80.3359C161.387 80.3359 161.84 80.6137 162.479 81.3174C163.109 82.0119 163.822 83.2248 164.174 84.8822C164.35 85.7063 164.47 86.6322 164.479 87.623C164.498 88.6137 164.424 89.6785 164.368 90.8082C164.313 91.9285 164.239 93.1137 164.331 94.3452C164.377 94.9563 164.452 95.5859 164.6 96.2063C164.739 96.8174 164.914 97.4841 165.377 98.0119C165.748 98.4378 166.368 98.623 166.905 98.5026C167.442 98.4008 167.924 98.1045 168.266 97.7156C168.952 96.9008 169.109 95.8637 169.276 94.9563L169.053 94.9841C169.433 95.7896 169.822 96.5952 170.396 97.2341C170.961 97.873 171.729 98.2896 172.507 98.3545C172.896 98.3822 173.285 98.3174 173.618 98.1508C173.961 97.9841 174.202 97.6971 174.368 97.4008C174.526 97.0952 174.609 96.7619 174.59 96.4378C174.572 96.1137 174.442 95.8174 174.239 95.6045L174.127 95.7063C174.97 96.6415 175.859 97.1415 176.461 97.4193C176.766 97.5582 177.016 97.6415 177.183 97.6878C177.35 97.7341 177.442 97.7526 177.442 97.7526C177.442 97.7526 177.359 97.7156 177.202 97.6508C177.044 97.5859 176.803 97.4933 176.498 97.3452C175.905 97.0489 175.044 96.5396 174.239 95.6045L174.127 95.7063C174.498 96.0859 174.526 96.7619 174.22 97.3082C174.063 97.5767 173.84 97.8267 173.544 97.9748C173.248 98.123 172.896 98.1785 172.535 98.1508C171.822 98.0859 171.1 97.6971 170.572 97.0859C170.035 96.4748 169.655 95.6971 169.285 94.8915L169.127 94.5489L169.063 94.9193C168.896 95.8267 168.729 96.8174 168.1 97.5489C167.785 97.9008 167.35 98.1693 166.877 98.2526C166.405 98.3452 165.905 98.197 165.581 97.8359C165.174 97.3822 164.998 96.7526 164.859 96.1508C164.72 95.5396 164.637 94.9285 164.6 94.3267C164.516 93.1137 164.572 91.9378 164.627 90.8174C164.683 89.697 164.748 88.623 164.72 87.623C164.702 86.6137 164.572 85.6785 164.377 84.8452C163.998 83.1693 163.248 81.9378 162.581 81.2526C161.905 80.5674 161.414 80.3452 161.414 80.3452L161.387 80.3359Z" fill="#455A64"/>
<path d="M128.125 91.2218C128.125 91.2218 128.153 91.2496 128.209 91.2959C128.283 91.3514 128.375 91.407 128.477 91.4903C128.598 91.5736 128.746 91.6755 128.94 91.7773C129.125 91.8792 129.338 92.0088 129.598 92.1199C130.607 92.5829 132.218 93.0366 134.227 92.8977C136.218 92.7588 138.598 92.0274 140.709 90.4162C142.848 88.8422 144.709 86.5366 146.227 83.907C146.996 82.5922 147.625 81.2496 148.311 79.9996C148.996 78.7496 149.755 77.6014 150.681 76.6848C151.598 75.7681 152.662 75.0829 153.764 74.7588C154.311 74.5922 154.866 74.5459 155.403 74.5551C155.94 74.5736 156.44 74.6755 156.903 74.8236C157.838 75.1292 158.598 75.6292 159.172 76.157C159.746 76.6848 160.135 77.2403 160.403 77.7218C160.903 78.7125 160.94 79.3422 160.977 79.3329C160.977 79.3329 160.977 79.2959 160.968 79.2218C160.95 79.1292 160.931 79.0274 160.912 78.8885C160.857 78.6014 160.727 78.1848 160.487 77.6755C160.227 77.1755 159.838 76.6014 159.264 76.0551C158.681 75.5088 157.922 74.9811 156.959 74.657C156.477 74.4996 155.959 74.3885 155.403 74.3607C154.857 74.3514 154.274 74.3885 153.7 74.5644C152.551 74.8885 151.45 75.5922 150.505 76.5181C149.551 77.4533 148.774 78.6199 148.079 79.8792C147.375 81.1292 146.755 82.4811 145.996 83.7773C144.487 86.3885 142.653 88.6662 140.551 90.2311C138.477 91.8329 136.153 92.5644 134.19 92.7218C132.218 92.8792 130.625 92.4625 129.616 92.0273C128.598 91.5922 128.116 91.194 128.098 91.2218H128.125Z" fill="#455A64"/>
<path d="M127.09 86.49C127.09 86.49 127.219 86.6011 127.479 86.7586C127.738 86.916 128.127 87.1197 128.627 87.3234C129.127 87.5363 129.747 87.7308 130.451 87.8974C131.155 88.0456 131.942 88.1567 132.775 88.1752C133.608 88.1845 134.395 88.1104 135.108 87.99C135.812 87.8511 136.442 87.6845 136.951 87.49C137.46 87.3048 137.858 87.1197 138.127 86.9715C138.395 86.8234 138.534 86.74 138.525 86.7215C138.507 86.6752 137.914 86.99 136.895 87.3234C136.386 87.49 135.766 87.6474 135.071 87.7586C134.377 87.8697 133.599 87.9345 132.784 87.9252C131.969 87.9067 131.201 87.8049 130.507 87.666C129.812 87.5178 129.201 87.3419 128.701 87.1474C127.692 86.7771 127.118 86.4345 127.09 86.4808V86.49Z" fill="#455A64"/>
<path d="M153.867 118.993C153.784 119.048 153.654 118.53 153.071 118.28C152.775 118.159 152.404 118.178 151.932 118.27C151.469 118.344 150.96 118.437 150.432 118.548C148.312 118.993 146.682 119.678 146.626 119.548C146.571 119.437 148.154 118.539 150.33 118.076C150.876 117.956 151.395 117.881 151.876 117.835C152.339 117.77 152.849 117.77 153.219 117.974C153.589 118.169 153.756 118.474 153.821 118.669C153.895 118.872 153.895 118.993 153.867 119.002V118.993Z" fill="#263238"/>
<path d="M95.9597 172.438C96.1727 172.753 97.6449 174.54 97.9597 176.327C98.2745 178.114 102.275 201.336 103.321 204.558C104.626 208.586 107.321 216.799 118.034 213.725C125.45 211.595 125.71 200.299 120.663 194.095C115.617 187.892 107.21 170.132 106.58 167.818C105.95 165.503 99.9597 158.521 93.0245 156.706C86.0893 154.892 82.6171 154.818 80.0986 151.484C77.5801 148.16 74.4227 146.475 72.9504 148.994C71.4782 151.512 80.0986 159.086 80.0986 159.086L92.1912 170.651L95.9782 172.438H95.9597Z" fill="#FFBF9D"/>
<path d="M72.764 158.612C72.764 158.612 67.4214 152.084 63.9492 154.834C63.9492 154.834 68.4677 160.871 69.9863 162.519C71.514 164.167 75.477 165.325 75.477 165.325C75.477 165.325 79.44 169.899 81.5788 170.51C83.7177 171.121 85.0603 170.51 85.0603 170.51C85.0603 170.51 85.1251 171.547 88.477 172.038C91.8288 172.529 100.736 171.612 100.736 171.612L106.236 167.001C106.236 167.001 103.486 162.399 99.2733 162.279C95.0603 162.158 91.9492 165.39 91.9492 165.39L88.2918 165.325L86.0326 162.399C86.0326 162.399 86.4677 154.704 81.8844 155.566C81.8844 155.566 81.7177 153.103 79.7733 152.862C77.8196 152.621 77.2733 154.63 77.2733 154.63C77.2733 154.63 77.6807 151.603 76.0326 150.992C74.3844 150.38 73.5881 151.112 73.1066 151.964C72.6159 152.816 72.7733 158.612 72.7733 158.612H72.764Z" fill="#FFBF9D"/>
<path d="M85.4876 170.515C85.432 170.552 84.8394 169.885 83.9598 168.728C83.5246 168.144 83.0061 167.45 82.4876 166.635C82.2283 166.256 81.9506 165.737 81.8487 165.209C81.7283 164.681 81.6635 164.135 81.608 163.58C81.432 161.357 81.5246 159.348 81.608 157.904C81.7006 156.459 81.8209 155.561 81.8857 155.57C81.9506 155.57 81.9506 156.469 81.9506 157.913C81.9506 159.357 81.9228 161.357 82.0894 163.543C82.1357 164.089 82.2006 164.617 82.3117 165.107C82.4043 165.607 82.608 165.987 82.8672 166.413C83.358 167.228 83.8394 167.941 84.2376 168.543C85.0431 169.746 85.5431 170.487 85.4969 170.524L85.4876 170.515Z" fill="#FF9A6C"/>
<path d="M77.274 167.244C77.274 167.244 76.8017 166.642 76.598 165.485C76.3758 164.337 76.311 162.716 76.3943 160.957C76.5703 157.42 77.1443 154.614 77.274 154.633C77.4036 154.651 77.0517 157.485 76.8758 160.975C76.7925 162.725 76.811 164.309 76.9406 165.429C77.0517 166.568 77.348 167.198 77.2832 167.244H77.274Z" fill="#FF9A6C"/>
<path d="M75.7636 165.648C75.7173 165.694 75.1618 165.203 74.3562 164.324C74.1618 164.101 73.9395 163.851 73.7266 163.583C73.5136 163.286 73.2636 163.055 73.0877 162.592C72.8562 161.786 72.7821 160.925 72.7081 160.018C72.5877 158.203 72.597 156.564 72.634 155.37C72.671 154.185 72.7451 153.453 72.8099 153.453C72.9581 153.453 72.9766 156.388 73.1895 159.981C73.2544 160.87 73.3284 161.74 73.5136 162.453C73.597 162.74 73.8655 163.073 74.0507 163.342C74.2451 163.601 74.4395 163.861 74.6247 164.111C75.347 165.036 75.8192 165.611 75.7636 165.657V165.648Z" fill="#FF9A6C"/>
<path d="M91.9484 165.392C91.9484 165.392 91.6058 165.448 90.9762 165.457C90.254 165.457 89.3558 165.476 88.2818 165.485H88.2077L88.1614 165.42C87.4762 164.577 86.4484 163.587 85.7725 162.161L85.754 162.115V162.068C85.754 160.976 85.7818 159.772 85.4577 158.587C85.291 158.003 85.0318 157.42 84.6429 156.929C84.254 156.42 83.7447 156.059 83.1058 155.985C82.7077 155.929 82.3003 155.985 81.9114 156.077L81.6336 156.152L81.6151 155.865C81.5781 155.272 81.4577 154.689 81.1614 154.235C80.8744 153.772 80.4299 153.448 79.9299 153.281C79.467 153.096 78.9577 153.244 78.541 153.503C78.1244 153.763 77.7818 154.133 77.5503 154.531L77.2077 155.133L77.1707 154.448C77.1151 153.392 77.0503 152.374 76.504 151.772C75.9577 151.179 75.1429 151.068 74.5688 151.161C73.9762 151.253 73.5688 151.531 73.3281 151.753C73.0966 151.976 73.004 152.133 72.9855 152.124C72.9762 152.124 73.0225 151.939 73.2447 151.67C73.467 151.411 73.8836 151.068 74.5318 150.939C75.1521 150.809 76.0595 150.865 76.754 151.55C77.4392 152.272 77.504 153.374 77.5873 154.429L77.2077 154.346C77.467 153.883 77.8373 153.457 78.3188 153.142C78.7818 152.827 79.4577 152.624 80.0873 152.855C80.6614 153.04 81.2262 153.429 81.5781 153.994C81.9299 154.55 82.0688 155.207 82.1151 155.855L81.8188 155.633C82.254 155.522 82.717 155.466 83.1984 155.531C83.9577 155.605 84.6429 156.096 85.0503 156.652C85.4855 157.207 85.7633 157.846 85.9392 158.485C86.2818 159.763 86.2262 161.003 86.2077 162.096L86.1892 162.003C86.8095 163.383 87.7725 164.346 88.4577 165.253L88.3373 165.189C89.4114 165.235 90.3095 165.272 91.0225 165.309C91.6521 165.346 91.9947 165.383 91.9947 165.411L91.9484 165.392Z" fill="#FF9A6C"/>
<path d="M101.551 162.467C101.523 162.615 99.4586 161.948 96.9586 162.541C94.4493 163.087 92.8752 164.587 92.7919 164.467C92.7549 164.43 93.0789 163.995 93.7734 163.476C94.4678 162.948 95.5512 162.374 96.8567 162.078C98.1623 161.782 99.3845 161.837 100.236 162.004C101.088 162.17 101.57 162.42 101.551 162.476V162.467Z" fill="#FF9A6C"/>
<path d="M231.782 155.926C231.282 155.694 230.699 155.815 230.171 155.972C227.736 156.694 225.476 157.917 223.402 159.389L225.189 165.546C225.884 164.213 229.115 162.463 230.245 161.472C231.375 160.481 232.476 159.25 232.597 157.75C232.662 157.037 232.421 156.222 231.773 155.917L231.782 155.926Z" fill="#FF9A6C"/>
<path d="M192.191 208.779C192.191 208.779 191.293 201.353 192.071 195.056C192.58 190.964 195.969 178.853 196.21 175.075C196.451 171.288 196.562 169.519 198.932 167.742C201.293 165.964 201.293 166.797 204.608 164.788C207.923 162.779 208.626 161.362 213.599 161.121C218.562 160.88 222.469 171.529 222.469 171.529C222.469 171.529 222.228 173.779 221.284 174.371C220.339 174.964 219.154 175.084 216.201 174.964C213.247 174.843 210.284 175.556 210.052 177.325C209.821 179.093 210.173 185.603 211.349 189.982C212.534 194.362 211.589 199.445 210.756 203.705C209.932 207.964 208.219 217.26 201.414 218.01C193.423 218.899 192.191 208.788 192.191 208.788V208.779Z" fill="#FFBF9D"/>
<path d="M204.292 169.546C204.292 169.546 207.968 169.175 208.588 168.453C209.209 167.731 211.246 160.648 212.403 159.027C213.56 157.407 214.348 157.083 215.598 157.351C215.598 157.351 215.431 154.175 218.292 153.722C218.292 153.722 220.079 153.444 220.366 157.75C220.366 157.75 220.06 153.657 223.098 152.259C223.838 151.916 224.736 152.175 225.098 152.907C225.172 153.064 225.236 153.24 225.273 153.425C225.459 154.407 225.699 158.962 225.699 158.962C225.699 158.962 226.033 165.166 226.125 164.898C226.218 164.629 229.949 156.277 230.477 155.472C230.949 154.759 231.357 153.972 233.116 154.101C233.69 154.148 234.19 154.527 234.366 155.083C234.422 155.259 234.264 156.166 234.209 156.407C233.625 158.777 232.042 165.407 231.422 166.49C230.801 167.564 225.088 173.592 222.755 173.787C220.422 173.981 219.079 173.796 219.079 173.796L204.273 169.546H204.292Z" fill="#FFBF9D"/>
<path d="M211.894 172.659C211.839 172.612 212.431 171.927 213.2 170.696C213.57 170.075 214.005 169.325 214.311 168.436C214.468 167.992 214.57 167.52 214.626 167.01C214.663 166.483 214.709 165.946 214.746 165.39C214.922 163.168 215.107 161.159 215.255 159.696C215.413 158.242 215.542 157.344 215.607 157.344C215.672 157.344 215.663 158.251 215.598 159.714C215.524 161.177 215.394 163.196 215.228 165.427C215.181 165.983 215.135 166.52 215.098 167.057C215.033 167.594 214.913 168.122 214.737 168.584C214.394 169.52 213.913 170.27 213.496 170.881C212.644 172.094 211.95 172.705 211.904 172.659H211.894Z" fill="#FF9A6C"/>
<path d="M220.349 157.336C220.414 157.336 220.497 158.225 220.562 159.66C220.636 161.095 220.701 163.086 220.738 165.28C220.738 165.827 220.756 166.364 220.766 166.882C220.766 167.391 220.821 167.91 220.701 168.429C220.46 169.41 220.006 170.16 219.627 170.78C218.849 172.012 218.238 172.669 218.192 172.632C218.136 172.586 218.645 171.854 219.331 170.604C219.664 169.984 220.071 169.216 220.266 168.336C220.358 167.919 220.294 167.429 220.294 166.901C220.284 166.382 220.266 165.845 220.256 165.299C220.21 163.104 220.201 161.114 220.219 159.669C220.238 158.225 220.275 157.336 220.349 157.336Z" fill="#FF9A6C"/>
<path d="M226.042 164.306C226.097 164.278 226.347 164.713 226.366 165.482C226.366 165.871 226.338 166.315 226.162 166.815C225.977 167.287 225.727 167.769 225.44 168.25C224.273 170.186 223.106 171.574 223.005 171.5C222.894 171.417 223.884 169.899 225.023 168C225.301 167.528 225.569 167.065 225.755 166.649C225.921 166.241 226.005 165.815 226.032 165.473C226.097 164.769 225.986 164.334 226.051 164.315L226.042 164.306Z" fill="#FF9A6C"/>
<path d="M200.738 169.5C200.738 169.297 204.285 169.908 208.331 168.287C208.396 168.269 208.461 168.241 208.525 168.223L208.377 168.362C209.127 166.389 209.84 164.63 210.368 163.362C210.896 162.093 211.257 161.325 211.312 161.352C211.377 161.38 211.127 162.186 210.673 163.482C210.22 164.778 209.572 166.565 208.822 168.537L208.785 168.639L208.683 168.676C208.618 168.695 208.553 168.723 208.488 168.741C207.461 169.084 206.47 169.371 205.544 169.565C204.618 169.769 203.738 169.787 203.035 169.769C201.609 169.723 200.748 169.565 200.748 169.5H200.738Z" fill="#FF9A6C"/>
</g>
</g>
</g>
<defs>
<filter id="filter0_d_40000396_74031" x="58.9492" y="69.8438" width="180.43" height="405.609" filterUnits="userSpaceOnUse" color-interpolation-filters="sRGB">
<feFlood flood-opacity="0" result="BackgroundImageFix"/>
<feColorMatrix in="SourceAlpha" type="matrix" values="0 0 0 0 0 0 0 0 0 0 0 0 0 0 0 0 0 0 127 0" result="hardAlpha"/>
<feOffset dy="4"/>
<feGaussianBlur stdDeviation="2.5"/>
<feComposite in2="hardAlpha" operator="out"/>
<feColorMatrix type="matrix" values="0 0 0 0 0 0 0 0 0 0 0 0 0 0 0 0 0 0 0.15 0"/>
<feBlend mode="normal" in2="BackgroundImageFix" result="effect1_dropShadow_40000396_74031"/>
<feBlend mode="normal" in="SourceGraphic" in2="effect1_dropShadow_40000396_74031" result="shape"/>
</filter>
<clipPath id="clip0_40000396_74031">
<rect width="205.713" height="407.194" fill="white" transform="translate(47.2266 59.2578)"/>
</clipPath>
</defs>
</svg>
