<svg id="Layer_1" data-name="Layer 1" xmlns="http://www.w3.org/2000/svg" viewBox="0 0 784.12 314.1"><defs><style>.cls-1{fill:#fff;}</style></defs><path class="cls-1" d="M-1942,372.4h-8.9v19.9h-11.2V337.8h20.2c6.4,0,11.4,1.4,14.9,4.3s5.2,6.9,5.2,12.2a16.92,16.92,0,0,1-2.4,9.3,15.59,15.59,0,0,1-7.3,5.9l11.8,22.3v.5h-12Zm-9-9.1h9.1c2.8,0,5-.7,6.5-2.2a7.75,7.75,0,0,0,2.3-5.9,8.16,8.16,0,0,0-2.2-6.1c-1.5-1.5-3.7-2.2-6.7-2.2h-9v16.4Z" transform="translate(2369.42 -232.1)"/><path class="cls-1" d="M-1866.2,366.3a32.56,32.56,0,0,1-2.8,14.1,21.94,21.94,0,0,1-8.1,9.4,22.42,22.42,0,0,1-12.1,3.3,22.66,22.66,0,0,1-12.1-3.3,21.24,21.24,0,0,1-8.2-9.3,33.81,33.81,0,0,1-3-13.9v-2.7a33.33,33.33,0,0,1,2.9-14.2,21.58,21.58,0,0,1,8.2-9.4,22.42,22.42,0,0,1,12.1-3.3,22.42,22.42,0,0,1,12.1,3.3,21.58,21.58,0,0,1,8.2,9.4,33.19,33.19,0,0,1,2.9,14.1v2.5Zm-11.3-2.5c0-5.7-1-10.1-3.1-13a10,10,0,0,0-8.8-4.5,10,10,0,0,0-8.7,4.4c-2,2.9-3.1,7.2-3.1,12.9v2.7c0,5.6,1,9.9,3.1,12.9a9.85,9.85,0,0,0,8.8,4.6,10,10,0,0,0,8.7-4.4c2-3,3-7.3,3.1-12.9Z" transform="translate(2369.42 -232.1)"/><path class="cls-1" d="M-1855.6,392.3V337.8h19.1c6.6,0,11.6,1.3,15,3.8s5.1,6.2,5.1,11.1a12.36,12.36,0,0,1-2.1,7.1,12.78,12.78,0,0,1-5.7,4.5,11.51,11.51,0,0,1,6.6,4.2,12.49,12.49,0,0,1,2.4,7.8c0,5.2-1.7,9.2-5,11.9s-8.1,4.1-14.3,4.1Zm11.2-31.7h8.3c5.7-.1,8.5-2.4,8.5-6.8,0-2.5-.7-4.2-2.2-5.3s-3.7-1.6-6.8-1.6h-7.9v13.7Zm0,8v14.7h9.6a9.2,9.2,0,0,0,6.2-1.9,6.45,6.45,0,0,0,2.2-5.2c0-5-2.6-7.5-7.7-7.6Z" transform="translate(2369.42 -232.1)"/><path class="cls-1" d="M-1759.6,366.3a32.56,32.56,0,0,1-2.8,14.1,21.94,21.94,0,0,1-8.1,9.4,22.42,22.42,0,0,1-12.1,3.3,22.66,22.66,0,0,1-12.1-3.3,21.24,21.24,0,0,1-8.2-9.3,33.81,33.81,0,0,1-3-13.9v-2.7a33.33,33.33,0,0,1,2.9-14.2,21.58,21.58,0,0,1,8.2-9.4,22.42,22.42,0,0,1,12.1-3.3,22.42,22.42,0,0,1,12.1,3.3,21.58,21.58,0,0,1,8.2,9.4,33.19,33.19,0,0,1,2.9,14.1v2.5Zm-11.4-2.5c0-5.7-1-10.1-3.1-13a10,10,0,0,0-8.8-4.5,10,10,0,0,0-8.7,4.4c-2,2.9-3.1,7.2-3.1,12.9v2.7c0,5.6,1,9.9,3.1,12.9a9.85,9.85,0,0,0,8.8,4.6,10,10,0,0,0,8.7-4.4c2-3,3-7.3,3.1-12.9Z" transform="translate(2369.42 -232.1)"/><path class="cls-1" d="M-1711.3,346.9H-1728v45.4h-11.2V346.9h-16.5v-9.1h44.4v9.1Z" transform="translate(2369.42 -232.1)"/><path class="cls-1" d="M-1690.6,392.3h-11.2V337.8h11.2Z" transform="translate(2369.42 -232.1)"/><path class="cls-1" d="M-1635,374.2c-.4,5.9-2.6,10.5-6.5,13.8s-9,5.1-15.4,5.1c-7,0-12.5-2.4-16.5-7.1s-6-11.2-6-19.4v-3.3a31.5,31.5,0,0,1,2.8-13.8,20.44,20.44,0,0,1,7.9-9.2,22.4,22.4,0,0,1,12-3.2c6.3,0,11.3,1.7,15.2,5.1s6.1,8.1,6.7,14.2H-1646c-.3-3.5-1.3-6.1-2.9-7.7s-4.2-2.4-7.7-2.4c-3.7,0-6.5,1.3-8.4,4s-2.8,6.8-2.9,12.5v4.1q0,8.85,2.7,12.9c1.8,2.7,4.6,4.1,8.4,4.1q5.25,0,7.8-2.4c1.7-1.6,2.7-4,2.9-7.4h11.1Z" transform="translate(2369.42 -232.1)"/><path class="cls-1" d="M-1597,378a5.86,5.86,0,0,0-2.2-4.9,32,32,0,0,0-8.1-3.6,59.73,59.73,0,0,1-9.2-3.7q-9.3-4.95-9.3-13.5a13,13,0,0,1,2.5-7.9,16.42,16.42,0,0,1,7.1-5.4,26.92,26.92,0,0,1,10.5-1.9,24.45,24.45,0,0,1,10.4,2.1,16.73,16.73,0,0,1,7.1,6,15.61,15.61,0,0,1,2.5,8.8h-11.2a7.26,7.26,0,0,0-2.4-5.8,9.68,9.68,0,0,0-6.6-2.1,10.82,10.82,0,0,0-6.4,1.7,5.64,5.64,0,0,0-2.3,4.6,5.29,5.29,0,0,0,2.7,4.5,31.86,31.86,0,0,0,7.9,3.4c6.4,1.9,11,4.3,14,7.1a14.26,14.26,0,0,1,4.4,10.6,13.12,13.12,0,0,1-5.4,11.1c-3.6,2.7-8.4,4-14.4,4a28,28,0,0,1-11.4-2.3,17.92,17.92,0,0,1-7.9-6.3,16.38,16.38,0,0,1-2.7-9.3h11.3q0,9,10.8,9c2.7,0,4.8-.5,6.2-1.6A5.48,5.48,0,0,0-1597,378Z" transform="translate(2369.42 -232.1)"/><path class="cls-1" d="M-1927.2,312.6h-19.7l-3.7,11.2h-11.9l20.3-54.5h10.4l20.4,54.5h-11.9Zm-16.6-9.1h13.6l-6.8-20.4Z" transform="translate(2369.42 -232.1)"/><path class="cls-1" d="M-1893.7,323.8h-11.2V269.3h11.2Z" transform="translate(2369.42 -232.1)"/><path class="cls-1" d="M-1833.6,309.5h-21.9l-4.9,14.3h-7.1l20-54.5h6l20,54.5h-7.1Zm-19.8-5.8h17.8l-8.9-25.5Z" transform="translate(2369.42 -232.1)"/><path class="cls-1" d="M-1773.5,323.8h-6.9l-26.3-42v42h-6.9V269.3h6.9l26.4,42.2V269.3h6.9v54.5Z" transform="translate(2369.42 -232.1)"/><path class="cls-1" d="M-1760.6,323.8V269.3h14.8a23.2,23.2,0,0,1,12.1,3.1,21.17,21.17,0,0,1,8.1,8.9,29.9,29.9,0,0,1,2.9,13.3v3.5a30.47,30.47,0,0,1-2.9,13.5,20.23,20.23,0,0,1-8.2,8.9,24.45,24.45,0,0,1-12.3,3.2h-14.5Zm6.9-48.6v42.7h7.3c5.3,0,9.5-1.7,12.4-5.2s4.4-8.4,4.4-14.7v-3.2q0-9.3-4.2-14.4c-2.8-3.4-6.7-5.2-11.9-5.2Z" transform="translate(2369.42 -232.1)"/><path class="cls-1" d="M-1938.3,447l12.3-41h12.5l-19,54.5h-11.7l-18.9-54.5h12.5Z" transform="translate(2369.42 -232.1)"/><path class="cls-1" d="M-1876,436.9h-21.6v14.6h25.3v9h-36.5V406h36.4v9.1h-25.2v13h21.6v8.8Z" transform="translate(2369.42 -232.1)"/><path class="cls-1" d="M-1821.7,460.5h-11.2l-21.8-35.8v35.8h-11.2V406h11.2l21.9,35.9V406h11.2v54.5Z" transform="translate(2369.42 -232.1)"/><path class="cls-1" d="M-1772.4,415.2h-16.7v45.4h-11.2V415.2h-16.5v-9.1h44.4v9.1Z" transform="translate(2369.42 -232.1)"/><path class="cls-1" d="M-1725.1,406.1V442c0,6-1.9,10.7-5.6,14.1s-8.8,5.2-15.3,5.2-11.4-1.7-15.2-5.1-5.6-8-5.7-13.9V406h11.2v36c0,3.6.9,6.2,2.6,7.8a10.05,10.05,0,0,0,7.1,2.5c6.3,0,9.5-3.3,9.6-10V406h11.3Z" transform="translate(2369.42 -232.1)"/><path class="cls-1" d="M-1696.1,440.6h-8.9v19.9h-11.2V406h20.2c6.4,0,11.4,1.4,14.9,4.3s5.2,6.9,5.2,12.2a16.92,16.92,0,0,1-2.4,9.3,15.59,15.59,0,0,1-7.3,5.9l11.8,22.3v.5h-12Zm-9-9.1h9.1c2.8,0,5-.7,6.5-2.2a7.75,7.75,0,0,0,2.3-5.9,8.16,8.16,0,0,0-2.2-6.1c-1.5-1.5-3.7-2.2-6.7-2.2h-9v16.4Z" transform="translate(2369.42 -232.1)"/><path class="cls-1" d="M-1635,436.9h-21.6v14.6h25.3v9h-36.5V406h36.4v9.1h-25.2v13h21.6v8.8Z" transform="translate(2369.42 -232.1)"/><path class="cls-1" d="M-1596.8,446.3a5.86,5.86,0,0,0-2.2-4.9c-1.5-1.2-4.2-2.3-8.1-3.6a59.73,59.73,0,0,1-9.2-3.7q-9.3-5-9.3-13.5a13,13,0,0,1,2.5-7.9,16.42,16.42,0,0,1,7.1-5.4,26.92,26.92,0,0,1,10.5-1.9,24.45,24.45,0,0,1,10.4,2.1,16.73,16.73,0,0,1,7.1,6,15.61,15.61,0,0,1,2.5,8.8h-11.2a7.26,7.26,0,0,0-2.4-5.8,9.68,9.68,0,0,0-6.6-2.1,10.82,10.82,0,0,0-6.4,1.7,5.64,5.64,0,0,0-2.3,4.6,5.29,5.29,0,0,0,2.7,4.5,31.86,31.86,0,0,0,7.9,3.4c6.4,1.9,11,4.3,14,7.1a14.26,14.26,0,0,1,4.4,10.6,13.12,13.12,0,0,1-5.4,11.1c-3.6,2.7-8.4,4-14.4,4a28,28,0,0,1-11.4-2.3,17.92,17.92,0,0,1-7.9-6.3,16.38,16.38,0,0,1-2.7-9.3h11.3q0,9,10.8,9c2.7,0,4.8-.5,6.2-1.6A6.06,6.06,0,0,0-1596.8,446.3Z" transform="translate(2369.42 -232.1)"/><path class="cls-1" d="M-1950.8,488h-6.8l-1.3,3.9h-4.1l7-18.9h3.6l7.1,18.9h-4.1Zm-5.7-3.1h4.7l-2.4-7.1Z" transform="translate(2369.42 -232.1)"/><path class="cls-1" d="M-1921.7,485.6a6.79,6.79,0,0,1-2.2,4.8,7.57,7.57,0,0,1-5.3,1.8,7.19,7.19,0,0,1-5.7-2.4,10,10,0,0,1-2.1-6.7v-1.2a10.58,10.58,0,0,1,1-4.8,7.74,7.74,0,0,1,2.7-3.2,8.11,8.11,0,0,1,4.1-1.1,7.74,7.74,0,0,1,5.3,1.8,7.33,7.33,0,0,1,2.3,4.9h-3.9a4.17,4.17,0,0,0-1-2.7,3.65,3.65,0,0,0-2.7-.8,3.3,3.3,0,0,0-2.9,1.4,8,8,0,0,0-1,4.3v1.4a8.92,8.92,0,0,0,.9,4.5,3.3,3.3,0,0,0,2.9,1.4,4.14,4.14,0,0,0,2.7-.8,3.61,3.61,0,0,0,1-2.5h3.9Z" transform="translate(2369.42 -232.1)"/><path class="cls-1" d="M-1903.4,482.9a10.73,10.73,0,0,1-1,4.9,7.35,7.35,0,0,1-2.8,3.2,8.21,8.21,0,0,1-4.2,1.1,8.21,8.21,0,0,1-4.2-1.1,8.18,8.18,0,0,1-2.9-3.2,10.58,10.58,0,0,1-1-4.8v-.9a10.73,10.73,0,0,1,1-4.9,8.25,8.25,0,0,1,2.8-3.3,7.34,7.34,0,0,1,4.2-1.1,8.21,8.21,0,0,1,4.2,1.1,7,7,0,0,1,2.8,3.3,12.59,12.59,0,0,1,1,4.9v.8Zm-4-.8a7.84,7.84,0,0,0-1.1-4.5,3.44,3.44,0,0,0-3-1.5,3.44,3.44,0,0,0-3,1.5,7.84,7.84,0,0,0-1.1,4.5v.9a8.31,8.31,0,0,0,1.1,4.5,3.37,3.37,0,0,0,3.1,1.6,3.44,3.44,0,0,0,3-1.5,7.84,7.84,0,0,0,1.1-4.5v-1Z" transform="translate(2369.42 -232.1)"/><path class="cls-1" d="M-1895.3,473.1l4.8,13.7,4.8-13.7h5.1V492h-3.9v-5.2l.4-8.9-5.1,14.1h-2.7l-5.1-14.1.4,8.9V492h-3.9V473.1Z" transform="translate(2369.42 -232.1)"/><path class="cls-1" d="M-1873,485.3V492h-3.9V473.1h7.4a8.41,8.41,0,0,1,3.7.8,6,6,0,0,1,2.5,2.2,6,6,0,0,1,.9,3.3,5.48,5.48,0,0,1-1.9,4.4,7.81,7.81,0,0,1-5.3,1.6h-3.4Zm0-3.2h3.5a3.61,3.61,0,0,0,2.4-.7,2.52,2.52,0,0,0,.8-2.1,3.11,3.11,0,0,0-.8-2.2,3.24,3.24,0,0,0-2.3-.9h-3.6Z" transform="translate(2369.42 -232.1)"/><path class="cls-1" d="M-1851.2,488h-6.8l-1.3,3.9h-4.1l7-18.9h3.6l7.1,18.9h-4.1Zm-5.8-3.1h4.7l-2.4-7.1Z" transform="translate(2369.42 -232.1)"/><path class="cls-1" d="M-1828.4,491.9h-3.9l-7.6-12.4v12.4h-3.9V473h3.9l7.6,12.4V473h3.9Z" transform="translate(2369.42 -232.1)"/><path class="cls-1" d="M-1818.7,481.6l3.9-8.5h4.3l-6.2,12v6.8h-4v-6.8l-6.2-12h4.3Z" transform="translate(2369.42 -232.1)"/><path class="cls-1" d="M-1786.2,482.9a10.73,10.73,0,0,1-1,4.9,7.35,7.35,0,0,1-2.8,3.2,8.21,8.21,0,0,1-4.2,1.1,8.21,8.21,0,0,1-4.2-1.1,8.18,8.18,0,0,1-2.9-3.2,10.58,10.58,0,0,1-1-4.8v-.9a10.73,10.73,0,0,1,1-4.9,8.25,8.25,0,0,1,2.8-3.3,7.34,7.34,0,0,1,4.2-1.1,8.21,8.21,0,0,1,4.2,1.1,7,7,0,0,1,2.8,3.3,12.59,12.59,0,0,1,1,4.9v.8Zm-4-.8a7.84,7.84,0,0,0-1.1-4.5,3.44,3.44,0,0,0-3-1.5,3.44,3.44,0,0,0-3,1.5,7.84,7.84,0,0,0-1.1,4.5v.9a8.31,8.31,0,0,0,1.1,4.5,3.37,3.37,0,0,0,3.1,1.6,3.44,3.44,0,0,0,3-1.5,7.84,7.84,0,0,0,1.1-4.5v-1Z" transform="translate(2369.42 -232.1)"/><path class="cls-1" d="M-1771.8,484.2h-7.5v7.7h-3.9V473h12.3v3.2h-8.4v4.9h7.5Z" transform="translate(2369.42 -232.1)"/><path class="cls-1" d="M-1757.7,485.3V492h-3.9V473.1h7.4a8.41,8.41,0,0,1,3.7.8,6,6,0,0,1,2.5,2.2,6,6,0,0,1,.9,3.3,5.48,5.48,0,0,1-1.9,4.4,7.81,7.81,0,0,1-5.3,1.6h-3.4Zm0-3.2h3.5a3.61,3.61,0,0,0,2.4-.7,2.52,2.52,0,0,0,.8-2.1,3.11,3.11,0,0,0-.8-2.2,3.24,3.24,0,0,0-2.3-.9h-3.6Z" transform="translate(2369.42 -232.1)"/><path class="cls-1" d="M-1730,476.2h-5.8v15.7h-3.9V476.2h-5.7V473h15.4Z" transform="translate(2369.42 -232.1)"/><path class="cls-1" d="M-1713.2,476.2h-5.8v15.7h-3.9V476.2h-5.7V473h15.4Z" transform="translate(2369.42 -232.1)"/><path class="cls-1" d="M-1699.4,483.8h-7.5v5.1h8.8V492h-12.7V473.1h12.6v3.2h-8.7v4.5h7.5v3Z" transform="translate(2369.42 -232.1)"/><path class="cls-1" d="M-1691.7,485.3V492h-3.9V473.1h7.4a8.41,8.41,0,0,1,3.7.8,6,6,0,0,1,2.5,2.2,6,6,0,0,1,.9,3.3,5.48,5.48,0,0,1-1.9,4.4,7.81,7.81,0,0,1-5.3,1.6h-3.4Zm0-3.2h3.5a3.61,3.61,0,0,0,2.4-.7,2.52,2.52,0,0,0,.8-2.1,3.11,3.11,0,0,0-.8-2.2,3.24,3.24,0,0,0-2.3-.9h-3.6Z" transform="translate(2369.42 -232.1)"/><path class="cls-1" d="M-1656.5,489.6a7.51,7.51,0,0,1-3,2,11.76,11.76,0,0,1-4.3.7,8.58,8.58,0,0,1-4.3-1.1,7.27,7.27,0,0,1-2.9-3.1,10.58,10.58,0,0,1-1-4.8V482a10.73,10.73,0,0,1,1-4.9,8.56,8.56,0,0,1,2.7-3.2,8.21,8.21,0,0,1,4.2-1.1,8,8,0,0,1,5.3,1.6,6.56,6.56,0,0,1,2.2,4.7h-3.8a4.48,4.48,0,0,0-1.1-2.4,3.65,3.65,0,0,0-2.4-.8,3.44,3.44,0,0,0-3,1.5,8.6,8.6,0,0,0-1.1,4.4V483a7.84,7.84,0,0,0,1.1,4.5,4,4,0,0,0,3.3,1.5,4.25,4.25,0,0,0,3.1-.9v-3.3h-3.5V482h7.4v7.6Z" transform="translate(2369.42 -232.1)"/><path class="cls-1" d="M-1646.2,485h-3.1v6.9h-3.9V473h7a8.05,8.05,0,0,1,5.2,1.5,5.17,5.17,0,0,1,1.8,4.2,6.06,6.06,0,0,1-.8,3.2,6.54,6.54,0,0,1-2.5,2.1l4.1,7.7v.2h-4.2Zm-3.1-3.1h3.1a3.33,3.33,0,0,0,2.3-.7,2.52,2.52,0,0,0,.8-2.1,2.86,2.86,0,0,0-.8-2.1,3.2,3.2,0,0,0-2.3-.8h-3.1Z" transform="translate(2369.42 -232.1)"/><path class="cls-1" d="M-1620.5,482.9a10.73,10.73,0,0,1-1,4.9,7.35,7.35,0,0,1-2.8,3.2,8.21,8.21,0,0,1-4.2,1.1,8.21,8.21,0,0,1-4.2-1.1,8.18,8.18,0,0,1-2.9-3.2,10.58,10.58,0,0,1-1-4.8v-.9a10.73,10.73,0,0,1,1-4.9,8.25,8.25,0,0,1,2.8-3.3,7.34,7.34,0,0,1,4.2-1.1,8.21,8.21,0,0,1,4.2,1.1,7,7,0,0,1,2.8,3.3,12.59,12.59,0,0,1,1,4.9v.8Zm-3.9-.8a7.84,7.84,0,0,0-1.1-4.5,3.44,3.44,0,0,0-3-1.5,3.44,3.44,0,0,0-3,1.5,7.84,7.84,0,0,0-1.1,4.5v.9a8.31,8.31,0,0,0,1.1,4.5,3.37,3.37,0,0,0,3.1,1.6,3.44,3.44,0,0,0,3-1.5,7.84,7.84,0,0,0,1.1-4.5v-1Z" transform="translate(2369.42 -232.1)"/><path class="cls-1" d="M-1603.2,473.1v12.4a6.26,6.26,0,0,1-1.9,4.9,7.57,7.57,0,0,1-5.3,1.8,7.57,7.57,0,0,1-5.3-1.8,6.25,6.25,0,0,1-2-4.8V473h3.9v12.5a3.67,3.67,0,0,0,.9,2.7,3.29,3.29,0,0,0,2.5.8c2.2,0,3.3-1.1,3.3-3.4V473h3.9Z" transform="translate(2369.42 -232.1)"/><path class="cls-1" d="M-1595.9,485.3V492h-3.9V473.1h7.4a8.41,8.41,0,0,1,3.7.8,6,6,0,0,1,2.5,2.2,6,6,0,0,1,.9,3.3,5.48,5.48,0,0,1-1.9,4.4,7.81,7.81,0,0,1-5.3,1.6h-3.4Zm0-3.2h3.5a3.61,3.61,0,0,0,2.4-.7,2.52,2.52,0,0,0,.8-2.1,3.11,3.11,0,0,0-.8-2.2,3.24,3.24,0,0,0-2.3-.9h-3.6Z" transform="translate(2369.42 -232.1)"/><circle class="cls-1" cx="-2069.7" cy="268.2" r="36.1" transform="translate(1573.58 -1617.04) rotate(-45)"/><path class="cls-1" d="M-2046.2,416.5l-80.9-140.2c-33.3-57.6-116.4-57.6-149.7,0l-80.9,140.2c-33.3,57.6,8.3,129.7,74.9,129.7h161.9C-2054.6,546.1-2013,474.1-2046.2,416.5Zm-119.3,26.7h-73a8.75,8.75,0,0,1-7.6-13.1l36.5-63.2a8.81,8.81,0,0,1,15.2,0l36.5,63.2A8.78,8.78,0,0,1-2165.5,443.2Z" transform="translate(2369.42 -232.1)"/></svg>