<?xml version="1.0" encoding="utf-8"?>
<!-- Generator: Adobe Illustrator 25.2.0, SVG Export Plug-In . SVG Version: 6.00 Build 0)  -->
<svg version="1.1" id="Layer_1" xmlns="http://www.w3.org/2000/svg" xmlns:xlink="http://www.w3.org/1999/xlink" x="0px" y="0px"
	 viewBox="0 0 149.9 37" style="enable-background:new 0 0 149.9 37;" xml:space="preserve">
<style type="text/css">
	.st0{fill:#FFFFFF;}
</style>
<g>
	<path class="st0" d="M55.4,16c-0.6-0.6-1.2-1-2-1.3c-1.6-0.7-3.7-0.7-5.2,0.2c-0.5,0.3-1,0.6-1.5,1V9h-2v14.3
		c0,0.9,0.2,1.7,0.5,2.4c0.3,0.8,0.8,1.4,1.3,2c0.6,0.6,1.2,1,2,1.3c0.8,0.3,1.6,0.5,2.4,0.5c0.9,0,1.7-0.2,2.4-0.5
		c0.8-0.3,1.4-0.8,2-1.3c0.6-0.6,1-1.2,1.3-2c0.3-0.8,0.5-1.6,0.5-2.4v-2.8c0-0.9-0.2-1.7-0.5-2.4C56.4,17.3,55.9,16.6,55.4,16z
		 M55.2,20.5v2.8c0,0.6-0.1,1.1-0.3,1.7c-0.2,0.5-0.5,1-0.9,1.4c-0.4,0.4-0.8,0.7-1.4,0.9c-1,0.4-2.3,0.4-3.3,0
		c-0.5-0.2-1-0.5-1.4-0.9c-0.4-0.4-0.7-0.8-0.9-1.4c-0.2-0.5-0.3-1.1-0.3-1.7v-2.8c0-0.6,0.1-1.1,0.3-1.7c0.2-0.5,0.5-1,0.9-1.4
		c0.4-0.4,0.8-0.7,1.4-0.9c0.5-0.2,1.1-0.3,1.7-0.3c0.6,0,1.1,0.1,1.7,0.3c0.5,0.2,1,0.5,1.4,0.9c0.4,0.4,0.7,0.8,0.9,1.4
		C55.1,19.3,55.2,19.9,55.2,20.5z"/>
	<path class="st0" d="M72,16c-0.6-0.6-1.2-1-2-1.3c-1.5-0.7-3.4-0.7-4.9,0c-0.8,0.3-1.4,0.8-2,1.3c-0.6,0.6-1,1.2-1.3,2
		c-0.3,0.8-0.5,1.6-0.5,2.4v2.8c0,0.9,0.2,1.7,0.5,2.4c0.3,0.8,0.8,1.4,1.3,2c0.6,0.6,1.2,1,2,1.3c0.8,0.3,1.6,0.5,2.4,0.5
		c0.7,0,1.4-0.1,2-0.3c0.6-0.2,1.2-0.5,1.8-0.9c0.5-0.4,1-0.9,1.4-1.4c0.4-0.5,0.7-1.2,0.9-1.8l0.1-0.5h-2.1l-0.1,0.2
		c-0.3,0.8-0.8,1.5-1.5,2c-0.7,0.5-1.5,0.8-2.4,0.8c-0.6,0-1.1-0.1-1.7-0.3c-0.5-0.2-1-0.5-1.4-0.9c-0.4-0.4-0.7-0.8-0.9-1.4
		c-0.2-0.5-0.3-1.1-0.3-1.7v-1.1h10.5v-1.7c0-0.9-0.2-1.7-0.5-2.4C73,17.3,72.5,16.6,72,16z M71.8,20.1h-8.5c0-0.4,0.1-0.9,0.3-1.3
		c0.2-0.5,0.5-1,0.9-1.4c0.4-0.4,0.8-0.7,1.4-0.9c1-0.4,2.3-0.4,3.3,0c0.5,0.2,1,0.5,1.4,0.9s0.7,0.8,0.9,1.4
		C71.6,19.2,71.7,19.6,71.8,20.1z"/>
	<path class="st0" d="M88.4,15.9c-0.4-0.4-0.9-0.7-1.5-1c-1.6-0.8-3.6-0.9-5.2-0.2c-0.8,0.3-1.4,0.8-2,1.3c-0.6,0.6-1,1.2-1.3,2
		c-0.3,0.8-0.5,1.6-0.5,2.4v2.8c0,0.9,0.2,1.7,0.5,2.4c0.3,0.8,0.8,1.4,1.3,2c0.6,0.6,1.2,1,2,1.3c0.8,0.3,1.6,0.5,2.4,0.5
		c0.9,0,1.7-0.2,2.4-0.5c0.8-0.3,1.4-0.8,2-1.3c0.6-0.6,1-1.2,1.3-2c0.3-0.8,0.5-1.6,0.5-2.4V9h-2V15.9z M87.2,17.5
		c0.4,0.4,0.7,0.8,0.9,1.4c0.2,0.5,0.3,1.1,0.3,1.7v2.8c0,0.6-0.1,1.1-0.3,1.7c-0.2,0.5-0.5,1-0.9,1.4c-0.4,0.4-0.8,0.7-1.4,0.9
		c-1,0.4-2.3,0.4-3.3,0c-0.5-0.2-1-0.5-1.4-0.9c-0.4-0.4-0.7-0.8-0.9-1.4c-0.2-0.5-0.3-1.1-0.3-1.7v-2.8c0-0.6,0.1-1.1,0.3-1.7
		c0.2-0.5,0.5-1,0.9-1.4c0.4-0.4,0.8-0.7,1.4-0.9c0.5-0.2,1.1-0.3,1.7-0.3c0.6,0,1.1,0.1,1.7,0.3C86.3,16.8,86.8,17.1,87.2,17.5z"/>
	<path class="st0" d="M98,14.8c-0.5,0.3-1,0.6-1.5,1v-1.4h-2.1v14.8h2.1v-8.8c0-0.6,0.1-1.1,0.3-1.7c0.2-0.5,0.5-1,0.9-1.4
		c0.4-0.4,0.8-0.7,1.4-0.9c0.5-0.2,1.1-0.3,1.7-0.3h0.4v-2h-0.4C99.8,14.2,98.9,14.4,98,14.8z"/>
	<path class="st0" d="M114.3,16c-0.6-0.6-1.2-1-2-1.3c-1.5-0.7-3.4-0.7-4.9,0c-0.8,0.3-1.4,0.8-2,1.3c-0.6,0.6-1,1.2-1.3,2
		c-0.3,0.8-0.5,1.6-0.5,2.4v2.8c0,0.9,0.2,1.7,0.5,2.4c0.3,0.8,0.8,1.4,1.3,2c0.6,0.6,1.2,1,2,1.3c0.8,0.3,1.6,0.5,2.4,0.5
		c0.9,0,1.7-0.2,2.4-0.5c0.8-0.3,1.4-0.8,2-1.3c0.6-0.6,1-1.2,1.3-2c0.3-0.8,0.5-1.6,0.5-2.4v-2.8c0-0.9-0.2-1.7-0.5-2.4
		C115.4,17.3,114.9,16.6,114.3,16z M114.2,20.5v2.8c0,0.6-0.1,1.1-0.3,1.7c-0.2,0.5-0.5,1-0.9,1.4c-0.4,0.4-0.8,0.7-1.4,0.9
		c-1,0.4-2.3,0.4-3.3,0c-0.5-0.2-1-0.5-1.4-0.9c-0.4-0.4-0.7-0.8-0.9-1.4c-0.2-0.5-0.3-1.1-0.3-1.7v-2.8c0-0.6,0.1-1.1,0.3-1.7
		c0.2-0.5,0.5-1,0.9-1.4c0.4-0.4,0.8-0.7,1.4-0.9c0.5-0.2,1.1-0.3,1.7-0.3s1.1,0.1,1.7,0.3c0.5,0.2,1,0.5,1.4,0.9
		c0.4,0.4,0.7,0.8,0.9,1.4C114,19.3,114.2,19.9,114.2,20.5z"/>
	<path class="st0" d="M122.6,18.8c0.2-0.5,0.5-1,0.9-1.4c0.4-0.4,0.8-0.7,1.4-0.9c0.5-0.2,1.1-0.3,1.7-0.3c0.9,0,1.7,0.3,2.4,0.8
		c0.7,0.5,1.2,1.2,1.5,2l0.1,0.2h2.1l-0.1-0.5c-0.2-0.6-0.5-1.2-0.9-1.8c-0.4-0.6-0.8-1-1.4-1.4c-0.5-0.4-1.1-0.7-1.8-1
		c-1.4-0.5-3.1-0.4-4.5,0.2c-0.8,0.3-1.4,0.8-2,1.3c-0.6,0.6-1,1.2-1.3,2c-0.3,0.8-0.5,1.6-0.5,2.4v2.8c0,0.9,0.2,1.7,0.5,2.4
		c0.3,0.8,0.8,1.4,1.3,2c0.6,0.6,1.2,1,2,1.3c0.8,0.3,1.6,0.5,2.4,0.5c0.7,0,1.4-0.1,2-0.3c0.6-0.2,1.2-0.5,1.7-0.9
		c0.5-0.4,1-0.9,1.4-1.4c0.4-0.5,0.7-1.2,0.9-1.8l0.1-0.5h-2.1l-0.1,0.2c-0.3,0.8-0.8,1.5-1.5,2c-0.7,0.5-1.5,0.8-2.4,0.8
		c-0.6,0-1.1-0.1-1.7-0.3c-0.5-0.2-1-0.5-1.4-0.9c-0.4-0.4-0.7-0.8-0.9-1.4c-0.2-0.5-0.3-1.1-0.3-1.7v-2.8
		C122.3,19.9,122.4,19.3,122.6,18.8z"/>
	<polygon class="st0" points="140.2,21.9 149.9,14.5 146.6,14.5 138.6,20.5 138.6,9 136.6,9 136.6,29.3 138.6,29.3 138.6,23.3 
		146.6,29.3 149.9,29.3 	"/>
	<path class="st0" d="M18.5,0C8.3,0,0,8.3,0,18.5S8.3,37,18.5,37C28.7,37,37,28.7,37,18.5S28.7,0,18.5,0z M9.1,9.5l4.3-3.8l0.1,0.1
		l-1,2.8l-3.3,1L9.1,9.5z M29.4,12.6l-8-5.2l0,0L32,12.2L29.4,12.6z M22.9,23.9L14.1,9.2v0l1.5-4.7l12.7,9.1L22.9,23.9z M13.4,10.6
		l8.6,14L6.1,22.9h0L13.4,10.6z M21.4,25.8l-6.5,6.6l-8.3-8.5l0,0L21.4,25.8z M22.9,25.8H28l0,0.1l-10,5.2L18,31L22.9,25.8z
		 M29.4,13.8l3.4-0.7l-2.3,11.5h-6.7h0L29.4,13.8z M6.1,19.7L7,12.2l4.7-1.6l-5.4,9.2L6.1,19.7z"/>
</g>
</svg>
