<svg id="Layer_1" data-name="Layer 1" xmlns="http://www.w3.org/2000/svg" viewBox="0 0 762.2 673.4"><defs><style>.cls-1{fill:#fff;}</style></defs><path class="cls-1" d="M1469.8,354.1a115.1,115.1,0,0,0-34.4-82.2h0s-11.6-12.3-16.5-17-15.8-17.6-21.5-24.8A282.4,282.4,0,0,1,1372,193c-10.8-18.7-17.8-48-17.8-48s-7,29.2-17.8,48a260,260,0,0,1-25.4,37.1c-5.8,7.1-16.6,20-21.5,24.8s-16.5,17-16.5,17h0a115.47,115.47,0,0,0,81.1,197.7C1417.9,469.6,1469.8,417.9,1469.8,354.1ZM1321.7,242.9H1339l4.1-22.1h22.4l4.1,22.1h17.3v17.3h-25.7c1.9.1,3.8.4,5.7.6l2.5,15.3L1358.5,260c-1.4-.1-2.8-.1-4.2-.1s-2.8,0-4.2.1l-10.9,16.1,2.5-15.3a55.09,55.09,0,0,1,5.7-.6h-25.7Zm7.9,91.8,4.7-28.7h15Zm24.6-23.5,22.7,33h-45.4Zm-4,40-29.9,41.1,6.7-41.1Zm4,6.4,32,43.9h-64Zm4.1-6.4h23.3l6.7,41.1Zm.9-45.2h15l4.7,28.7Zm-5-15.6H1338l16.2-24,16.2,24Zm-94.1,63.7a94.08,94.08,0,0,1,74.2-92l-4.6,28.3H1315V306h12.1l-15.5,95.5H1294v17.9h10.7v14.8a89.4,89.4,0,0,0,17.9,8.6A94.22,94.22,0,0,1,1260.1,354.1Zm62.5,88.7V419.4h63.2v23.4a93.53,93.53,0,0,1-63.2,0Zm63.3,0a89.4,89.4,0,0,0,17.9-8.6V419.4h10.7V401.5h-17.6L1381.4,306h12.1V290.4h-14.7l-4.6-28.3a94.16,94.16,0,0,1,11.7,180.7Z" transform="translate(-973.4 -5.5)"/><path class="cls-1" d="M1533.9,295.6h0c-7.8-48.6-29.8-79.1-38.8-91.7s-29.2-36.2-34.7-42.2-23.4-27.6-31.5-37.7-19.3-24.8-26.8-39.2-11.8-27.6-11.8-40.5,7.4-38.8,7.4-38.8-20.3,43.5-27.1,74c0,0-7.6,27-1.9,66.9,1.8,12.4,8.4,31.2,13.8,40.6a261,261,0,0,0,24.3,35.6c5.7,7,16.3,19.5,20.5,23.7,4.9,4.8,16.1,16.6,16.8,17.3a126.51,126.51,0,0,1,37.7,90.5c0,67.9-53.4,122.8-120.5,126.4v14.8c97.5-3.5,175.4-78.3,175.4-170.1A160.56,160.56,0,0,0,1533.9,295.6Z" transform="translate(-973.4 -5.5)"/><path class="cls-1" d="M1226.8,354.1a126.51,126.51,0,0,1,37.7-90.5c.7-.8,11.9-12.5,16.8-17.3,4.3-4.2,14.9-16.6,20.5-23.7a261,261,0,0,0,24.3-35.6c5.4-9.4,12-28.1,13.8-40.6,5.6-39.9-1.9-66.9-1.9-66.9-6.8-30.6-27.1-74-27.1-74s7.4,25.8,7.4,38.8-4.3,26.1-11.8,40.5-18.8,29.1-26.8,39.2-26.1,31.7-31.5,37.7-25.7,29.6-34.7,42.2-31,43.1-38.8,91.7h0a160.56,160.56,0,0,0-2.8,29.6c0,91.8,77.9,166.7,175.4,170.1V480.5C1280.2,476.9,1226.8,422.1,1226.8,354.1Z" transform="translate(-973.4 -5.5)"/><path class="cls-1" d="M1064,556.6H973.4v122h39V638H1064a40,40,0,0,0,40-40v-1.4A40,40,0,0,0,1064,556.6Zm-2.2,52.9h-49.4V585.3h49.4c6.7,0,10.7,5.4,10.7,12.1S1068.5,609.5,1061.8,609.5Z" transform="translate(-973.4 -5.5)"/><path class="cls-1" d="M1695.6,556.6H1605v122h39V638h51.6a40,40,0,0,0,40-40v-1.4A40,40,0,0,0,1695.6,556.6Zm-2.2,52.9H1644V585.3h49.4c6.7,0,10.7,5.4,10.7,12.1S1700.1,609.5,1693.4,609.5Z" transform="translate(-973.4 -5.5)"/><path class="cls-1" d="M1491.2,637v-8.2h58.3c2.7-7,6.6-17.2,10.8-27.8h-69.1V585.3h75.2c4.8-12.2,9.1-23.2,11.3-28.7H1452.2v76.6c0,30.7,23,45.7,54.6,45.7h69.1V650.2h-63.3C1499.1,650.2,1491.2,644.3,1491.2,637Z" transform="translate(-973.4 -5.5)"/><polygon class="cls-1" points="283 551.1 236.8 551.1 197.8 551.1 152 551.1 152 579.8 197.8 579.8 197.8 673.1 236.8 673.1 236.8 579.8 283 579.8 283 551.1"/><polygon class="cls-1" points="446.4 551.1 400.3 551.1 361.3 551.1 315.4 551.1 315.4 579.8 361.3 579.8 361.3 673.1 400.3 673.1 400.3 579.8 446.4 579.8 446.4 551.1"/></svg>