<svg width="340" height="189" viewBox="0 0 340 189" fill="none" xmlns="http://www.w3.org/2000/svg">
<rect width="340" height="189" rx="16" fill="#02A998"/>
<mask id="mask0_40000655_163795" style="mask-type:alpha" maskUnits="userSpaceOnUse" x="0" y="0" width="340" height="189">
<rect width="340" height="189" rx="16" fill="#02A998"/>
</mask>
<g mask="url(#mask0_40000655_163795)">
<g opacity="0.3">
<path d="M266.191 159.724H222.485L217.031 37.2734L266.191 47.478V159.724Z" fill="#B5C3C2"/>
<path d="M75.5189 131.783V90.845H68.6644V79.8793H66.2156V63.7959H52.7243V51.9763H51.5236V63.7959H48.8805V49H47.6804V63.7959H39.1512V90.845H34.7455V131.783H30.9688V206.349H78.1742V131.783H75.5189Z" fill="#B5C3C2"/>
<path d="M362.019 158.195H-160.18V170.615H362.019V158.195Z" fill="#B5C3C2"/>
<path d="M147.202 167.578H124.078L133.088 121.273H147.202V167.578Z" fill="#95A9A7"/>
<path d="M369.371 169.383H-178.914V188.966H369.371V169.383Z" fill="#95A9A7"/>
<path d="M128.247 81.8913V61.3727H120.822V53.561H116.85V46.9985H115.456V35.75H115.096V46.9985H113.702V53.561H109.729V61.3727H102.361V81.8913H100.83V119.144H89.4062V161.61H100.83H112.254H129.722V81.8913H128.247Z" fill="#95A9A7"/>
<path d="M170.922 105.469H134.984V106.122H136.611V166.89H169.296V106.122H170.922V105.469Z" fill="#95A9A7"/>
<path d="M7.04657 120.602H-24.8164V171.222H7.04657V120.602Z" fill="#95A9A7"/>
<path d="M51.5178 85.6797H12.2188V171.218H51.5178V85.6797Z" fill="#95A9A7"/>
<path d="M47.6435 82.7422H16.0664V96.9891H47.6435V82.7422Z" fill="#95A9A7"/>
<path d="M54.5559 87.4766H9.16406V88.4768H54.5559V87.4766Z" fill="#95A9A7"/>
<path d="M23.615 128.023H5.09766V171.223H23.615V128.023Z" fill="#95A9A7"/>
<path d="M268.886 152H47.6484V171.217H268.886V152Z" fill="#95A9A7"/>
<path d="M291.8 121.156H257.637V171.213H291.8V121.156Z" fill="#95A9A7"/>
<path d="M320.972 140.625H286.809V170.937H320.972V140.625Z" fill="#95A9A7"/>
<path d="M173.477 136.172H154.312V161.61H173.477V136.172Z" fill="#95A9A7"/>
<path d="M298.891 73.5547H274.727V171.214H298.891V73.5547Z" fill="#95A9A7"/>
<path d="M338.677 171.221H306.805V114.195H330.969L338.677 171.221Z" fill="#95A9A7"/>
<path d="M352.637 158.203H324.723V171.221H352.637V158.203Z" fill="#95A9A7"/>
<path d="M293.466 53.1641H292.633V79.7028H293.466V53.1641Z" fill="#95A9A7"/>
<path d="M296.286 58.8516H295.453V85.3903H296.286V58.8516Z" fill="#95A9A7"/>
<path d="M290.919 62.5078H290.086V89.0466H290.919V62.5078Z" fill="#95A9A7"/>
<path d="M319.456 109.586H308.051V118.569H319.456V109.586Z" fill="#95A9A7"/>
<path d="M318.206 106.383H309.301V111.432H318.206V106.383Z" fill="#95A9A7"/>
<path d="M326.18 112.203H323.992V115.831H326.18V112.203Z" fill="#95A9A7"/>
<path d="M330.07 108.906H326.945V115.843H330.07V108.906Z" fill="#95A9A7"/>
<path d="M183.184 95.5703H154.215V188.947H183.184V95.5703Z" fill="#658280"/>
<path d="M185.349 96.125H152.051V97.0712H185.349V96.125Z" fill="#658280"/>
<path d="M184.449 109.234H152.953V110.177H184.449V109.234Z" fill="#658280"/>
<path d="M184.449 121.945H152.953V122.888H184.449V121.945Z" fill="#658280"/>
<path d="M184.449 134.641H152.953V135.584H184.449V134.641Z" fill="#658280"/>
<path d="M184.449 147.344H152.953V148.287H184.449V147.344Z" fill="#658280"/>
<path d="M184.449 160.039H152.953V160.982H184.449V160.039Z" fill="#658280"/>
<path d="M184.449 172.758H152.953V173.701H184.449V172.758Z" fill="#658280"/>
<path d="M186.449 93.5391H150.949V96.1188H186.449V93.5391Z" fill="#658280"/>
<path opacity="0.29" d="M159.834 100.133H156.824V107.592H159.834V100.133Z" fill="#658280"/>
<path d="M166.561 100.133H163.551V107.592H166.561V100.133Z" fill="#658280"/>
<path d="M173.299 100.133H170.289V107.592H173.299V100.133Z" fill="#658280"/>
<path d="M180.026 100.133H177.016V107.592H180.026V100.133Z" fill="#658280"/>
<path d="M159.834 112.336H156.824V119.795H159.834V112.336Z" fill="#658280"/>
<path opacity="0.29" d="M166.561 112.336H163.551V119.795H166.561V112.336Z" fill="#658280"/>
<path d="M173.299 112.336H170.289V119.795H173.299V112.336Z" fill="#658280"/>
<path d="M180.026 112.336H177.016V119.795H180.026V112.336Z" fill="#658280"/>
<path d="M159.834 125.039H156.824V132.499H159.834V125.039Z" fill="#658280"/>
<path d="M166.561 125.039H163.551V132.499H166.561V125.039Z" fill="#658280"/>
<path d="M173.299 125.039H170.289V132.499H173.299V125.039Z" fill="#658280"/>
<path opacity="0.29" d="M180.026 125.039H177.016V132.499H180.026V125.039Z" fill="#658280"/>
<path d="M159.834 137.734H156.824V145.194H159.834V137.734Z" fill="#658280"/>
<path opacity="0.29" d="M166.561 137.734H163.551V145.194H166.561V137.734Z" fill="#658280"/>
<path opacity="0.29" d="M173.299 137.734H170.289V145.194H173.299V137.734Z" fill="#658280"/>
<path d="M180.026 137.734H177.016V145.194H180.026V137.734Z" fill="#658280"/>
<path opacity="0.29" d="M159.834 150.438H156.824V157.897H159.834V150.438Z" fill="#658280"/>
<path d="M166.561 150.438H163.551V157.897H166.561V150.438Z" fill="#658280"/>
<path d="M173.299 150.438H170.289V157.897H173.299V150.438Z" fill="#658280"/>
<path d="M180.026 150.438H177.016V157.897H180.026V150.438Z" fill="#658280"/>
<path d="M159.834 163.133H156.824V170.592H159.834V163.133Z" fill="#658280"/>
<path d="M166.561 163.133H163.551V170.592H166.561V163.133Z" fill="#658280"/>
<path opacity="0.29" d="M173.299 163.133H170.289V170.592H173.299V163.133Z" fill="#658280"/>
<path d="M180.026 163.133H177.016V170.592H180.026V163.133Z" fill="#658280"/>
<path d="M159.834 175.844H156.824V183.303H159.834V175.844Z" fill="#658280"/>
<path opacity="0.29" d="M166.561 175.844H163.551V183.303H166.561V175.844Z" fill="#658280"/>
<path d="M173.299 175.844H170.289V183.303H173.299V175.844Z" fill="#658280"/>
<path opacity="0.29" d="M180.026 175.844H177.016V183.303H180.026V175.844Z" fill="#658280"/>
<path d="M165.896 89.9766H156.043V94.8262H165.896V89.9766Z" fill="#658280"/>
<path d="M166.564 89.8438H155.375V90.6725H166.564V89.8438Z" fill="#658280"/>
<path d="M112.699 188.964H74.1094V100.244L112.699 90.8047V188.964Z" fill="#658280"/>
<path d="M75.8047 98.6797H72.4141V188.962H75.8047V98.6797Z" fill="#658280"/>
<path d="M85.4492 96.1328H82.0586V188.959H85.4492V96.1328Z" fill="#658280"/>
<path d="M95.0938 93.4844H91.7031V188.953H95.0938V93.4844Z" fill="#658280"/>
<path d="M104.754 91.3359H101.363V188.957H104.754V91.3359Z" fill="#658280"/>
<path d="M114.398 89.0469H111.008V188.958H114.398V89.0469Z" fill="#658280"/>
<path opacity="0.29" d="M81.1801 106.25H76.6797V113.106H81.1801V106.25Z" fill="#658280"/>
<path opacity="0.29" d="M90.8246 106.25H86.3242V113.106H90.8246V106.25Z" fill="#658280"/>
<path d="M100.485 106.25H95.9844V113.106H100.485V106.25Z" fill="#658280"/>
<path opacity="0.29" d="M110.129 106.25H105.629V113.106H110.129V106.25Z" fill="#658280"/>
<path d="M81.1801 118.195H76.6797V125.052H81.1801V118.195Z" fill="#658280"/>
<path d="M90.8246 118.195H86.3242V125.052H90.8246V118.195Z" fill="#658280"/>
<path opacity="0.29" d="M100.485 118.195H95.9844V125.052H100.485V118.195Z" fill="#658280"/>
<path opacity="0.29" d="M110.129 118.195H105.629V125.052H110.129V118.195Z" fill="#658280"/>
<path opacity="0.29" d="M81.1801 130.125H76.6797V136.981H81.1801V130.125Z" fill="#658280"/>
<path opacity="0.29" d="M90.8246 130.125H86.3242V136.981H90.8246V130.125Z" fill="#658280"/>
<path opacity="0.29" d="M100.485 130.125H95.9844V136.981H100.485V130.125Z" fill="#658280"/>
<path d="M110.129 130.125H105.629V136.981H110.129V130.125Z" fill="#658280"/>
<path opacity="0.29" d="M81.1801 142.07H76.6797V148.927H81.1801V142.07Z" fill="#658280"/>
<path d="M90.8246 142.07H86.3242V148.927H90.8246V142.07Z" fill="#658280"/>
<path opacity="0.29" d="M100.485 142.07H95.9844V148.927H100.485V142.07Z" fill="#658280"/>
<path opacity="0.29" d="M110.129 142.07H105.629V148.927H110.129V142.07Z" fill="#658280"/>
<path opacity="0.29" d="M81.1801 154H76.6797V160.856H81.1801V154Z" fill="#658280"/>
<path opacity="0.29" d="M90.8246 154H86.3242V160.856H90.8246V154Z" fill="#658280"/>
<path d="M100.485 154H95.9844V160.856H100.485V154Z" fill="#658280"/>
<path opacity="0.29" d="M110.129 154H105.629V160.856H110.129V154Z" fill="#658280"/>
<path d="M81.1801 165.945H76.6797V172.802H81.1801V165.945Z" fill="#658280"/>
<path d="M90.8246 165.945H86.3242V172.802H90.8246V165.945Z" fill="#658280"/>
<path opacity="0.29" d="M100.485 165.945H95.9844V172.802H100.485V165.945Z" fill="#658280"/>
<path opacity="0.29" d="M110.129 165.945H105.629V172.802H110.129V165.945Z" fill="#658280"/>
<path opacity="0.29" d="M81.1801 177.883H76.6797V184.739H81.1801V177.883Z" fill="#658280"/>
<path d="M90.8246 177.883H86.3242V184.739H90.8246V177.883Z" fill="#658280"/>
<path opacity="0.29" d="M100.485 177.883H95.9844V184.739H100.485V177.883Z" fill="#658280"/>
<path d="M110.129 177.883H105.629V184.739H110.129V177.883Z" fill="#658280"/>
<path d="M31.8603 141.242H9.16406V188.954H31.8603V141.242Z" fill="#658280"/>
<path d="M16.0667 181.305H-28.1914V188.95H16.0667V181.305Z" fill="#658280"/>
<path d="M94.5394 181.305H50.2812V188.95H94.5394V181.305Z" fill="#658280"/>
<path d="M14.3419 158.875H-2.47981L-9.59375 185.141H14.3419V158.875Z" fill="#658280"/>
<path d="M22.5935 120.648H22.125V149.787H22.5935V120.648Z" fill="#658280"/>
<path d="M25.0856 130.508H24.4609V147.701H25.0856V130.508Z" fill="#658280"/>
<path d="M29.6319 133.562H21.1211V142.073H29.6319V133.562Z" fill="#658280"/>
<path d="M30.9594 132.891H19.6875V133.653H30.9594V132.891Z" fill="#658280"/>
<path d="M55.238 164.336H27.7383V188.945H55.238V164.336Z" fill="#658280"/>
<path d="M67.6404 137.258H49.9727V184.742H67.6404V137.258Z" fill="#658280"/>
<path d="M147.196 146.188H118.969V188.961H147.196V146.188Z" fill="#658280"/>
<path d="M142.3 173.195H110.117V188.956H142.3V173.195Z" fill="#658280"/>
<path d="M166.573 183.305H145.645V188.946H166.573V183.305Z" fill="#658280"/>
<path d="M211.893 173.195H177.867V188.956H211.893V173.195Z" fill="#658280"/>
<path d="M191.434 188.961H233.773V131.935H191.434V188.961Z" fill="#658280"/>
<path d="M190.33 131.93H236.234V129.742H190.33V131.93Z" fill="#658280"/>
<path d="M213.287 135.367H231.895V123.806H213.287V135.367Z" fill="#658280"/>
<path d="M204.09 130.844H207.215V123.813H204.09V130.844Z" fill="#658280"/>
<path d="M197.52 130.844H200.957V123.813H197.52V130.844Z" fill="#658280"/>
<path d="M262.868 188.961H296.383V105.677H262.868V188.961Z" fill="#658280"/>
<path d="M261.912 106.594H297.332V104.24H261.912V106.594Z" fill="#658280"/>
<path d="M263.996 112.422H295.258V101.233H263.996V112.422Z" fill="#658280"/>
<path d="M280.492 108.883H292.871V96.658H280.492V108.883Z" fill="#658280"/>
<path d="M285.711 100.1H292.875V93.6641H287.736L285.711 100.1Z" fill="#658280"/>
<path d="M289.282 102.664H289.977V88.3298H289.282V102.664Z" fill="#658280"/>
<path d="M289.012 87.5792C289.012 87.9893 289.291 88.3219 289.635 88.3219C289.979 88.3219 290.259 87.9893 290.259 87.5792C290.259 87.1685 289.98 86.8359 289.635 86.8359C289.29 86.8359 289.012 87.1685 289.012 87.5792Z" fill="#658280"/>
<path d="M306.804 154.57H291.805V188.952H306.804V154.57Z" fill="#658280"/>
<path d="M266.187 137.812H249.082V188.957H266.187V137.812Z" fill="#658280"/>
<path d="M257.646 188.964H233.551V161.609L253.887 170.62L257.646 188.964Z" fill="#658280"/>
<path d="M338.665 174.094H301.867V188.95H338.665V174.094Z" fill="#658280"/>
<path d="M346.453 129.656H325.078V188.961H346.453V129.656Z" fill="#658280"/>
<path d="M347.44 128.562H323.992V130.507H347.44V128.562Z" fill="#658280"/>
<path d="M340.461 121.719H339.992V131.306H340.461V121.719Z" fill="#658280"/>
<path opacity="0.5" d="M15.3117 91.3438H14.3594V96.6157H15.3117V91.3438Z" fill="white"/>
<path opacity="0.5" d="M18.6008 91.3438H17.6484V96.6157H18.6008V91.3438Z" fill="white"/>
<path opacity="0.5" d="M21.8781 91.3438H20.9258V96.6157H21.8781V91.3438Z" fill="white"/>
<path opacity="0.5" d="M25.1555 91.3438H24.2031V96.6157H25.1555V91.3438Z" fill="white"/>
<path opacity="0.5" d="M28.4445 91.3438H27.4922V96.6157H28.4445V91.3438Z" fill="white"/>
<path opacity="0.5" d="M31.7219 91.3438H30.7695V96.6157H31.7219V91.3438Z" fill="white"/>
<path opacity="0.5" d="M35.0109 91.3438H34.0586V96.6157H35.0109V91.3438Z" fill="white"/>
<path opacity="0.5" d="M38.2883 91.3438H37.3359V96.6157H38.2883V91.3438Z" fill="white"/>
<path opacity="0.5" d="M41.5773 91.3438H40.625V96.6157H41.5773V91.3438Z" fill="white"/>
<path opacity="0.5" d="M44.8547 91.3438H43.9023V96.6157H44.8547V91.3438Z" fill="white"/>
<path opacity="0.5" d="M48.1281 91.3438H47.1758V96.6157H48.1281V91.3438Z" fill="white"/>
<path opacity="0.5" d="M15.3117 98.6953H14.3594V103.967H15.3117V98.6953Z" fill="white"/>
<path opacity="0.5" d="M18.6008 98.6953H17.6484V103.967H18.6008V98.6953Z" fill="white"/>
<path opacity="0.5" d="M21.8781 98.6953H20.9258V103.967H21.8781V98.6953Z" fill="white"/>
<path opacity="0.5" d="M25.1555 98.6953H24.2031V103.967H25.1555V98.6953Z" fill="white"/>
<path opacity="0.5" d="M28.4445 98.6953H27.4922V103.967H28.4445V98.6953Z" fill="white"/>
<path opacity="0.5" d="M31.7219 98.6953H30.7695V103.967H31.7219V98.6953Z" fill="white"/>
<path opacity="0.5" d="M35.0109 98.6953H34.0586V103.967H35.0109V98.6953Z" fill="white"/>
<path opacity="0.5" d="M38.2883 98.6953H37.3359V103.967H38.2883V98.6953Z" fill="white"/>
<path opacity="0.5" d="M41.5773 98.6953H40.625V103.967H41.5773V98.6953Z" fill="white"/>
<path opacity="0.5" d="M44.8547 98.6953H43.9023V103.967H44.8547V98.6953Z" fill="white"/>
<path opacity="0.5" d="M48.1281 98.6953H47.1758V103.967H48.1281V98.6953Z" fill="white"/>
<path opacity="0.5" d="M15.3117 106.023H14.3594V111.295H15.3117V106.023Z" fill="white"/>
<path opacity="0.5" d="M18.6008 106.023H17.6484V111.295H18.6008V106.023Z" fill="white"/>
<path opacity="0.5" d="M21.8781 106.023H20.9258V111.295H21.8781V106.023Z" fill="white"/>
<path opacity="0.5" d="M25.1555 106.023H24.2031V111.295H25.1555V106.023Z" fill="white"/>
<path opacity="0.5" d="M28.4445 106.023H27.4922V111.295H28.4445V106.023Z" fill="white"/>
<path opacity="0.5" d="M31.7219 106.023H30.7695V111.295H31.7219V106.023Z" fill="white"/>
<path opacity="0.5" d="M35.0109 106.023H34.0586V111.295H35.0109V106.023Z" fill="white"/>
<path opacity="0.5" d="M38.2883 106.023H37.3359V111.295H38.2883V106.023Z" fill="white"/>
<path opacity="0.5" d="M41.5773 106.023H40.625V111.295H41.5773V106.023Z" fill="white"/>
<path opacity="0.5" d="M44.8547 106.023H43.9023V111.295H44.8547V106.023Z" fill="white"/>
<path opacity="0.5" d="M48.1281 106.023H47.1758V111.295H48.1281V106.023Z" fill="white"/>
<path opacity="0.5" d="M25.1555 113.367H24.2031V118.639H25.1555V113.367Z" fill="white"/>
<path opacity="0.5" d="M28.4445 113.367H27.4922V118.639H28.4445V113.367Z" fill="white"/>
<path opacity="0.5" d="M31.7219 113.367H30.7695V118.639H31.7219V113.367Z" fill="white"/>
<path opacity="0.5" d="M35.0109 113.367H34.0586V118.639H35.0109V113.367Z" fill="white"/>
<path opacity="0.5" d="M38.2883 113.367H37.3359V118.639H38.2883V113.367Z" fill="white"/>
<path opacity="0.5" d="M41.5773 113.367H40.625V118.639H41.5773V113.367Z" fill="white"/>
<path opacity="0.5" d="M44.8547 113.367H43.9023V118.639H44.8547V113.367Z" fill="white"/>
<path opacity="0.5" d="M48.1281 113.367H47.1758V118.639H48.1281V113.367Z" fill="white"/>
<path opacity="0.5" d="M28.4445 121.109H27.4922V126.381H28.4445V121.109Z" fill="white"/>
<path opacity="0.5" d="M31.7219 121.109H30.7695V126.381H31.7219V121.109Z" fill="white"/>
<path opacity="0.5" d="M35.0109 121.109H34.0586V126.381H35.0109V121.109Z" fill="white"/>
<path opacity="0.5" d="M38.2883 121.109H37.3359V126.381H38.2883V121.109Z" fill="white"/>
<path opacity="0.5" d="M41.5773 121.109H40.625V126.381H41.5773V121.109Z" fill="white"/>
<path opacity="0.5" d="M44.8547 121.109H43.9023V126.381H44.8547V121.109Z" fill="white"/>
<path opacity="0.5" d="M48.1281 121.109H47.1758V126.381H48.1281V121.109Z" fill="white"/>
<path opacity="0.33" d="M80.0705 104.43H77.8203V110.137H80.0705V104.43Z" fill="white"/>
<path opacity="0.33" d="M80.0705 115.352H77.8203V121.059H80.0705V115.352Z" fill="white"/>
<path opacity="0.33" d="M80.0705 126.266H77.8203V131.973H80.0705V126.266Z" fill="white"/>
<path opacity="0.33" d="M80.0705 137.188H77.8203V142.895H80.0705V137.188Z" fill="white"/>
<path opacity="0.33" d="M80.0705 147.477H77.8203V153.184H80.0705V147.477Z" fill="white"/>
<path opacity="0.33" d="M80.0705 158.391H77.8203V164.098H80.0705V158.391Z" fill="white"/>
<path opacity="0.33" d="M89.715 104.43H87.4648V110.137H89.715V104.43Z" fill="white"/>
<path opacity="0.33" d="M89.715 115.352H87.4648V121.059H89.715V115.352Z" fill="white"/>
<path opacity="0.33" d="M89.715 126.266H87.4648V131.973H89.715V126.266Z" fill="white"/>
<path opacity="0.33" d="M89.715 137.188H87.4648V142.895H89.715V137.188Z" fill="white"/>
<path opacity="0.33" d="M89.715 147.477H87.4648V153.184H89.715V147.477Z" fill="white"/>
<path opacity="0.33" d="M89.715 158.391H87.4648V164.098H89.715V158.391Z" fill="white"/>
<path opacity="0.33" d="M99.3596 104.43H97.1094V110.137H99.3596V104.43Z" fill="white"/>
<path opacity="0.33" d="M99.3596 115.352H97.1094V121.059H99.3596V115.352Z" fill="white"/>
<path opacity="0.33" d="M99.3596 126.266H97.1094V131.973H99.3596V126.266Z" fill="white"/>
<path opacity="0.33" d="M99.3596 137.188H97.1094V142.895H99.3596V137.188Z" fill="white"/>
<path opacity="0.33" d="M99.3596 147.477H97.1094V153.184H99.3596V147.477Z" fill="white"/>
<path opacity="0.33" d="M99.3596 158.391H97.1094V164.098H99.3596V158.391Z" fill="white"/>
<path opacity="0.33" d="M109.016 104.43H106.766V110.137H109.016V104.43Z" fill="white"/>
<path opacity="0.33" d="M109.016 115.352H106.766V121.059H109.016V115.352Z" fill="white"/>
<path opacity="0.33" d="M109.016 126.266H106.766V131.973H109.016V126.266Z" fill="white"/>
<path opacity="0.33" d="M109.016 137.188H106.766V142.895H109.016V137.188Z" fill="white"/>
<path opacity="0.33" d="M109.016 147.477H106.766V153.184H109.016V147.477Z" fill="white"/>
<path opacity="0.33" d="M109.016 158.391H106.766V164.098H109.016V158.391Z" fill="white"/>
<path opacity="0.5" d="M140.923 110.539H139.078V117.639H140.923V110.539Z" fill="white"/>
<path opacity="0.5" d="M146.575 110.539H144.73V117.639H146.575V110.539Z" fill="white"/>
<path opacity="0.5" d="M151.891 110.539H150.047V117.639H151.891V110.539Z" fill="white"/>
<path opacity="0.33" d="M267.596 112.008H266.195V116.001H267.596V112.008Z" fill="white"/>
<path opacity="0.33" d="M271.986 112.008H270.586V116.001H271.986V112.008Z" fill="white"/>
<path opacity="0.33" d="M267.596 112.008H266.195V116.001H267.596V112.008Z" fill="white"/>
<path opacity="0.33" d="M271.986 112.008H270.586V116.001H271.986V112.008Z" fill="white"/>
<path opacity="0.33" d="M276.127 112.008H274.727V116.001H276.127V112.008Z" fill="white"/>
<path opacity="0.33" d="M280.518 112.008H279.117V116.001H280.518V112.008Z" fill="white"/>
<path opacity="0.33" d="M267.596 119.172H266.195V123.165H267.596V119.172Z" fill="white"/>
<path opacity="0.33" d="M271.986 119.172H270.586V123.165H271.986V119.172Z" fill="white"/>
<path opacity="0.33" d="M267.596 119.172H266.195V123.165H267.596V119.172Z" fill="white"/>
<path opacity="0.33" d="M271.986 119.172H270.586V123.165H271.986V119.172Z" fill="white"/>
<path opacity="0.33" d="M276.127 119.172H274.727V123.165H276.127V119.172Z" fill="white"/>
<path opacity="0.33" d="M280.518 119.172H279.117V123.165H280.518V119.172Z" fill="white"/>
<path opacity="0.33" d="M267.596 126.797H266.195V130.79H267.596V126.797Z" fill="white"/>
<path opacity="0.33" d="M271.986 126.797H270.586V130.79H271.986V126.797Z" fill="white"/>
<path opacity="0.33" d="M267.596 126.797H266.195V130.79H267.596V126.797Z" fill="white"/>
<path opacity="0.33" d="M271.986 126.797H270.586V130.79H271.986V126.797Z" fill="white"/>
<path opacity="0.33" d="M276.127 126.797H274.727V130.79H276.127V126.797Z" fill="white"/>
<path opacity="0.33" d="M280.518 126.797H279.117V130.79H280.518V126.797Z" fill="white"/>
<path opacity="0.33" d="M285.315 112.008H283.914V116.001H285.315V112.008Z" fill="white"/>
<path opacity="0.33" d="M285.315 119.172H283.914V123.165H285.315V119.172Z" fill="white"/>
<path opacity="0.33" d="M289.705 112.008H288.305V116.001H289.705V112.008Z" fill="white"/>
<path opacity="0.33" d="M158.341 100.164H156.836V106.39H158.341V100.164Z" fill="white"/>
<path opacity="0.33" d="M165.821 100.164H164.316V106.39H165.821V100.164Z" fill="white"/>
<path opacity="0.33" d="M173.314 100.164H171.809V106.39H173.314V100.164Z" fill="white"/>
<path opacity="0.33" d="M180.794 100.164H179.289V106.39H180.794V100.164Z" fill="white"/>
<path opacity="0.33" d="M158.341 112.977H156.836V119.202H158.341V112.977Z" fill="white"/>
<path opacity="0.33" d="M165.821 112.977H164.316V119.202H165.821V112.977Z" fill="white"/>
<path opacity="0.33" d="M173.314 112.977H171.809V119.202H173.314V112.977Z" fill="white"/>
<path opacity="0.33" d="M180.794 112.977H179.289V119.202H180.794V112.977Z" fill="white"/>
<path opacity="0.33" d="M158.341 126.109H156.836V132.335H158.341V126.109Z" fill="white"/>
<path opacity="0.33" d="M165.821 126.109H164.316V132.335H165.821V126.109Z" fill="white"/>
<path opacity="0.33" d="M173.314 126.109H171.809V132.335H173.314V126.109Z" fill="white"/>
<path opacity="0.33" d="M180.794 126.109H179.289V132.335H180.794V126.109Z" fill="white"/>
<path opacity="0.33" d="M158.341 139.242H156.836V145.468H158.341V139.242Z" fill="white"/>
<path opacity="0.33" d="M165.821 139.242H164.316V145.468H165.821V139.242Z" fill="white"/>
<path opacity="0.33" d="M173.314 139.242H171.809V145.468H173.314V139.242Z" fill="white"/>
<path opacity="0.33" d="M180.794 139.242H179.289V145.468H180.794V139.242Z" fill="white"/>
<path opacity="0.33" d="M158.341 151.156H156.836V157.382H158.341V151.156Z" fill="white"/>
<path opacity="0.33" d="M165.821 151.156H164.316V157.382H165.821V151.156Z" fill="white"/>
<path opacity="0.33" d="M173.314 151.156H171.809V157.382H173.314V151.156Z" fill="white"/>
<path opacity="0.33" d="M158.341 164.461H156.836V170.686H158.341V164.461Z" fill="white"/>
<path opacity="0.33" d="M165.821 164.461H164.316V170.686H165.821V164.461Z" fill="white"/>
<path opacity="0.33" d="M173.314 164.461H171.809V170.686H173.314V164.461Z" fill="white"/>
<path opacity="0.33" d="M180.794 151.156H179.289V157.382H180.794V151.156Z" fill="white"/>
<path opacity="0.33" d="M328.522 133.07H326.984V136.644H328.522V133.07Z" fill="white"/>
<path opacity="0.33" d="M328.522 138.844H326.984V142.417H328.522V138.844Z" fill="white"/>
<path opacity="0.33" d="M332.467 133.07H330.93V136.644H332.467V133.07Z" fill="white"/>
</g>
</g>
<mask id="mask1_40000655_163795" style="mask-type:alpha" maskUnits="userSpaceOnUse" x="46" y="16" width="248" height="173">
<rect x="46.5" y="16.5" width="247" height="172" fill="#02A998" stroke="#EEEEEE"/>
</mask>
<g mask="url(#mask1_40000655_163795)">
<path d="M111.703 52.5086C109.342 52.6603 107.022 50.8117 106.636 48.4803C106.249 46.1488 107.851 43.6587 110.136 43.0379C108.748 41.4722 108.514 38.9959 109.563 37.1886C110.619 35.3814 112.891 34.3744 114.935 34.8089C115.128 32.7534 116.46 30.8358 118.325 29.946C120.189 29.0562 122.515 29.2148 124.241 30.353C126.623 28.5182 130.303 28.6285 132.561 30.6082C134.584 30.3392 136.717 31.5187 137.566 33.3742C138.416 35.2297 137.912 37.6094 136.386 38.9614" fill="#1A2E35"/>
<path d="M110.973 53.1519C112.36 42.5777 121.64 34.8384 132.307 35.3695L133.363 35.4247C144.755 36.6594 150.071 47.0129 148.518 58.3528L144.976 96.2767L144.782 98.1184L118.153 102.091L118.671 92.4071C118.671 92.4071 107.769 90.1584 108.183 79.1772C108.384 73.8728 109.682 62.9881 110.966 53.1519H110.973Z" fill="#FFC9A4"/>
<path d="M118.59 92.3887C118.59 92.3887 125.584 93.1613 133.185 88.8984C133.185 88.8984 129.409 96.6239 118.5 95.0926L118.59 92.3887Z" fill="#FA886C"/>
<path d="M112.794 61.762C112.725 62.5897 113.367 63.3278 114.23 63.4175C115.093 63.5072 115.846 62.9139 115.915 62.0862C115.984 61.2585 115.342 60.5204 114.486 60.4308C113.623 60.3411 112.87 60.9412 112.794 61.762Z" fill="#1A2E35"/>
<path d="M113.066 58.6342C113.253 58.848 114.482 58.0272 116.166 58.1168C117.851 58.1789 119.045 59.1101 119.238 58.9101C119.335 58.8204 119.156 58.441 118.631 58.0272C118.12 57.6133 117.236 57.1856 116.18 57.1373C115.131 57.0891 114.226 57.4339 113.694 57.8064C113.156 58.1789 112.963 58.5376 113.052 58.6342H113.066Z" fill="#1A2E35"/>
<path d="M128.732 63.2855C128.663 64.1132 129.305 64.8512 130.168 64.9409C131.031 65.0306 131.783 64.4374 131.852 63.6097C131.921 62.7819 131.279 62.0439 130.423 61.9542C129.56 61.8645 128.808 62.4646 128.732 63.2855Z" fill="#1A2E35"/>
<path d="M129.633 59.7592C129.82 59.973 131.049 59.1522 132.74 59.2418C134.425 59.3039 135.619 60.2351 135.813 60.0351C135.909 59.9454 135.73 59.5729 135.205 59.1522C134.694 58.7383 133.81 58.3106 132.754 58.2623C131.705 58.2141 130.8 58.559 130.269 58.9314C129.73 59.3039 129.537 59.6626 129.627 59.7592H129.633Z" fill="#1A2E35"/>
<path d="M122.889 71.9802C122.903 71.8836 121.86 71.6491 120.176 71.3525C119.748 71.2904 119.34 71.18 119.285 70.8834C119.202 70.5661 119.402 70.1109 119.637 69.6211C120.093 68.6003 120.569 67.5311 121.073 66.4068C123.075 61.8267 124.546 58.0536 124.36 57.9777C124.173 57.9019 122.399 61.5439 120.397 66.124C119.913 67.2552 119.451 68.3313 119.009 69.359C118.822 69.8419 118.512 70.3799 118.698 71.0352C118.795 71.3594 119.105 71.6146 119.375 71.6974C119.644 71.7939 119.886 71.8146 120.1 71.8353C121.805 72.0147 122.868 72.0698 122.875 71.9802H122.889Z" fill="#1A2E35"/>
<path d="M127.796 73.3909C127.52 73.3633 127.431 75.1913 125.794 76.4122C124.165 77.64 122.225 77.3365 122.197 77.5917C122.163 77.702 122.611 77.971 123.44 78.0331C124.248 78.1021 125.442 77.9021 126.436 77.1502C127.431 76.3984 127.893 75.3568 127.997 74.6118C128.107 73.8531 127.921 73.384 127.796 73.3909Z" fill="#1A2E35"/>
<path d="M129.533 53.1398C129.678 53.6088 131.369 53.4709 133.337 53.8089C135.312 54.1055 136.879 54.7677 137.162 54.3676C137.286 54.1745 137.031 53.733 136.409 53.257C135.795 52.7811 134.794 52.3121 133.606 52.1189C132.426 51.9327 131.328 52.0637 130.589 52.319C129.851 52.5742 129.464 52.9191 129.526 53.1398H129.533Z" fill="#1A2E35"/>
<path d="M113.927 53.7873C114.203 54.1874 115.384 53.8425 116.785 53.8977C118.187 53.8977 119.354 54.284 119.644 53.8977C119.775 53.7114 119.602 53.3183 119.105 52.9251C118.615 52.5388 117.773 52.2008 116.813 52.1801C115.853 52.1663 115.004 52.4698 114.493 52.8354C113.982 53.2079 113.796 53.5942 113.92 53.7873H113.927Z" fill="#1A2E35"/>
<path d="M112.277 48.1687C112.277 48.1687 115.515 41.4434 118.912 40.0018C123.02 38.2566 124.532 42.7471 128.412 41.8711C132.293 40.995 136.214 39.3189 139.977 42.4712C144.099 45.92 141.979 48.0859 142 52.9695C142.09 72.7592 145.417 78.5188 146.909 69.2758C147.074 68.2619 149.94 67.5928 150.575 63.3093C151.396 57.7566 151.949 50.9899 150.899 46.9685C150.016 43.5817 148.227 41.1813 144.934 38.4636C139.742 34.1801 132.341 33.7317 127.287 33.9869C122.233 34.2421 112.25 39.5465 112.277 48.1687Z" fill="#1A2E35"/>
<path d="M146.224 68.9436C146.376 67.2536 147.902 65.9914 149.586 66.2328C151.623 66.5294 153.846 67.8055 153.501 72.0269C152.887 79.5179 145.492 77.3589 145.492 77.1381C145.492 76.9933 145.941 72.0752 146.224 68.9436Z" fill="#FFC9A4"/>
<path d="M147.35 74.4413C147.384 74.4206 147.474 74.5448 147.688 74.662C147.895 74.7793 148.261 74.8759 148.661 74.7586C149.476 74.531 150.249 73.3308 150.394 71.9857C150.47 71.3028 150.381 70.6475 150.18 70.0888C149.994 69.5232 149.676 69.1093 149.283 69.0059C148.896 68.8817 148.592 69.0955 148.482 69.3025C148.365 69.5025 148.399 69.6543 148.358 69.668C148.337 69.6818 148.206 69.5301 148.296 69.2266C148.337 69.0817 148.441 68.9093 148.627 68.7851C148.82 68.6541 149.089 68.5989 149.366 68.6541C149.939 68.7437 150.415 69.3163 150.636 69.9233C150.885 70.5372 151.002 71.2821 150.919 72.0478C150.746 73.5515 149.856 74.9034 148.751 75.1242C148.213 75.2207 147.785 75.0207 147.571 74.8276C147.357 74.6206 147.329 74.4551 147.357 74.4413H147.35Z" fill="#FA886C"/>
<path d="M146.796 54.3875C145.788 55.0014 144.725 55.636 143.544 55.6981C142.364 55.7533 141.052 55.0152 140.914 53.8426C140.852 53.3184 141.011 52.7183 140.686 52.2975C140.299 51.794 139.533 51.9112 138.905 51.9457C136.709 52.0699 134.555 50.4144 134.099 48.2692C133.499 49.0763 132.201 48.9728 131.386 48.3865C130.571 47.8002 130.074 46.8897 129.453 46.1033C128.832 45.317 127.941 44.5927 126.94 44.6893C126.381 44.7376 125.842 45.048 125.29 44.9652C124.309 44.8272 123.881 43.6546 123.785 42.6682C123.681 41.6819 123.626 40.5368 122.818 39.9643C122.065 39.4332 121.051 39.6677 120.139 39.7574C119.228 39.8471 118.061 39.578 117.875 38.6744C117.778 38.2054 117.999 37.7225 118.275 37.3294C119.539 35.5498 122.128 34.86 124.109 35.7774C124.965 33.3356 127.382 31.5215 129.971 31.3766C132.56 31.2318 135.163 32.77 136.281 35.1014C137.938 33.7425 140.272 33.2528 142.343 33.8322C144.407 34.4116 146.147 36.0464 146.851 38.0674C148.702 37.6812 150.745 38.4882 151.829 40.0333C152.913 41.5784 152.969 43.7788 151.967 45.3791C153.279 46.2137 154.37 47.6139 154.315 49.1659C154.267 50.7179 152.672 52.194 151.194 51.7112C151.74 52.9528 151.167 54.5669 149.958 55.1808C148.75 55.7947 147.107 55.3187 146.416 54.153" fill="#1A2E35"/>
<path d="M123.441 37.9584C123.441 37.9584 123.434 38.0067 123.441 38.0963C123.441 38.186 123.441 38.324 123.468 38.4964C123.523 38.8482 123.634 39.3655 123.945 39.9656C124.255 40.5588 124.745 41.2555 125.519 41.8211C126.278 42.3936 127.335 42.8558 128.55 42.8489L128.432 42.6764C128.17 43.3041 128.191 44.0767 128.481 44.7527C128.75 45.4355 129.199 46.0563 129.675 46.6633C129.917 46.953 130.131 47.291 130.469 47.5669C130.807 47.8291 131.215 47.9946 131.636 48.0705C132.478 48.2222 133.445 48.0084 134.094 47.3255L133.818 47.229C133.935 48.7327 134.708 50.264 136.013 51.2365C136.703 51.7884 137.566 52.1471 138.436 52.1677C139.306 52.2022 140.128 51.9884 140.894 51.7539L140.701 51.6573C141.06 52.6092 141.64 53.4369 142.365 54.0577C143.076 54.6785 144.043 55.0717 144.947 54.8993C146.735 54.6096 147.985 53.1955 148.289 51.8229L148.116 51.8918C148.972 52.4161 149.911 52.5057 150.677 52.3954C151.451 52.2919 152.072 51.9884 152.514 51.6849C152.963 51.3745 153.232 51.0434 153.398 50.8089C153.55 50.5675 153.619 50.4364 153.605 50.4295C153.57 50.395 153.329 50.9882 152.438 51.5814C151.996 51.8642 151.389 52.1402 150.65 52.216C149.918 52.3057 149.027 52.1953 148.233 51.6987L148.095 51.609L148.061 51.7677C147.757 53.0507 146.556 54.3681 144.899 54.6164C144.084 54.7682 143.228 54.4164 142.558 53.8232C141.882 53.2369 141.329 52.4368 140.998 51.5469L140.943 51.4021L140.798 51.4435C140.045 51.6711 139.251 51.8711 138.45 51.8367C137.642 51.816 136.869 51.4918 136.213 50.9744C134.984 50.0501 134.252 48.6154 134.135 47.1945L134.107 46.8358L133.859 47.0979C133.314 47.6842 132.444 47.8911 131.684 47.7532C131.304 47.6911 130.938 47.5463 130.649 47.3186C130.365 47.0979 130.145 46.7668 129.896 46.4702C129.42 45.877 128.985 45.2838 128.729 44.6423C128.453 44.0077 128.432 43.3317 128.66 42.7592L128.729 42.5799H128.543C127.397 42.6006 126.375 42.1867 125.636 41.6418C124.877 41.1106 124.386 40.4485 124.062 39.8828C123.434 38.7171 123.496 37.9239 123.441 37.9377V37.9584Z" fill="#375A64"/>
<path d="M159.997 150.904L169.967 160.499L166.75 142.144L186.979 135.75C186.979 135.75 192.35 160.941 193.282 166.893C194.96 177.585 192.903 192.781 182.933 193.85C172.149 195.009 164.002 184.379 158.817 177.406C154.833 172.046 148.398 162.665 148.398 162.665L159.997 150.897" fill="white"/>
<path d="M82.9323 134.57C79.6873 144.786 75.1513 146.324 73.3562 175.577C73.0041 181.282 77.2916 188.594 82.3937 191.173C87.4959 193.753 96.3885 190.587 99.2813 185.655L102.147 164.024L82.9323 134.57Z" fill="white"/>
<path d="M96.3411 177.303C96.2306 177.338 95.6713 175.261 94.3527 173.006C93.0478 170.736 91.5219 169.226 91.6048 169.143C91.6324 169.109 92.0605 169.447 92.6542 170.088C93.248 170.723 94.0005 171.675 94.6702 172.826C95.3399 173.978 95.7956 175.103 96.0511 175.93C96.3134 176.758 96.3963 177.296 96.348 177.303H96.3411Z" fill="#1A2E35"/>
<path d="M78.043 146.342C78.2156 145.735 88.199 118.585 91.3818 112.646C95.1929 105.535 103.202 102.389 108.173 102.086C113.144 101.782 166.354 106.018 166.354 106.018C166.354 106.018 181.26 109.756 184.277 123.234C188.061 140.134 191.099 156.792 191.099 156.792L164.428 162.545L161.293 154.654L111.183 165.821L98.9488 147.735L78.043 146.342Z" fill="white"/>
<path d="M170.186 209.558L168.888 164.295L169.875 107.568L149.093 98.4142L146.767 89.4609L122.506 100.918L117.424 95.3102L115.298 101.635L109.981 103.374L99.5216 123.984L99.0659 160.128C99.0659 160.128 96.539 202.729 98.0372 214.076C98.0372 214.076 101.959 220.573 114.013 220.863C138.454 221.449 170.2 209.565 170.2 209.565" fill="white"/>
<path d="M149.074 147.631C149.06 147.728 147.845 147.652 145.891 147.493C143.675 147.307 141.1 147.093 138.249 146.858C135.397 146.645 132.815 146.451 130.599 146.286C128.638 146.141 127.43 146.024 127.43 145.92C127.43 145.824 128.652 145.769 130.619 145.796C132.587 145.817 135.307 145.927 138.304 146.169C141.3 146.403 144 146.72 145.947 147.01C147.894 147.293 149.088 147.541 149.074 147.638V147.631Z" fill="white"/>
<path d="M148.734 151.357C148.721 151.454 147.505 151.378 145.552 151.219C143.335 151.033 140.76 150.819 137.909 150.584C135.057 150.371 132.475 150.178 130.259 150.012C128.298 149.867 127.09 149.75 127.09 149.646C127.09 149.557 128.312 149.495 130.28 149.522C132.247 149.543 134.967 149.653 137.964 149.895C140.96 150.129 143.66 150.447 145.607 150.736C147.554 151.019 148.748 151.267 148.734 151.364V151.357Z" fill="white"/>
<path d="M148.398 155.069C148.385 155.166 147.17 155.09 145.216 154.931C142.999 154.745 140.424 154.531 137.573 154.297C134.721 154.083 132.139 153.89 129.923 153.724C127.962 153.579 126.754 153.462 126.754 153.366C126.754 153.269 127.976 153.214 129.944 153.241C131.911 153.262 134.632 153.373 137.628 153.614C140.624 153.848 143.324 154.166 145.271 154.455C147.218 154.738 148.412 154.987 148.398 155.083V155.069Z" fill="white"/>
<path d="M148.059 158.795C148.045 158.891 146.83 158.815 144.876 158.657C142.66 158.47 140.084 158.257 137.233 158.022C134.381 157.808 131.799 157.615 129.583 157.449C127.622 157.305 126.414 157.187 126.414 157.084C126.414 156.994 127.636 156.932 129.604 156.96C131.571 156.98 134.292 157.091 137.288 157.332C140.285 157.567 142.984 157.884 144.931 158.174C146.878 158.457 148.072 158.705 148.059 158.801V158.795Z" fill="white"/>
<path d="M113.979 222.026C113.979 222.026 113.951 221.929 113.938 221.736C113.917 221.502 113.896 221.219 113.875 220.874C113.827 220.06 113.765 218.949 113.689 217.556C113.558 214.611 113.371 210.451 113.151 205.333C112.764 195.014 112.274 180.743 112.439 164.968C112.536 157.077 112.798 149.551 113.558 142.743C114.345 135.935 115.519 129.886 116.568 124.83C117.638 119.774 118.619 115.711 119.302 112.91C119.64 111.558 119.91 110.482 120.11 109.689C120.2 109.358 120.276 109.082 120.338 108.854C120.393 108.668 120.427 108.572 120.434 108.578C120.448 108.578 120.434 108.682 120.4 108.875C120.358 109.103 120.303 109.386 120.234 109.724C120.062 110.524 119.834 111.607 119.544 112.972C118.936 115.794 118.025 119.87 117.01 124.933C116.016 129.996 114.89 136.045 114.138 142.819C113.42 149.593 113.171 157.104 113.075 164.981C112.916 180.736 113.33 195 113.599 205.319C113.737 210.438 113.855 214.597 113.938 217.549C113.965 218.949 113.986 220.06 114.007 220.874C114.007 221.219 114.007 221.502 114.007 221.743C114.007 221.936 113.993 222.04 113.986 222.04L113.979 222.026Z" fill="#1A2E35"/>
<path d="M129.62 133.256C129.62 133.256 130.089 133.249 131.028 133.297C132.043 133.359 133.417 133.442 135.136 133.546C138.803 133.794 143.925 134.146 150.098 134.567L150.381 134.587L150.36 134.877C149.842 141.726 149.221 149.921 148.558 158.778L148.544 158.936L148.413 159.026C147.716 159.536 146.956 160.047 146.176 160.55C144.802 161.44 143.401 162.268 141.972 162.985C140.529 163.668 139.051 164.358 137.408 164.448C135.785 164.544 134.239 164.068 132.886 163.399C131.532 162.716 130.324 161.861 129.226 160.957C128.674 160.502 128.149 160.04 127.638 159.564C127.404 159.35 127.086 159.04 126.927 158.709C126.734 158.385 126.637 158.04 126.527 157.702C126.182 156.35 126.154 155.025 126.161 153.756C126.209 151.225 126.492 148.893 126.789 146.776C127.404 142.54 128.143 139.16 128.667 136.836C128.936 135.67 129.157 134.773 129.323 134.166C129.489 133.559 129.585 133.242 129.606 133.249C129.627 133.256 129.572 133.58 129.454 134.194C129.323 134.877 129.144 135.774 128.93 136.891C128.488 139.229 127.825 142.623 127.273 146.845C127.003 148.955 126.755 151.273 126.727 153.763C126.727 154.998 126.782 156.301 127.107 157.536C127.293 158.171 127.528 158.674 128.053 159.102C128.557 159.564 129.075 160.012 129.62 160.454C130.697 161.337 131.878 162.151 133.169 162.799C134.46 163.427 135.896 163.854 137.36 163.765C138.809 163.682 140.252 163.034 141.654 162.358C143.055 161.654 144.436 160.84 145.79 159.957C146.556 159.461 147.308 158.95 147.992 158.453L147.854 158.702C148.565 149.852 149.228 141.657 149.78 134.815L150.043 135.118C143.946 134.587 138.885 134.139 135.268 133.822C133.535 133.656 132.147 133.525 131.118 133.422C130.676 133.373 130.317 133.332 130.014 133.304C129.758 133.277 129.627 133.249 129.62 133.242V133.256Z" fill="#1A2E35"/>
<path d="M146.761 89.4609C146.761 89.4609 144.048 90.2473 137.082 93.9583C130.253 97.5934 122.5 100.918 122.5 100.918L123.087 111.865L148.908 98.9178" fill="white"/>
<path d="M117.419 95.3125L122.5 100.92L119.787 112.653L115.258 102.052" fill="white"/>
<path d="M149.911 141.057C149.897 141.25 145.044 141.022 139.065 140.56C133.093 140.098 128.26 139.567 128.273 139.374C128.287 139.18 133.141 139.408 139.12 139.87C145.092 140.332 149.925 140.87 149.911 141.057Z" fill="#1A2E35"/>
<g opacity="0.3">
<path d="M127.242 158.633C128.409 160.557 129.5 163.192 131.095 164.779C132.69 166.365 134.761 167.586 137.012 167.717C138.993 167.834 140.94 167.103 142.618 166.055C145.331 164.358 146.995 161.689 148.21 158.729C148.383 158.516 144.33 161.213 142.128 162.385C139.925 163.558 138.386 163.923 135.9 163.723C132.641 163.461 129.721 160.778 127.249 158.64" fill="black"/>
</g>
<g opacity="0.3">
<path d="M122.406 102.13C122.178 102.296 120.77 115.67 120.77 115.67L146.646 100.047L123.089 111.863L122.406 102.13Z" fill="black"/>
</g>
<path d="M117.984 115.179C117.984 115.179 111.68 140.542 109.326 171.623C108.325 184.812 107.586 202.291 107.586 202.291L113.475 209.575L122.499 201.601C122.499 201.601 122.105 164.47 122.582 152.04C122.968 141.811 121.36 115.717 121.36 115.717L117.984 115.172V115.179Z" fill="#02AA86"/>
<path d="M163.732 131.688C163.732 131.688 163.843 132.06 163.974 132.743C164.112 133.495 164.285 134.467 164.499 135.647C164.934 138.164 165.507 141.524 166.149 145.235C166.805 148.98 167.357 152.374 167.723 154.843C167.909 156.078 168.047 157.071 168.137 157.761C168.227 158.451 168.262 158.837 168.241 158.837C168.22 158.837 168.13 158.465 167.999 157.782C167.861 157.037 167.688 156.057 167.474 154.878C167.033 152.367 166.446 149.008 165.797 145.29C165.148 141.544 164.616 138.144 164.25 135.681C164.085 134.495 163.946 133.515 163.836 132.764C163.746 132.074 163.712 131.688 163.732 131.688Z" fill="#1A2E35"/>
<path d="M171.424 109.143C171.465 109.191 170.72 109.77 169.677 110.846C168.628 111.923 167.316 113.544 166.225 115.565C165.141 117.586 164.513 119.579 164.195 121.041C163.871 122.511 163.802 123.442 163.739 123.442C163.712 123.442 163.712 123.207 163.739 122.78C163.753 122.352 163.822 121.745 163.953 120.993C164.209 119.496 164.817 117.448 165.914 115.392C167.026 113.337 168.4 111.709 169.504 110.667C170.057 110.143 170.533 109.75 170.878 109.501C171.224 109.253 171.417 109.122 171.431 109.143H171.424Z" fill="#1A2E35"/>
<path d="M122.583 106.146L120.27 105.242L118.081 108.995L117.688 115.168L120.774 115.658L123.093 111.857L122.583 106.146Z" fill="#02AA86"/>
<path d="M97.5897 124.492C97.6863 124.492 97.7692 139.688 97.7692 158.436C97.7692 177.184 97.6863 192.38 97.5897 192.38C97.493 192.38 97.4102 177.184 97.4102 158.436C97.4102 139.688 97.493 124.492 97.5897 124.492Z" fill="#1A2E35"/>
<path d="M122.74 100.822C122.782 100.849 122.243 101.684 121.422 103.05C120.6 104.422 119.516 106.34 118.481 108.547C118.398 108.727 118.315 108.906 118.232 109.078L118.073 109.423L117.908 109.078C116.913 106.982 116.195 105.036 115.747 103.615C115.526 102.905 115.36 102.326 115.263 101.919C115.167 101.518 115.125 101.291 115.146 101.284C115.194 101.27 115.47 102.139 115.981 103.533C116.485 104.926 117.238 106.844 118.232 108.92H117.908C117.983 108.754 118.066 108.575 118.156 108.389C119.199 106.168 120.324 104.25 121.201 102.912C121.643 102.243 122.015 101.712 122.285 101.353C122.554 100.994 122.713 100.801 122.734 100.822H122.74Z" fill="#1A2E35"/>
<path d="M149.092 98.4141C149.092 98.4141 148.975 98.4968 148.74 98.6279C148.464 98.7727 148.119 98.9521 147.691 99.1728C146.738 99.6695 145.433 100.345 143.831 101.166C140.58 102.856 136.12 105.264 131.183 107.905C128.173 109.506 125.328 110.989 122.85 112.23L122.622 112.348V112.092C122.587 108.878 122.56 106.174 122.539 104.222C122.539 103.305 122.539 102.56 122.539 102.001C122.539 101.49 122.56 101.215 122.574 101.215C122.587 101.215 122.615 101.49 122.636 102.001C122.656 102.56 122.684 103.298 122.719 104.222C122.767 106.181 122.843 108.885 122.926 112.092L122.698 111.954C125.163 110.692 128 109.195 131.004 107.595C135.94 104.96 140.421 102.587 143.707 100.952C145.35 100.132 146.69 99.4901 147.622 99.0556C148.064 98.8555 148.416 98.6969 148.699 98.5658C148.947 98.4554 149.079 98.4072 149.086 98.421L149.092 98.4141Z" fill="#1A2E35"/>
<path d="M100.711 106.844C100.759 106.878 100.359 107.561 99.834 108.734C99.3093 109.899 98.7087 111.576 98.3496 113.493C97.9975 115.411 97.963 117.19 98.039 118.466C98.108 119.743 98.2461 120.529 98.1839 120.543C98.1563 120.543 98.1011 120.356 98.0251 120.005C97.9423 119.653 97.8525 119.136 97.7835 118.487C97.6454 117.197 97.6385 115.383 97.9906 113.431C98.3565 111.479 99.0055 109.782 99.5924 108.63C99.8893 108.051 100.152 107.596 100.359 107.299C100.559 106.995 100.683 106.837 100.704 106.851L100.711 106.844Z" fill="#1A2E35"/>
<path d="M120.208 116.069C120.153 116.152 119.566 115.876 118.896 115.456C118.226 115.035 117.722 114.621 117.778 114.538C117.833 114.455 118.42 114.731 119.089 115.152C119.759 115.573 120.263 115.987 120.208 116.069Z" fill="#1A2E35"/>
<path d="M121.319 114.567C121.23 114.608 120.525 113.208 119.752 111.442C118.979 109.676 118.42 108.214 118.509 108.173C118.599 108.131 119.303 109.532 120.077 111.297C120.85 113.063 121.409 114.526 121.319 114.567Z" fill="#1A2E35"/>
<path d="M186.082 176.781C186.082 176.781 186.048 176.733 185.992 176.623C185.93 176.505 185.847 176.347 185.751 176.154C185.647 175.94 185.516 175.685 185.364 175.381C185.171 175.091 184.95 174.767 184.708 174.402C183.693 172.932 181.953 170.987 179.53 168.78C177.121 166.566 174.055 164.069 170.617 161.22C168.905 159.785 167.082 158.275 165.252 156.592C163.43 154.909 161.552 153.108 159.874 150.997L160.136 151.011C156.898 154.398 153.384 158.068 149.746 161.868C149.269 162.365 148.8 162.862 148.358 163.317L148.379 163.089C152.307 168.828 155.876 174.381 159.639 179.037C161.503 181.375 163.423 183.465 165.294 185.348C167.158 187.238 168.981 188.908 170.789 190.239C174.38 192.95 177.991 194.108 180.497 194.046C180.807 194.046 181.104 194.06 181.38 194.046C181.657 194.019 181.912 193.991 182.154 193.964C182.395 193.936 182.616 193.915 182.817 193.895L183.355 193.77C183.666 193.701 183.907 193.653 184.087 193.612C184.253 193.577 184.335 193.564 184.342 193.57C184.342 193.57 184.259 193.605 184.101 193.646L183.376 193.839C183.21 193.881 183.031 193.929 182.837 193.977C182.63 194.005 182.409 194.033 182.174 194.067C181.933 194.095 181.67 194.129 181.394 194.164C181.118 194.177 180.814 194.171 180.504 194.177C177.97 194.281 174.29 193.136 170.651 190.432C168.815 189.101 166.971 187.431 165.094 185.548C163.209 183.672 161.269 181.575 159.398 179.237C155.614 174.574 152.024 169.014 148.102 163.289L148.02 163.172L148.123 163.069C148.565 162.613 149.034 162.117 149.511 161.62C153.156 157.819 156.67 154.157 159.915 150.77L160.053 150.625L160.178 150.777C161.835 152.867 163.699 154.66 165.508 156.343C167.324 158.019 169.139 159.537 170.838 160.979C174.262 163.848 177.314 166.366 179.71 168.607C182.119 170.842 183.852 172.822 184.839 174.326C185.081 174.705 185.295 175.036 185.482 175.326C185.627 175.636 185.744 175.898 185.847 176.112C185.937 176.312 186.006 176.471 186.061 176.595C186.11 176.705 186.131 176.761 186.124 176.761L186.082 176.781Z" fill="#1A2E35"/>
<g opacity="0.3">
<path d="M135.934 169.174C135.795 168.609 135.623 167.981 135.133 167.664C134.277 167.105 133.199 167.843 132.323 168.361C130.01 169.733 127.151 169.685 124.466 169.568C116.36 169.216 108.248 168.616 100.246 167.271C96.3244 166.615 92.3752 165.76 88.8679 163.884C85.3605 162.015 82.3089 158.993 81.1835 155.186L79.3125 154.172C80.7624 157.269 80.6174 166.029 81.1352 169.402C81.653 172.775 83.1512 175.189 86.41 176.238C87.7149 176.659 89.1233 176.596 90.4972 176.528C103.843 175.865 117.306 176.465 130.652 175.803C132.557 175.707 134.76 175.451 135.789 173.844C136.652 172.492 136.306 170.726 135.934 169.168V169.174Z" fill="black"/>
</g>
<path d="M144.35 138.896C144.35 138.896 138.033 131.668 136.894 132.468C135.754 133.268 134.118 133.709 135.706 136.641C137.294 139.572 139.918 141.214 140.408 143.704C140.898 146.194 140.346 152.195 143.128 154.23C145.91 156.265 149.784 161.549 149.784 161.549L159.429 151.478L155.611 148.602C155.611 148.602 157.924 142.828 157.903 139.814C157.882 136.8 155.845 133.033 155.845 133.033C155.845 133.033 155.507 130.598 153.774 129.102C153.774 129.102 153.533 127.163 153.015 125.26C152.49 123.349 145.565 116.672 145.565 116.672C145.565 116.672 143.294 118.272 144.778 120.707C146.269 123.142 147.947 125.108 147.947 125.108L141.609 124.349C141.609 124.349 140.801 127.529 144.281 128.419C147.761 129.309 148.589 130.585 148.589 130.585L144.267 132.012C144.267 132.012 144.467 134.558 146.359 134.62L148.251 134.675L144.336 138.896H144.35Z" fill="#FFC9A4"/>
<path d="M146.001 134.568C146.858 134.54 148.059 134.499 150.179 134.43H150.241L150.282 134.478C150.959 135.306 151.691 136.402 151.939 137.81C152.188 139.21 151.877 140.783 151.083 142.183C150.178 143.686 148.853 144.707 147.776 145.687C146.678 146.653 145.774 147.618 145.297 148.605C144.807 149.577 144.697 150.488 144.745 151.088C144.786 151.702 144.938 152.019 144.904 152.033C144.89 152.033 144.855 151.964 144.786 151.812C144.731 151.66 144.648 151.426 144.607 151.108C144.51 150.488 144.586 149.529 145.069 148.494C145.546 147.453 146.464 146.432 147.555 145.445C148.632 144.452 149.923 143.438 150.772 142.01C151.518 140.7 151.829 139.182 151.608 137.879C151.394 136.561 150.717 135.492 150.075 134.664L150.185 134.712C147.603 134.733 145.995 134.678 146.001 134.581V134.568Z" fill="#FA886C"/>
<path d="M154.823 132.93C154.768 132.958 154.588 132.592 154.181 132.102C153.774 131.619 153.07 131.075 152.137 130.819C151.205 130.557 150.308 130.571 149.666 130.585C149.017 130.605 148.616 130.64 148.609 130.585C148.603 130.543 148.989 130.419 149.652 130.33C150.301 130.254 151.24 130.192 152.241 130.474C152.738 130.619 153.187 130.84 153.553 131.102C153.919 131.364 154.188 131.675 154.381 131.951C154.761 132.509 154.858 132.923 154.823 132.93Z" fill="#FA886C"/>
<path d="M153.1 128.164C153.024 128.24 152.085 127.295 150.684 126.481C149.289 125.653 148.012 125.294 148.04 125.191C148.053 125.101 149.42 125.315 150.87 126.177C152.32 127.026 153.176 128.115 153.1 128.171V128.164Z" fill="#FA886C"/>
<path d="M75.8006 137.733L84.1201 169.125C84.5827 170.863 86.1706 172.063 87.9726 172.029L131.048 171.18C133.499 171.132 135.301 168.87 134.797 166.469L128.452 136.402C128.072 134.595 126.477 133.305 124.627 133.305H79.2112C76.8983 133.305 75.2137 135.491 75.8075 137.726L75.8006 137.733Z" fill="#1A2E35"/>
<path d="M72.1751 144.811C71.2292 143.77 71.312 142.045 72.1544 140.914C72.9967 139.79 74.4396 139.224 75.8481 139.169C77.2565 139.114 78.6443 139.521 79.9561 140.024C81.5785 140.645 83.1458 141.425 84.6164 142.349C85.6589 143.004 86.7359 143.853 86.9362 145.06C87.1364 146.267 85.8246 147.653 84.7544 147.046C86.1422 147.633 87.5437 149.095 87.7647 150.626C87.9856 152.158 87.1709 152.978 85.6796 153.42C86.8119 153.861 87.5299 155.275 87.0121 156.372C86.4667 157.524 84.8787 157.841 83.6912 157.386C82.5037 156.931 81.62 155.924 80.7915 154.958C81.6407 156.413 81.9375 158.172 81.62 159.821C78.3405 158.704 75.8274 155.613 75.3924 152.178C73.7837 150.971 73.2452 148.543 74.198 146.77C72.8724 146.357 71.3742 144.342 71.4777 142.963" fill="#FFC9A4"/>
<path d="M85.6729 153.449C85.6384 153.49 85.1206 153.042 84.2507 152.366C83.3876 151.711 82.1311 150.8 80.5155 150.455C79.7146 150.283 78.9207 150.29 78.244 150.455C77.5605 150.628 76.9944 150.945 76.587 151.283C75.7516 151.973 75.5652 152.677 75.5031 152.642C75.4824 152.642 75.5031 152.463 75.6274 152.173C75.7516 151.883 75.9933 151.483 76.4144 151.09C76.8287 150.704 77.4224 150.331 78.1612 150.131C78.893 149.924 79.7492 149.917 80.5915 150.097C82.3037 150.469 83.581 151.449 84.4164 152.159C85.2518 152.89 85.7074 153.408 85.6729 153.442V153.449Z" fill="#FA886C"/>
<path d="M85.3084 147.195C85.2877 147.243 84.618 146.981 83.5893 146.478C83.0715 146.229 82.457 145.933 81.7528 145.678C81.0555 145.436 80.2408 145.215 79.3916 145.064C78.5424 144.919 77.7208 144.898 76.9958 145.043C76.2778 145.181 75.6633 145.484 75.2215 145.816C74.317 146.492 74.1237 147.23 74.0616 147.195C74.0408 147.195 74.0616 147.009 74.1996 146.705C74.3377 146.409 74.607 145.995 75.0627 145.615C75.5183 145.236 76.1535 144.891 76.9268 144.719C77.6931 144.546 78.57 144.56 79.4468 144.712C80.3305 144.871 81.1314 145.091 81.8633 145.367C82.5813 145.65 83.1889 145.974 83.6998 146.25C84.7009 146.816 85.3222 147.147 85.3084 147.195Z" fill="#FA886C"/>
<g opacity="0.3">
<path d="M169.491 190.638C169.146 189.396 169.595 189.389 168.607 188.562C164.81 185.368 161.158 181.236 158.631 178.077C155.558 174.242 150.781 166.454 150.781 166.454L149.648 166.109C150.629 171.717 153.453 176.808 156.235 181.774C157.754 184.485 159.287 187.223 161.358 189.548C163.422 191.872 166.087 193.783 169.139 194.39C169.802 193.287 169.829 191.886 169.491 190.645V190.638Z" fill="black"/>
</g>
<path d="M72.7969 127.675L66.3524 121.227" stroke="white" stroke-width="3" stroke-linecap="round" stroke-linejoin="round"/>
<path d="M69.9062 132.21L62.0014 127.672" stroke="white" stroke-width="3" stroke-linecap="round" stroke-linejoin="round"/>
<path d="M77.1836 124.99L75.132 116.109" stroke="white" stroke-width="3" stroke-linecap="round" stroke-linejoin="round"/>
<path d="M240.184 54.097C245.015 57.0121 248 62.7487 247.615 68.3808C247.533 69.5798 247.302 70.8009 246.686 71.8404C246.071 72.8744 245.026 73.7049 243.828 73.8259C242.498 73.9579 241.261 73.2374 240.074 72.6269C238.607 71.8679 237.051 71.2354 235.424 70.9604C233.792 70.6854 232.077 70.7734 230.549 71.4114C229.34 71.9174 228.224 72.7699 226.916 72.8194C225.613 72.8689 224.387 72.0769 223.629 71.0209C222.87 69.9648 222.513 68.6668 222.288 67.3853C221.892 65.1468 221.842 62.8257 222.376 60.6202C222.909 58.4146 224.046 56.3191 225.767 54.8395C227.317 53.503 229.279 52.711 231.285 52.348C233.297 51.985 235.364 52.04 237.392 52.2655L240.184 54.108V54.097Z" fill="#453D3F"/>
<path d="M221.233 80.1328C220.277 80.1328 219.502 80.9083 219.502 81.8598C219.502 82.8114 220.277 83.5924 221.233 83.5924C222.19 83.5924 222.965 82.8169 222.965 81.8598C222.965 80.9028 222.19 80.1328 221.233 80.1328Z" fill="#211D1E"/>
<path d="M223.221 73.8043C223.59 73.9803 224.007 74.0683 224.282 73.6393C224.464 73.3533 224.442 72.9683 224.282 72.6658C224.277 72.6548 224.271 72.6438 224.266 72.6328C223.93 73.0343 223.584 73.4248 223.221 73.8043Z" fill="#211D1E"/>
<path d="M247.811 166.197C247.761 170.377 248.91 174.535 252.026 177.571C252.972 178.495 254.247 179.16 255.539 179.298C256.105 171.834 256.478 164.354 256.665 156.868C256.764 152.958 256.814 149.042 256.808 145.131C256.808 144.339 256.709 143.569 256.566 142.805C256.341 144.631 255.643 146.198 255.082 147.936C254.555 149.57 253.928 151.038 253.027 152.518C251.273 155.394 249.036 158.117 248.333 161.494C248.008 163.023 247.821 164.613 247.8 166.197H247.811Z" fill="#303030"/>
<path d="M218.479 72.2624C218.419 72.5209 218.529 72.8124 218.738 72.9774C219.073 73.2304 219.573 73.0489 219.953 73.0214C220.387 72.9884 220.826 73.0104 221.255 73.0819C221.887 73.1864 222.497 73.4064 223.058 73.7255C223.107 73.753 223.162 73.786 223.217 73.8135C223.575 73.4395 223.926 73.0434 224.262 72.6419C223.882 71.9544 222.899 71.7069 222.19 71.5309C221.332 71.3219 220.425 71.2999 219.562 71.4869C219.101 71.5859 218.584 71.8114 218.479 72.2679V72.2624Z" fill="#211D1E"/>
<path d="M243.588 119.072C244.11 116.443 243.851 113.688 243.719 110.993C243.692 110.415 243.67 109.838 243.659 109.266C243.538 104.459 243.857 99.6459 244.61 94.8993C244.984 92.5288 245.473 90.1692 246.061 87.8427C246.292 86.9242 246.402 85.7471 246.968 84.9771C247.446 84.3281 248.089 83.9156 248.782 83.5251C249.579 83.0631 250.332 82.5186 251.035 81.9245C252.448 80.7255 253.662 79.2955 254.63 77.717C256.537 74.5929 257.494 70.8528 257.048 67.2008C256.609 63.5542 254.806 60.1551 252.217 57.5756C249.491 54.8585 246.314 53.511 242.609 52.8125C242.092 52.7135 241.394 52.499 240.993 52.1415C234.419 46.3388 224.883 44.0893 216.413 46.3498C207.943 48.6104 200.792 55.3095 197.989 63.6202C195.626 70.6108 196.219 78.355 193.757 85.3126C192.553 88.7062 190.662 91.8027 189.046 95.0148C187.43 98.2324 186.056 101.681 186.029 105.278C186.001 108.512 187.243 111.889 189.739 113.88C191.877 113.341 194.076 112.995 196.23 112.956C195.862 115.783 196.626 119.298 198.819 121.118C199.638 121.8 200.605 122.317 201.622 122.609C203.222 123.065 204.931 122.955 206.344 121.987C208.729 120.354 209.493 117.576 209.46 114.766C209.433 112.577 208.872 110.239 208.487 108.083C208.102 105.955 207.674 103.831 207.366 101.692C207.058 99.5634 207.053 97.3744 206.871 95.2293C206.745 93.7718 206.509 90.6587 207.058 89.4542L207.025 89.4432C204.915 89.9987 202.161 87.8922 200.919 86.2256C199.896 84.8561 199.534 82.8156 200.385 81.281C202.128 78.146 207.135 78.872 207.646 82.3316C208.658 81.8531 208.855 80.6705 209.609 79.8455C210.257 79.136 211.45 78.6355 212.379 77.959C214.401 78.146 216.468 77.9205 218.068 77.3265C220.107 76.5674 221.767 75.3079 223.212 73.8009C223.157 73.7734 223.102 73.7459 223.053 73.7129C222.492 73.3994 221.882 73.1794 221.25 73.0694C220.821 72.9979 220.382 72.9759 219.947 73.0089C219.568 73.0364 219.062 73.2124 218.733 72.9649C218.518 72.8054 218.414 72.5139 218.474 72.2499C218.579 71.7934 219.095 71.5623 219.557 71.4688C220.425 71.2818 221.327 71.3038 222.184 71.5128C222.899 71.6889 223.877 71.9364 224.257 72.6239C224.927 71.8154 225.554 70.9628 226.153 70.0993C228.5 66.7222 230.198 63.0042 232.71 59.7371C234.606 57.2731 236.997 54.8035 240.18 56.7561C242.483 58.1696 244.242 60.9911 244.951 63.5652C246.633 69.6868 244.483 75.4014 243.895 81.468C243.285 87.8152 241.878 94.4978 237.234 99.2609C233.622 102.968 228.698 105.196 223.498 105.185C223.058 105.185 222.608 105.163 222.157 105.124C221.997 106.626 221.844 108.122 221.684 109.623C221.64 110.074 221.591 110.531 221.541 110.982H221.563C225.251 114.502 227.318 119.177 230.709 122.928C231.424 123.72 232.265 124.446 233.183 125.001C234.348 125.7 235.64 126.118 236.992 126.035C240.059 125.848 242.45 123.093 243.313 120.139C243.417 119.782 243.505 119.419 243.571 119.056L243.588 119.072Z" fill="#3A3A3A"/>
<path d="M270.431 142.76C270.727 142.353 271.074 141.968 271.486 141.594C274.866 138.547 277.208 134.372 278.082 129.906C278.159 129.51 278.236 129.12 278.312 128.724L278.159 128.691C277.581 126.854 276.642 125.149 275.432 123.658C272.926 120.567 269.26 118.4 265.308 117.872C264.555 117.773 263.692 117.767 263.164 118.312C261.076 120.484 266.72 122.101 267.908 122.778C270.387 124.18 272.514 126.221 273.992 128.663C270.189 126.216 265.588 125.022 261.076 125.347C260.284 125.402 259.339 125.627 259.102 126.386C258.916 126.986 259.322 127.646 259.872 127.954C260.746 128.443 262.027 128.405 262.999 128.537C266.506 129.021 269.738 130.055 272.36 132.42C268.864 131.265 265.116 130.863 261.449 131.248C260.823 131.314 260.081 131.501 259.888 132.095C259.724 132.607 260.092 133.162 260.575 133.404C261.054 133.646 261.614 133.652 262.147 133.674C265.467 133.811 268.749 134.686 271.7 136.215C271.7 136.605 271.398 137.001 271.024 137.166C270.552 137.375 270.007 137.315 269.496 137.254L256.733 135.698C256.409 135.659 256.074 135.615 255.75 135.538L255.739 135.582C255.271 138.096 256.123 140.406 256.563 142.804C256.7 143.568 256.799 144.338 256.805 145.13C256.805 149.041 256.761 152.957 256.662 156.868C256.475 164.353 256.096 171.833 255.535 179.297C256.217 179.369 256.904 179.297 257.547 179.033C259.74 178.137 260.63 175.563 261.268 173.28C262.857 167.626 264.439 161.966 266.022 156.312C266.808 153.518 267.589 150.724 268.375 147.93C268.919 145.994 269.326 144.267 270.425 142.76H270.431Z" fill="#FFC9A4"/>
<path d="M201.753 177.02C201.918 176.85 201.764 176.85 201.918 176.674V172.29L202.374 153.65C202.429 155.685 202.308 149.542 202.412 147.567C202.55 141.308 202.599 135.082 202.192 128.828C212.625 131.529 223.519 132.42 234.248 131.441C237.644 154.585 237.029 178.247 236.391 201.694C236.331 203.971 236.27 206.248 236.204 208.525C230.889 208.442 225.569 208.36 220.254 208.283L213.85 208.184C209.508 208.118 205.166 208.052 200.824 207.986C201.165 197.662 201.483 187.344 201.747 177.026L201.753 177.02Z" fill="#A4E5EA"/>
<path d="M200.831 207.976C201.171 197.652 201.49 187.334 201.754 177.016C201.017 177.78 200.204 178.479 199.193 179.034C199.05 179.111 198.907 179.188 198.758 179.26C198.901 184.848 198.824 190.436 198.527 196.013C198.412 198.213 198.67 200.936 197.621 202.899C196.857 204.318 195.504 205.468 194.108 204.747C185.963 206.463 178.878 212.04 170.869 213.998C169.622 224.999 168.38 236.004 167.132 247.005H199.544C199.946 233.986 200.402 220.984 200.831 207.981V207.976Z" fill="#0080C2"/>
<path d="M278.082 115.764C277.197 118.393 276.318 121.028 275.438 123.657C276.648 125.147 277.587 126.852 278.165 128.689L278.319 128.722C279.242 124.053 280.171 119.444 280.369 114.631C280.391 114.136 280.396 113.614 280.182 113.168C280 112.794 279.599 112.497 279.198 112.508C278.835 113.597 278.445 114.681 278.082 115.77V115.764Z" fill="#FFC094"/>
<path d="M279.199 112.512C279.743 110.895 280.238 109.256 280.551 107.584C280.639 107.111 280.705 106.61 280.535 106.165C280.188 105.263 279.248 104.96 278.397 104.872C277.204 104.74 276.006 104.465 274.818 104.262C272.482 103.866 270.141 103.47 267.799 103.074C266.975 102.936 266.123 102.793 265.309 102.98C263.699 103.349 263.287 104.971 262.831 106.341C262.204 108.244 261.577 110.141 260.956 112.044C259.714 115.85 258.477 119.656 257.23 123.457C256.548 125.547 255.861 127.637 255.174 129.727C254.894 130.585 254.196 131.949 254.025 133.143C253.91 133.946 254.042 134.672 254.701 135.117C255.02 135.332 255.377 135.458 255.757 135.541C256.081 135.618 256.411 135.656 256.741 135.7L269.503 137.257C270.014 137.317 270.559 137.378 271.031 137.169C271.405 137.004 271.713 136.608 271.707 136.217C268.756 134.688 265.474 133.819 262.155 133.676C261.621 133.654 261.061 133.643 260.583 133.407C260.104 133.165 259.736 132.609 259.895 132.098C260.088 131.504 260.83 131.317 261.456 131.251C265.123 130.866 268.871 131.267 272.367 132.422C269.745 130.057 266.508 129.023 263.006 128.539C262.034 128.407 260.758 128.446 259.879 127.956C259.329 127.648 258.923 126.988 259.11 126.389C259.346 125.63 260.291 125.404 261.083 125.349C265.595 125.025 270.196 126.218 273.999 128.666C272.521 126.224 270.399 124.183 267.915 122.781C266.728 122.11 261.083 120.492 263.171 118.314C263.694 117.77 264.562 117.775 265.315 117.874C269.267 118.402 272.928 120.569 275.439 123.661C276.319 121.031 277.204 118.397 278.083 115.768C278.446 114.684 278.831 113.601 279.199 112.506V112.512Z" fill="#786A6E"/>
<path d="M255.752 135.538C255.378 135.455 255.016 135.329 254.697 135.114C254.037 134.674 253.911 133.943 254.021 133.14H254.01C251.91 127.914 248.508 123.212 244.166 119.626C243.819 119.34 243.748 119.202 243.578 119.07C243.506 119.433 243.424 119.796 243.319 120.154C242.462 123.102 240.065 125.863 236.998 126.05C235.652 126.132 234.355 125.714 233.189 125.016C233.574 127.15 233.926 129.29 234.239 131.435C237.636 154.579 237.02 178.241 236.383 201.687C236.322 203.965 236.262 206.242 236.196 208.519C235.85 221.345 235.498 234.171 235.151 247.003H243.424C241.725 233.704 241.203 220.256 241.857 206.863C242.242 198.904 243.187 191.001 244.023 183.092C246.161 190.792 250.124 198.673 256.626 203.48C259.127 205.329 262.359 206.429 265.376 205.686C270.928 204.317 272.797 197.117 274.127 192.332C275.82 186.26 276.446 179.885 275.946 173.598C275.583 169.039 273.214 164.644 272.28 160.079C271.104 154.321 270.845 148.595 270.422 142.765C269.317 144.272 268.916 145.999 268.372 147.935C267.586 150.729 266.806 153.523 266.02 156.317C264.437 161.971 262.848 167.631 261.265 173.285C260.622 175.567 259.737 178.141 257.544 179.038C256.901 179.302 256.214 179.379 255.532 179.302C254.241 179.165 252.965 178.499 252.02 177.575C248.904 174.533 247.755 170.381 247.804 166.201C247.821 164.617 248.013 163.027 248.337 161.498C249.047 158.121 251.278 155.399 253.031 152.522C253.933 151.042 254.559 149.574 255.087 147.94C255.648 146.202 256.346 144.629 256.571 142.809C256.131 140.411 255.274 138.101 255.747 135.587L255.758 135.543L255.752 135.538Z" fill="#0080C2"/>
<path d="M208.579 97.0312L208.469 97.0917C210.272 103.202 215.521 108.147 221.699 109.643C221.859 108.141 222.018 106.645 222.172 105.144C216.857 104.709 211.075 101.8 208.579 97.0312Z" fill="#FA886C"/>
<path d="M237.718 81.8672C236.761 81.8672 235.986 82.6427 235.986 83.5997C235.986 84.5567 236.761 85.3268 237.718 85.3268C238.674 85.3268 239.449 84.5512 239.449 83.5997C239.449 82.6482 238.674 81.8672 237.718 81.8672Z" fill="#211D1E"/>
<path d="M237.251 74.1374C237.191 74.3959 237.301 74.6874 237.515 74.8524C237.851 75.1054 238.351 74.9239 238.73 74.8964C239.164 74.8634 239.604 74.8854 240.033 74.9569C240.67 75.0614 241.275 75.2814 241.835 75.6005C242.237 75.826 242.742 76.013 243.056 75.5235C243.237 75.2374 243.215 74.8524 243.056 74.5499C242.687 73.8404 241.687 73.5819 240.967 73.4059C240.11 73.1969 239.203 73.1749 238.34 73.3619C237.878 73.4609 237.361 73.6864 237.257 74.1429L237.251 74.1374Z" fill="#211D1E"/>
<path d="M221.554 111.006C221.603 110.555 221.653 110.104 221.697 109.648C215.519 108.152 210.27 103.201 208.467 97.0963L208.577 97.0358C211.067 101.804 216.854 104.714 222.169 105.148C222.62 105.187 223.065 105.203 223.51 105.209C228.71 105.22 233.635 102.992 237.246 99.2854C241.885 94.5223 243.298 87.8451 243.908 81.4925C244.496 75.4259 246.645 69.7113 244.963 63.5897C244.32 61.2466 242.726 57.9905 240.088 57.49C238.576 57.204 236.993 57.677 235.696 58.502C234.399 59.3271 233.344 60.4821 232.365 61.6756C230.639 63.7711 229.095 66.0042 227.616 68.2812C226.94 69.3208 226.352 70.6298 225.489 71.5208C225.209 71.8123 224.78 71.9883 224.549 72.3238C224.22 72.8078 224.61 73.1598 224.285 73.6604C224.016 74.0839 223.593 74.0014 223.225 73.8254C221.785 75.3324 220.119 76.5919 218.08 77.3509C216.481 77.9449 214.414 78.1704 212.391 77.9834C211.462 78.6655 210.27 79.1605 209.621 79.87C208.862 80.695 208.67 81.8775 207.659 82.356C207.153 78.891 202.14 78.1704 200.398 81.3055C199.546 82.84 199.909 84.8806 200.931 86.2501C202.173 87.9166 204.927 90.0232 207.038 89.4677L207.071 89.4787C206.521 90.6832 206.757 93.7963 206.884 95.2538C207.065 97.3988 207.071 99.5879 207.378 101.716C207.686 103.856 208.12 105.979 208.5 108.108C208.884 110.258 209.445 112.596 209.473 114.79C209.506 117.601 208.742 120.378 206.356 122.012C204.944 122.98 203.229 123.09 201.635 122.633C201.882 124.707 202.063 126.775 202.195 128.843C212.628 131.544 223.521 132.435 234.251 131.456C233.937 129.31 233.585 127.171 233.201 125.037C232.277 124.487 231.442 123.755 230.727 122.963C227.336 119.218 225.269 114.543 221.581 111.023H221.559L221.554 111.006ZM219.504 81.872C219.504 80.915 220.279 80.145 221.235 80.145C222.191 80.145 222.966 80.9205 222.966 81.872C222.966 82.8235 222.191 83.6046 221.235 83.6046C220.279 83.6046 219.504 82.829 219.504 81.872ZM235.993 83.6046C235.993 82.6475 236.768 81.872 237.724 81.872C238.681 81.872 239.456 82.6475 239.456 83.6046C239.456 84.5616 238.681 85.3316 237.724 85.3316C236.768 85.3316 235.993 84.5561 235.993 83.6046ZM237.51 74.8484C237.296 74.6889 237.191 74.3974 237.246 74.1334C237.351 73.6769 237.867 73.4458 238.329 73.3523C239.192 73.1653 240.099 73.1873 240.956 73.3963C241.676 73.5724 242.677 73.8309 243.045 74.5404C243.204 74.8429 243.226 75.2279 243.045 75.5139C242.732 76.0034 242.226 75.8164 241.825 75.5909C241.264 75.2774 240.654 75.0574 240.022 74.9474C239.593 74.8759 239.153 74.8539 238.719 74.8869C238.34 74.9144 237.834 75.0904 237.504 74.8429L237.51 74.8484Z" fill="#FFC9A4"/>
<path d="M276.565 107.954C276.565 108.608 277.115 109.142 277.796 109.142C278.478 109.142 279.027 108.608 279.027 107.954C279.027 107.299 278.478 106.766 277.796 106.766C277.115 106.766 276.565 107.299 276.565 107.954Z" fill="white"/>
<path d="M204.921 86.3637C205.064 86.3637 205.19 86.2757 205.24 86.1327C205.295 85.9567 205.201 85.7697 205.025 85.7147C204.69 85.6047 204.404 85.1097 204.454 84.7137C204.487 84.4387 204.608 84.3672 204.844 84.2242C205.009 84.1252 205.218 83.9987 205.383 83.7732C205.663 83.3992 205.641 82.9316 205.322 82.4971C204.838 81.8371 203.64 81.2541 202.876 81.5181C202.7 81.5786 202.612 81.7656 202.673 81.9416C202.733 82.1176 202.926 82.2056 203.096 82.1451C203.475 82.0131 204.399 82.3596 204.789 82.8876C204.998 83.1736 204.893 83.3167 204.849 83.3717C204.762 83.4927 204.641 83.5642 204.498 83.6522C204.234 83.8172 203.871 84.0372 203.794 84.6257C203.717 85.2582 204.118 86.1162 204.822 86.3417C204.855 86.3527 204.888 86.3582 204.921 86.3582V86.3637Z" fill="#F38857"/>
<path d="M195.907 104.242C196.313 100.903 197.231 97.669 198.633 94.6164L198.028 94.3359C196.594 97.449 195.659 100.76 195.247 104.165L195.907 104.247V104.242Z" fill="#231F20"/>
<path d="M230.803 91.3103C230.803 91.3103 230.858 91.3102 230.886 91.2992C231.826 91.0627 232.683 90.5017 233.238 89.7592C233.859 88.9232 233.634 87.8287 233.403 87.0807C233.299 86.7287 233.161 86.3877 233.035 86.0577C232.887 85.6836 232.749 85.3261 232.645 84.9576C232.287 83.6706 232.419 82.2516 233.007 81.058C233.09 80.893 233.018 80.695 232.859 80.6125C232.694 80.53 232.496 80.6015 232.414 80.7665C231.754 82.1086 231.606 83.7036 232.007 85.1391C232.117 85.5406 232.271 85.9257 232.419 86.2997C232.551 86.6297 232.672 86.9432 232.771 87.2732C233.062 88.2412 233.046 88.9067 232.705 89.3577C232.249 89.9682 231.512 90.4522 230.726 90.6502C230.551 90.6942 230.441 90.8757 230.485 91.0518C230.523 91.2003 230.66 91.3048 230.809 91.3048L230.803 91.3103Z" fill="#F38857"/>
<path d="M229.881 95.555C230.057 95.555 230.205 95.4175 230.211 95.236C230.216 95.0545 230.079 94.895 229.892 94.8895C227.908 94.807 225.957 93.6519 224.918 91.9579C224.824 91.7984 224.615 91.7489 224.461 91.8479C224.302 91.9414 224.253 92.1504 224.352 92.3044C225.517 94.2185 227.627 95.4615 229.864 95.555H229.881Z" fill="#F38857"/>
<path d="M278.166 129.024C278.199 129.024 278.232 129.024 278.265 129.008C278.441 128.953 278.54 128.766 278.485 128.59C277.913 126.775 277.001 125.07 275.759 123.53C275.643 123.387 275.434 123.365 275.291 123.48C275.148 123.596 275.126 123.805 275.242 123.948C276.429 125.427 277.303 127.055 277.847 128.793C277.891 128.936 278.023 129.024 278.166 129.024Z" fill="#F38857"/>
<path d="M244.284 183.891C244.889 178.199 245.554 171.576 245.785 165.009C246.071 156.864 245.592 148.602 245.136 140.611C244.977 137.833 244.812 134.962 244.68 132.141L244.015 132.174C244.147 135.001 244.312 137.872 244.471 140.655C244.933 148.63 245.406 156.875 245.12 164.987C244.889 171.532 244.229 178.144 243.625 183.82L244.284 183.891Z" fill="white"/>
<path d="M202.412 147.562C202.55 141.303 202.599 135.077 202.193 128.823C202.061 126.755 201.879 124.687 201.632 122.614C200.615 122.322 199.648 121.8 198.829 121.123C196.636 119.303 195.866 115.788 196.24 112.961C194.08 112.999 191.887 113.346 189.749 113.885C188.072 114.308 186.429 114.853 184.862 115.463C178.877 117.801 173.479 121.58 169.082 126.255C162.459 133.289 158.106 142.062 154.626 150.989C150.894 160.564 147.151 170.003 143.166 179.485C141.798 182.735 141.204 184.754 141.44 188.23C141.627 190.925 142.243 193.571 143.177 196.101C146.805 205.902 156.116 215.642 167.378 214.597C168.565 214.487 169.731 214.284 170.874 214.003C178.882 212.045 185.967 206.468 194.113 204.752C193.876 204.631 193.635 204.455 193.393 204.213C191.788 202.591 191.414 200.567 191.238 198.372C190.776 192.575 190.683 186.745 190.952 180.931C191.057 178.731 191.205 176.537 191.414 174.348C191.59 172.467 191.584 170.316 192.195 168.529L192.184 168.512C193.162 167.792 194.019 166.945 194.69 165.916C196.416 163.276 198.125 160.641 200.093 158.199C202.231 156.06 202.346 161.417 202.346 151.209C202.346 150.571 202.374 150.807 202.374 149.751C202.374 149.449 202.396 148.888 202.385 148.585" fill="#0080C2"/>
<path d="M194.108 204.753C195.505 205.474 196.862 204.33 197.621 202.905C198.676 200.947 198.412 198.224 198.528 196.019C198.824 190.442 198.901 184.848 198.758 179.266C196.313 180.465 193.625 180.635 190.948 180.927C190.679 186.74 190.772 192.57 191.234 198.368C191.41 200.562 191.783 202.586 193.388 204.209C193.625 204.451 193.867 204.627 194.108 204.748V204.753Z" fill="#303030"/>
<path d="M203.99 165.511C204.881 164.51 205.914 163.135 206.997 162.613C208.107 162.074 209.855 162.068 211.053 162.162C212.185 162.25 213.373 162.112 213.79 160.798C214.912 157.222 205.375 159.456 203.935 160.281C203.419 160.578 202.968 160.974 202.55 161.408C203.215 160.407 203.847 159.318 204.655 158.443C205.397 157.64 206.227 157.299 207.283 157.041C208.442 156.749 209.443 156.326 210.399 155.572C210.723 155.314 211.053 155.011 211.152 154.604C211.355 153.801 210.493 153.015 209.756 152.965C209.338 152.938 208.921 153.042 208.514 153.158C205.43 154.027 202.896 154.846 200.758 157.376C200.527 157.646 200.302 157.921 200.082 158.201C198.109 160.649 196.4 163.278 194.679 165.918C194.009 166.947 193.151 167.799 192.173 168.514L192.184 168.531C191.574 170.313 191.579 172.469 191.403 174.35C191.2 176.539 191.046 178.739 190.942 180.933C193.624 180.647 196.306 180.471 198.752 179.272C198.895 179.201 199.043 179.129 199.186 179.047C200.198 178.491 201.011 177.793 201.748 177.028C201.913 176.858 202.072 176.687 202.226 176.511C203.006 175.648 203.726 174.729 204.562 173.844C205.925 172.408 209.25 172.876 211.103 172.683C211.531 172.634 211.982 172.584 212.345 172.353C213.329 171.721 212.796 170.5 211.889 170.17C211.504 170.027 211.086 169.994 210.674 169.961C208.706 169.796 206.733 169.697 204.754 169.647C204.446 169.642 202.891 169.763 203.616 169.191C203.897 168.971 204.408 168.998 204.743 168.921C205.469 168.756 206.194 168.619 206.925 168.498C208.382 168.261 209.855 168.102 211.328 167.997C212.202 167.937 213.889 167.904 214.494 167.15C215.005 166.507 214.714 165.39 214.043 165C213.615 164.747 213.081 164.747 212.581 164.752C209.668 164.78 206.848 165.137 203.979 165.528L203.99 165.511Z" fill="#FFC9A4"/>
<path d="M200.795 163.793C200.889 163.793 200.977 163.754 201.043 163.683C201.279 163.413 201.515 163.122 201.746 162.841C202.219 162.264 202.708 161.664 203.252 161.18C203.39 161.059 203.401 160.85 203.28 160.713C203.159 160.575 202.95 160.564 202.812 160.685C202.23 161.202 201.719 161.824 201.229 162.423C200.993 162.709 200.773 162.984 200.542 163.243C200.421 163.38 200.432 163.589 200.57 163.71C200.63 163.765 200.713 163.793 200.79 163.793H200.795Z" fill="#F38857"/>
<path d="M154.347 180.765C156.034 179.22 158.376 178.081 161.306 177.377C163.191 176.926 165.164 176.679 167.066 176.442C167.753 176.354 168.467 176.266 169.165 176.167C173.925 175.502 178.652 174.363 183.214 172.785C183.627 172.642 184.044 172.499 184.473 172.356C187.331 171.388 190.288 170.392 192.613 168.583L192.207 168.055C189.969 169.793 187.067 170.772 184.259 171.723C183.83 171.866 183.412 172.009 182.995 172.152C178.471 173.72 173.788 174.847 169.072 175.507C168.374 175.606 167.665 175.694 166.978 175.777C165.054 176.019 163.07 176.266 161.146 176.723C158.107 177.449 155.666 178.642 153.896 180.265L154.347 180.754V180.765Z" fill="white"/>
<path d="M158.689 187.327C160.783 184.33 163.196 181.541 165.867 179.039L165.411 178.555C162.712 181.09 160.266 183.912 158.145 186.948L158.689 187.327Z" fill="white"/>
<path d="M161.976 175.178L162.168 174.54C159.458 173.715 156.545 173.489 153.736 173.885L153.83 174.545C156.54 174.16 159.354 174.38 161.976 175.178Z" fill="white"/>
<path d="M180.295 146.125L180.938 146.297L173.192 175.264L172.549 175.092L180.295 146.125Z" fill="white"/>
<path d="M262.59 100.175L256.599 94.1797" stroke="white" stroke-width="3" stroke-linecap="round" stroke-linejoin="round"/>
<path d="M259.902 104.398L252.554 100.18" stroke="white" stroke-width="3" stroke-linecap="round" stroke-linejoin="round"/>
<path d="M266.668 97.6853L264.761 89.4297" stroke="white" stroke-width="3" stroke-linecap="round" stroke-linejoin="round"/>
<path d="M208.335 68.2959L205.45 59.8372C207.957 57.0915 209.763 53.6419 210.509 49.718C212.65 38.4393 205.235 27.556 193.946 25.413C182.659 23.2654 171.769 30.669 169.629 41.9477C167.484 53.2252 174.898 64.1086 186.187 66.2516C190.903 67.1484 195.541 66.3747 199.509 64.3547L199.506 64.3639L208.335 68.2959Z" fill="#F5F5F5"/>
<path d="M184.025 51.9194L192.957 55.3614C193.697 55.6501 194.533 55.3593 194.908 54.6876L199.383 46.5949C203.879 38.5001 192.241 32.9294 188.827 41.8005C180.808 36.4103 175.721 48.3271 184.025 51.9194Z" fill="#5CD4E3"/>
</g>
</svg>
