<svg width="340" height="189" viewBox="0 0 340 189" fill="none" xmlns="http://www.w3.org/2000/svg">
<rect width="340" height="189" rx="16" fill="#02A998"/>
<mask id="mask0_40000742_13818" style="mask-type:alpha" maskUnits="userSpaceOnUse" x="0" y="0" width="340" height="189">
<rect width="340" height="189" rx="16" fill="#02A998"/>
</mask>
<g mask="url(#mask0_40000742_13818)">
<g opacity="0.3">
<path d="M266.191 159.724H222.485L217.031 37.2734L266.191 47.478V159.724Z" fill="#B5C3C2"/>
<path d="M75.5189 131.783V90.845H68.6644V79.8793H66.2156V63.7959H52.7243V51.9763H51.5236V63.7959H48.8805V49H47.6804V63.7959H39.1512V90.845H34.7455V131.783H30.9688V206.349H78.1742V131.783H75.5189Z" fill="#B5C3C2"/>
<path d="M362.019 158.195H-160.18V170.615H362.019V158.195Z" fill="#B5C3C2"/>
<path d="M147.202 167.578H124.078L133.088 121.273H147.202V167.578Z" fill="#95A9A7"/>
<path d="M369.371 169.383H-178.914V188.966H369.371V169.383Z" fill="#95A9A7"/>
<path d="M128.247 81.8913V61.3727H120.822V53.561H116.85V46.9985H115.456V35.75H115.096V46.9985H113.702V53.561H109.729V61.3727H102.361V81.8913H100.83V119.144H89.4062V161.61H100.83H112.254H129.722V81.8913H128.247Z" fill="#95A9A7"/>
<path d="M170.922 105.469H134.984V106.122H136.611V166.89H169.296V106.122H170.922V105.469Z" fill="#95A9A7"/>
<path d="M7.04657 120.602H-24.8164V171.222H7.04657V120.602Z" fill="#95A9A7"/>
<path d="M51.5178 85.6797H12.2188V171.218H51.5178V85.6797Z" fill="#95A9A7"/>
<path d="M47.6435 82.7422H16.0664V96.9891H47.6435V82.7422Z" fill="#95A9A7"/>
<path d="M54.5559 87.4766H9.16406V88.4768H54.5559V87.4766Z" fill="#95A9A7"/>
<path d="M23.615 128.023H5.09766V171.223H23.615V128.023Z" fill="#95A9A7"/>
<path d="M268.886 152H47.6484V171.217H268.886V152Z" fill="#95A9A7"/>
<path d="M291.8 121.156H257.637V171.213H291.8V121.156Z" fill="#95A9A7"/>
<path d="M320.972 140.625H286.809V170.937H320.972V140.625Z" fill="#95A9A7"/>
<path d="M173.477 136.172H154.312V161.61H173.477V136.172Z" fill="#95A9A7"/>
<path d="M298.891 73.5547H274.727V171.214H298.891V73.5547Z" fill="#95A9A7"/>
<path d="M338.677 171.221H306.805V114.195H330.969L338.677 171.221Z" fill="#95A9A7"/>
<path d="M352.637 158.203H324.723V171.221H352.637V158.203Z" fill="#95A9A7"/>
<path d="M293.466 53.1641H292.633V79.7028H293.466V53.1641Z" fill="#95A9A7"/>
<path d="M296.286 58.8516H295.453V85.3903H296.286V58.8516Z" fill="#95A9A7"/>
<path d="M290.919 62.5078H290.086V89.0466H290.919V62.5078Z" fill="#95A9A7"/>
<path d="M319.456 109.586H308.051V118.569H319.456V109.586Z" fill="#95A9A7"/>
<path d="M318.206 106.383H309.301V111.432H318.206V106.383Z" fill="#95A9A7"/>
<path d="M326.18 112.203H323.992V115.831H326.18V112.203Z" fill="#95A9A7"/>
<path d="M330.07 108.906H326.945V115.843H330.07V108.906Z" fill="#95A9A7"/>
<path d="M183.184 95.5703H154.215V188.947H183.184V95.5703Z" fill="#658280"/>
<path d="M185.349 96.125H152.051V97.0712H185.349V96.125Z" fill="#658280"/>
<path d="M184.449 109.234H152.953V110.177H184.449V109.234Z" fill="#658280"/>
<path d="M184.449 121.945H152.953V122.888H184.449V121.945Z" fill="#658280"/>
<path d="M184.449 134.641H152.953V135.584H184.449V134.641Z" fill="#658280"/>
<path d="M184.449 147.344H152.953V148.287H184.449V147.344Z" fill="#658280"/>
<path d="M184.449 160.039H152.953V160.982H184.449V160.039Z" fill="#658280"/>
<path d="M184.449 172.758H152.953V173.701H184.449V172.758Z" fill="#658280"/>
<path d="M186.449 93.5391H150.949V96.1188H186.449V93.5391Z" fill="#658280"/>
<path opacity="0.29" d="M159.834 100.133H156.824V107.592H159.834V100.133Z" fill="#658280"/>
<path d="M166.561 100.133H163.551V107.592H166.561V100.133Z" fill="#658280"/>
<path d="M173.299 100.133H170.289V107.592H173.299V100.133Z" fill="#658280"/>
<path d="M180.026 100.133H177.016V107.592H180.026V100.133Z" fill="#658280"/>
<path d="M159.834 112.336H156.824V119.795H159.834V112.336Z" fill="#658280"/>
<path opacity="0.29" d="M166.561 112.336H163.551V119.795H166.561V112.336Z" fill="#658280"/>
<path d="M173.299 112.336H170.289V119.795H173.299V112.336Z" fill="#658280"/>
<path d="M180.026 112.336H177.016V119.795H180.026V112.336Z" fill="#658280"/>
<path d="M159.834 125.039H156.824V132.499H159.834V125.039Z" fill="#658280"/>
<path d="M166.561 125.039H163.551V132.499H166.561V125.039Z" fill="#658280"/>
<path d="M173.299 125.039H170.289V132.499H173.299V125.039Z" fill="#658280"/>
<path opacity="0.29" d="M180.026 125.039H177.016V132.499H180.026V125.039Z" fill="#658280"/>
<path d="M159.834 137.734H156.824V145.194H159.834V137.734Z" fill="#658280"/>
<path opacity="0.29" d="M166.561 137.734H163.551V145.194H166.561V137.734Z" fill="#658280"/>
<path opacity="0.29" d="M173.299 137.734H170.289V145.194H173.299V137.734Z" fill="#658280"/>
<path d="M180.026 137.734H177.016V145.194H180.026V137.734Z" fill="#658280"/>
<path opacity="0.29" d="M159.834 150.438H156.824V157.897H159.834V150.438Z" fill="#658280"/>
<path d="M166.561 150.438H163.551V157.897H166.561V150.438Z" fill="#658280"/>
<path d="M173.299 150.438H170.289V157.897H173.299V150.438Z" fill="#658280"/>
<path d="M180.026 150.438H177.016V157.897H180.026V150.438Z" fill="#658280"/>
<path d="M159.834 163.133H156.824V170.592H159.834V163.133Z" fill="#658280"/>
<path d="M166.561 163.133H163.551V170.592H166.561V163.133Z" fill="#658280"/>
<path opacity="0.29" d="M173.299 163.133H170.289V170.592H173.299V163.133Z" fill="#658280"/>
<path d="M180.026 163.133H177.016V170.592H180.026V163.133Z" fill="#658280"/>
<path d="M159.834 175.844H156.824V183.303H159.834V175.844Z" fill="#658280"/>
<path opacity="0.29" d="M166.561 175.844H163.551V183.303H166.561V175.844Z" fill="#658280"/>
<path d="M173.299 175.844H170.289V183.303H173.299V175.844Z" fill="#658280"/>
<path opacity="0.29" d="M180.026 175.844H177.016V183.303H180.026V175.844Z" fill="#658280"/>
<path d="M165.896 89.9766H156.043V94.8262H165.896V89.9766Z" fill="#658280"/>
<path d="M166.564 89.8438H155.375V90.6725H166.564V89.8438Z" fill="#658280"/>
<path d="M112.699 188.964H74.1094V100.244L112.699 90.8047V188.964Z" fill="#658280"/>
<path d="M75.8047 98.6797H72.4141V188.962H75.8047V98.6797Z" fill="#658280"/>
<path d="M85.4492 96.1328H82.0586V188.959H85.4492V96.1328Z" fill="#658280"/>
<path d="M95.0938 93.4844H91.7031V188.953H95.0938V93.4844Z" fill="#658280"/>
<path d="M104.754 91.3359H101.363V188.957H104.754V91.3359Z" fill="#658280"/>
<path d="M114.398 89.0469H111.008V188.958H114.398V89.0469Z" fill="#658280"/>
<path opacity="0.29" d="M81.1801 106.25H76.6797V113.106H81.1801V106.25Z" fill="#658280"/>
<path opacity="0.29" d="M90.8246 106.25H86.3242V113.106H90.8246V106.25Z" fill="#658280"/>
<path d="M100.485 106.25H95.9844V113.106H100.485V106.25Z" fill="#658280"/>
<path opacity="0.29" d="M110.129 106.25H105.629V113.106H110.129V106.25Z" fill="#658280"/>
<path d="M81.1801 118.195H76.6797V125.052H81.1801V118.195Z" fill="#658280"/>
<path d="M90.8246 118.195H86.3242V125.052H90.8246V118.195Z" fill="#658280"/>
<path opacity="0.29" d="M100.485 118.195H95.9844V125.052H100.485V118.195Z" fill="#658280"/>
<path opacity="0.29" d="M110.129 118.195H105.629V125.052H110.129V118.195Z" fill="#658280"/>
<path opacity="0.29" d="M81.1801 130.125H76.6797V136.981H81.1801V130.125Z" fill="#658280"/>
<path opacity="0.29" d="M90.8246 130.125H86.3242V136.981H90.8246V130.125Z" fill="#658280"/>
<path opacity="0.29" d="M100.485 130.125H95.9844V136.981H100.485V130.125Z" fill="#658280"/>
<path d="M110.129 130.125H105.629V136.981H110.129V130.125Z" fill="#658280"/>
<path opacity="0.29" d="M81.1801 142.07H76.6797V148.927H81.1801V142.07Z" fill="#658280"/>
<path d="M90.8246 142.07H86.3242V148.927H90.8246V142.07Z" fill="#658280"/>
<path opacity="0.29" d="M100.485 142.07H95.9844V148.927H100.485V142.07Z" fill="#658280"/>
<path opacity="0.29" d="M110.129 142.07H105.629V148.927H110.129V142.07Z" fill="#658280"/>
<path opacity="0.29" d="M81.1801 154H76.6797V160.856H81.1801V154Z" fill="#658280"/>
<path opacity="0.29" d="M90.8246 154H86.3242V160.856H90.8246V154Z" fill="#658280"/>
<path d="M100.485 154H95.9844V160.856H100.485V154Z" fill="#658280"/>
<path opacity="0.29" d="M110.129 154H105.629V160.856H110.129V154Z" fill="#658280"/>
<path d="M81.1801 165.945H76.6797V172.802H81.1801V165.945Z" fill="#658280"/>
<path d="M90.8246 165.945H86.3242V172.802H90.8246V165.945Z" fill="#658280"/>
<path opacity="0.29" d="M100.485 165.945H95.9844V172.802H100.485V165.945Z" fill="#658280"/>
<path opacity="0.29" d="M110.129 165.945H105.629V172.802H110.129V165.945Z" fill="#658280"/>
<path opacity="0.29" d="M81.1801 177.883H76.6797V184.739H81.1801V177.883Z" fill="#658280"/>
<path d="M90.8246 177.883H86.3242V184.739H90.8246V177.883Z" fill="#658280"/>
<path opacity="0.29" d="M100.485 177.883H95.9844V184.739H100.485V177.883Z" fill="#658280"/>
<path d="M110.129 177.883H105.629V184.739H110.129V177.883Z" fill="#658280"/>
<path d="M31.8603 141.242H9.16406V188.954H31.8603V141.242Z" fill="#658280"/>
<path d="M16.0667 181.305H-28.1914V188.95H16.0667V181.305Z" fill="#658280"/>
<path d="M94.5394 181.305H50.2812V188.95H94.5394V181.305Z" fill="#658280"/>
<path d="M14.3419 158.875H-2.47981L-9.59375 185.141H14.3419V158.875Z" fill="#658280"/>
<path d="M22.5935 120.648H22.125V149.787H22.5935V120.648Z" fill="#658280"/>
<path d="M25.0856 130.508H24.4609V147.701H25.0856V130.508Z" fill="#658280"/>
<path d="M29.6319 133.562H21.1211V142.073H29.6319V133.562Z" fill="#658280"/>
<path d="M30.9594 132.891H19.6875V133.653H30.9594V132.891Z" fill="#658280"/>
<path d="M55.238 164.336H27.7383V188.945H55.238V164.336Z" fill="#658280"/>
<path d="M67.6404 137.258H49.9727V184.742H67.6404V137.258Z" fill="#658280"/>
<path d="M147.196 146.188H118.969V188.961H147.196V146.188Z" fill="#658280"/>
<path d="M142.3 173.195H110.117V188.956H142.3V173.195Z" fill="#658280"/>
<path d="M166.573 183.305H145.645V188.946H166.573V183.305Z" fill="#658280"/>
<path d="M211.893 173.195H177.867V188.956H211.893V173.195Z" fill="#658280"/>
<path d="M191.434 188.961H233.773V131.935H191.434V188.961Z" fill="#658280"/>
<path d="M190.33 131.93H236.234V129.742H190.33V131.93Z" fill="#658280"/>
<path d="M213.287 135.367H231.895V123.806H213.287V135.367Z" fill="#658280"/>
<path d="M204.09 130.844H207.215V123.813H204.09V130.844Z" fill="#658280"/>
<path d="M197.52 130.844H200.957V123.813H197.52V130.844Z" fill="#658280"/>
<path d="M262.868 188.961H296.383V105.677H262.868V188.961Z" fill="#658280"/>
<path d="M261.912 106.594H297.332V104.24H261.912V106.594Z" fill="#658280"/>
<path d="M263.996 112.422H295.258V101.233H263.996V112.422Z" fill="#658280"/>
<path d="M280.492 108.883H292.871V96.658H280.492V108.883Z" fill="#658280"/>
<path d="M285.711 100.1H292.875V93.6641H287.736L285.711 100.1Z" fill="#658280"/>
<path d="M289.282 102.664H289.977V88.3298H289.282V102.664Z" fill="#658280"/>
<path d="M289.012 87.5792C289.012 87.9893 289.291 88.3219 289.635 88.3219C289.979 88.3219 290.259 87.9893 290.259 87.5792C290.259 87.1685 289.98 86.8359 289.635 86.8359C289.29 86.8359 289.012 87.1685 289.012 87.5792Z" fill="#658280"/>
<path d="M306.804 154.57H291.805V188.952H306.804V154.57Z" fill="#658280"/>
<path d="M266.187 137.812H249.082V188.957H266.187V137.812Z" fill="#658280"/>
<path d="M257.646 188.964H233.551V161.609L253.887 170.62L257.646 188.964Z" fill="#658280"/>
<path d="M338.665 174.094H301.867V188.95H338.665V174.094Z" fill="#658280"/>
<path d="M346.453 129.656H325.078V188.961H346.453V129.656Z" fill="#658280"/>
<path d="M347.44 128.562H323.992V130.507H347.44V128.562Z" fill="#658280"/>
<path d="M340.461 121.719H339.992V131.306H340.461V121.719Z" fill="#658280"/>
<path opacity="0.5" d="M15.3117 91.3438H14.3594V96.6157H15.3117V91.3438Z" fill="white"/>
<path opacity="0.5" d="M18.6008 91.3438H17.6484V96.6157H18.6008V91.3438Z" fill="white"/>
<path opacity="0.5" d="M21.8781 91.3438H20.9258V96.6157H21.8781V91.3438Z" fill="white"/>
<path opacity="0.5" d="M25.1555 91.3438H24.2031V96.6157H25.1555V91.3438Z" fill="white"/>
<path opacity="0.5" d="M28.4445 91.3438H27.4922V96.6157H28.4445V91.3438Z" fill="white"/>
<path opacity="0.5" d="M31.7219 91.3438H30.7695V96.6157H31.7219V91.3438Z" fill="white"/>
<path opacity="0.5" d="M35.0109 91.3438H34.0586V96.6157H35.0109V91.3438Z" fill="white"/>
<path opacity="0.5" d="M38.2883 91.3438H37.3359V96.6157H38.2883V91.3438Z" fill="white"/>
<path opacity="0.5" d="M41.5773 91.3438H40.625V96.6157H41.5773V91.3438Z" fill="white"/>
<path opacity="0.5" d="M44.8547 91.3438H43.9023V96.6157H44.8547V91.3438Z" fill="white"/>
<path opacity="0.5" d="M48.1281 91.3438H47.1758V96.6157H48.1281V91.3438Z" fill="white"/>
<path opacity="0.5" d="M15.3117 98.6953H14.3594V103.967H15.3117V98.6953Z" fill="white"/>
<path opacity="0.5" d="M18.6008 98.6953H17.6484V103.967H18.6008V98.6953Z" fill="white"/>
<path opacity="0.5" d="M21.8781 98.6953H20.9258V103.967H21.8781V98.6953Z" fill="white"/>
<path opacity="0.5" d="M25.1555 98.6953H24.2031V103.967H25.1555V98.6953Z" fill="white"/>
<path opacity="0.5" d="M28.4445 98.6953H27.4922V103.967H28.4445V98.6953Z" fill="white"/>
<path opacity="0.5" d="M31.7219 98.6953H30.7695V103.967H31.7219V98.6953Z" fill="white"/>
<path opacity="0.5" d="M35.0109 98.6953H34.0586V103.967H35.0109V98.6953Z" fill="white"/>
<path opacity="0.5" d="M38.2883 98.6953H37.3359V103.967H38.2883V98.6953Z" fill="white"/>
<path opacity="0.5" d="M41.5773 98.6953H40.625V103.967H41.5773V98.6953Z" fill="white"/>
<path opacity="0.5" d="M44.8547 98.6953H43.9023V103.967H44.8547V98.6953Z" fill="white"/>
<path opacity="0.5" d="M48.1281 98.6953H47.1758V103.967H48.1281V98.6953Z" fill="white"/>
<path opacity="0.5" d="M15.3117 106.023H14.3594V111.295H15.3117V106.023Z" fill="white"/>
<path opacity="0.5" d="M18.6008 106.023H17.6484V111.295H18.6008V106.023Z" fill="white"/>
<path opacity="0.5" d="M21.8781 106.023H20.9258V111.295H21.8781V106.023Z" fill="white"/>
<path opacity="0.5" d="M25.1555 106.023H24.2031V111.295H25.1555V106.023Z" fill="white"/>
<path opacity="0.5" d="M28.4445 106.023H27.4922V111.295H28.4445V106.023Z" fill="white"/>
<path opacity="0.5" d="M31.7219 106.023H30.7695V111.295H31.7219V106.023Z" fill="white"/>
<path opacity="0.5" d="M35.0109 106.023H34.0586V111.295H35.0109V106.023Z" fill="white"/>
<path opacity="0.5" d="M38.2883 106.023H37.3359V111.295H38.2883V106.023Z" fill="white"/>
<path opacity="0.5" d="M41.5773 106.023H40.625V111.295H41.5773V106.023Z" fill="white"/>
<path opacity="0.5" d="M44.8547 106.023H43.9023V111.295H44.8547V106.023Z" fill="white"/>
<path opacity="0.5" d="M48.1281 106.023H47.1758V111.295H48.1281V106.023Z" fill="white"/>
<path opacity="0.5" d="M25.1555 113.367H24.2031V118.639H25.1555V113.367Z" fill="white"/>
<path opacity="0.5" d="M28.4445 113.367H27.4922V118.639H28.4445V113.367Z" fill="white"/>
<path opacity="0.5" d="M31.7219 113.367H30.7695V118.639H31.7219V113.367Z" fill="white"/>
<path opacity="0.5" d="M35.0109 113.367H34.0586V118.639H35.0109V113.367Z" fill="white"/>
<path opacity="0.5" d="M38.2883 113.367H37.3359V118.639H38.2883V113.367Z" fill="white"/>
<path opacity="0.5" d="M41.5773 113.367H40.625V118.639H41.5773V113.367Z" fill="white"/>
<path opacity="0.5" d="M44.8547 113.367H43.9023V118.639H44.8547V113.367Z" fill="white"/>
<path opacity="0.5" d="M48.1281 113.367H47.1758V118.639H48.1281V113.367Z" fill="white"/>
<path opacity="0.5" d="M28.4445 121.109H27.4922V126.381H28.4445V121.109Z" fill="white"/>
<path opacity="0.5" d="M31.7219 121.109H30.7695V126.381H31.7219V121.109Z" fill="white"/>
<path opacity="0.5" d="M35.0109 121.109H34.0586V126.381H35.0109V121.109Z" fill="white"/>
<path opacity="0.5" d="M38.2883 121.109H37.3359V126.381H38.2883V121.109Z" fill="white"/>
<path opacity="0.5" d="M41.5773 121.109H40.625V126.381H41.5773V121.109Z" fill="white"/>
<path opacity="0.5" d="M44.8547 121.109H43.9023V126.381H44.8547V121.109Z" fill="white"/>
<path opacity="0.5" d="M48.1281 121.109H47.1758V126.381H48.1281V121.109Z" fill="white"/>
<path opacity="0.33" d="M80.0705 104.43H77.8203V110.137H80.0705V104.43Z" fill="white"/>
<path opacity="0.33" d="M80.0705 115.352H77.8203V121.059H80.0705V115.352Z" fill="white"/>
<path opacity="0.33" d="M80.0705 126.266H77.8203V131.973H80.0705V126.266Z" fill="white"/>
<path opacity="0.33" d="M80.0705 137.188H77.8203V142.895H80.0705V137.188Z" fill="white"/>
<path opacity="0.33" d="M80.0705 147.477H77.8203V153.184H80.0705V147.477Z" fill="white"/>
<path opacity="0.33" d="M80.0705 158.391H77.8203V164.098H80.0705V158.391Z" fill="white"/>
<path opacity="0.33" d="M89.715 104.43H87.4648V110.137H89.715V104.43Z" fill="white"/>
<path opacity="0.33" d="M89.715 115.352H87.4648V121.059H89.715V115.352Z" fill="white"/>
<path opacity="0.33" d="M89.715 126.266H87.4648V131.973H89.715V126.266Z" fill="white"/>
<path opacity="0.33" d="M89.715 137.188H87.4648V142.895H89.715V137.188Z" fill="white"/>
<path opacity="0.33" d="M89.715 147.477H87.4648V153.184H89.715V147.477Z" fill="white"/>
<path opacity="0.33" d="M89.715 158.391H87.4648V164.098H89.715V158.391Z" fill="white"/>
<path opacity="0.33" d="M99.3596 104.43H97.1094V110.137H99.3596V104.43Z" fill="white"/>
<path opacity="0.33" d="M99.3596 115.352H97.1094V121.059H99.3596V115.352Z" fill="white"/>
<path opacity="0.33" d="M99.3596 126.266H97.1094V131.973H99.3596V126.266Z" fill="white"/>
<path opacity="0.33" d="M99.3596 137.188H97.1094V142.895H99.3596V137.188Z" fill="white"/>
<path opacity="0.33" d="M99.3596 147.477H97.1094V153.184H99.3596V147.477Z" fill="white"/>
<path opacity="0.33" d="M99.3596 158.391H97.1094V164.098H99.3596V158.391Z" fill="white"/>
<path opacity="0.33" d="M109.016 104.43H106.766V110.137H109.016V104.43Z" fill="white"/>
<path opacity="0.33" d="M109.016 115.352H106.766V121.059H109.016V115.352Z" fill="white"/>
<path opacity="0.33" d="M109.016 126.266H106.766V131.973H109.016V126.266Z" fill="white"/>
<path opacity="0.33" d="M109.016 137.188H106.766V142.895H109.016V137.188Z" fill="white"/>
<path opacity="0.33" d="M109.016 147.477H106.766V153.184H109.016V147.477Z" fill="white"/>
<path opacity="0.33" d="M109.016 158.391H106.766V164.098H109.016V158.391Z" fill="white"/>
<path opacity="0.5" d="M140.923 110.539H139.078V117.639H140.923V110.539Z" fill="white"/>
<path opacity="0.5" d="M146.575 110.539H144.73V117.639H146.575V110.539Z" fill="white"/>
<path opacity="0.5" d="M151.891 110.539H150.047V117.639H151.891V110.539Z" fill="white"/>
<path opacity="0.33" d="M267.596 112.008H266.195V116.001H267.596V112.008Z" fill="white"/>
<path opacity="0.33" d="M271.986 112.008H270.586V116.001H271.986V112.008Z" fill="white"/>
<path opacity="0.33" d="M267.596 112.008H266.195V116.001H267.596V112.008Z" fill="white"/>
<path opacity="0.33" d="M271.986 112.008H270.586V116.001H271.986V112.008Z" fill="white"/>
<path opacity="0.33" d="M276.127 112.008H274.727V116.001H276.127V112.008Z" fill="white"/>
<path opacity="0.33" d="M280.518 112.008H279.117V116.001H280.518V112.008Z" fill="white"/>
<path opacity="0.33" d="M267.596 119.172H266.195V123.165H267.596V119.172Z" fill="white"/>
<path opacity="0.33" d="M271.986 119.172H270.586V123.165H271.986V119.172Z" fill="white"/>
<path opacity="0.33" d="M267.596 119.172H266.195V123.165H267.596V119.172Z" fill="white"/>
<path opacity="0.33" d="M271.986 119.172H270.586V123.165H271.986V119.172Z" fill="white"/>
<path opacity="0.33" d="M276.127 119.172H274.727V123.165H276.127V119.172Z" fill="white"/>
<path opacity="0.33" d="M280.518 119.172H279.117V123.165H280.518V119.172Z" fill="white"/>
<path opacity="0.33" d="M267.596 126.797H266.195V130.79H267.596V126.797Z" fill="white"/>
<path opacity="0.33" d="M271.986 126.797H270.586V130.79H271.986V126.797Z" fill="white"/>
<path opacity="0.33" d="M267.596 126.797H266.195V130.79H267.596V126.797Z" fill="white"/>
<path opacity="0.33" d="M271.986 126.797H270.586V130.79H271.986V126.797Z" fill="white"/>
<path opacity="0.33" d="M276.127 126.797H274.727V130.79H276.127V126.797Z" fill="white"/>
<path opacity="0.33" d="M280.518 126.797H279.117V130.79H280.518V126.797Z" fill="white"/>
<path opacity="0.33" d="M285.315 112.008H283.914V116.001H285.315V112.008Z" fill="white"/>
<path opacity="0.33" d="M285.315 119.172H283.914V123.165H285.315V119.172Z" fill="white"/>
<path opacity="0.33" d="M289.705 112.008H288.305V116.001H289.705V112.008Z" fill="white"/>
<path opacity="0.33" d="M158.341 100.164H156.836V106.39H158.341V100.164Z" fill="white"/>
<path opacity="0.33" d="M165.821 100.164H164.316V106.39H165.821V100.164Z" fill="white"/>
<path opacity="0.33" d="M173.314 100.164H171.809V106.39H173.314V100.164Z" fill="white"/>
<path opacity="0.33" d="M180.794 100.164H179.289V106.39H180.794V100.164Z" fill="white"/>
<path opacity="0.33" d="M158.341 112.977H156.836V119.202H158.341V112.977Z" fill="white"/>
<path opacity="0.33" d="M165.821 112.977H164.316V119.202H165.821V112.977Z" fill="white"/>
<path opacity="0.33" d="M173.314 112.977H171.809V119.202H173.314V112.977Z" fill="white"/>
<path opacity="0.33" d="M180.794 112.977H179.289V119.202H180.794V112.977Z" fill="white"/>
<path opacity="0.33" d="M158.341 126.109H156.836V132.335H158.341V126.109Z" fill="white"/>
<path opacity="0.33" d="M165.821 126.109H164.316V132.335H165.821V126.109Z" fill="white"/>
<path opacity="0.33" d="M173.314 126.109H171.809V132.335H173.314V126.109Z" fill="white"/>
<path opacity="0.33" d="M180.794 126.109H179.289V132.335H180.794V126.109Z" fill="white"/>
<path opacity="0.33" d="M158.341 139.242H156.836V145.468H158.341V139.242Z" fill="white"/>
<path opacity="0.33" d="M165.821 139.242H164.316V145.468H165.821V139.242Z" fill="white"/>
<path opacity="0.33" d="M173.314 139.242H171.809V145.468H173.314V139.242Z" fill="white"/>
<path opacity="0.33" d="M180.794 139.242H179.289V145.468H180.794V139.242Z" fill="white"/>
<path opacity="0.33" d="M158.341 151.156H156.836V157.382H158.341V151.156Z" fill="white"/>
<path opacity="0.33" d="M165.821 151.156H164.316V157.382H165.821V151.156Z" fill="white"/>
<path opacity="0.33" d="M173.314 151.156H171.809V157.382H173.314V151.156Z" fill="white"/>
<path opacity="0.33" d="M158.341 164.461H156.836V170.686H158.341V164.461Z" fill="white"/>
<path opacity="0.33" d="M165.821 164.461H164.316V170.686H165.821V164.461Z" fill="white"/>
<path opacity="0.33" d="M173.314 164.461H171.809V170.686H173.314V164.461Z" fill="white"/>
<path opacity="0.33" d="M180.794 151.156H179.289V157.382H180.794V151.156Z" fill="white"/>
<path opacity="0.33" d="M328.522 133.07H326.984V136.644H328.522V133.07Z" fill="white"/>
<path opacity="0.33" d="M328.522 138.844H326.984V142.417H328.522V138.844Z" fill="white"/>
<path opacity="0.33" d="M332.467 133.07H330.93V136.644H332.467V133.07Z" fill="white"/>
</g>
</g>
<mask id="mask1_40000742_13818" style="mask-type:alpha" maskUnits="userSpaceOnUse" x="29" y="7" width="275" height="182">
<rect x="29" y="7" width="275" height="182" fill="#D9D9D9"/>
</mask>
<g mask="url(#mask1_40000742_13818)">
<path d="M126.845 123.969H72.4453V195.77H126.845V123.969Z" fill="#E1E1E1"/>
<path d="M126.864 123.969H101.359V195.77H126.864V123.969Z" fill="#F0F0F0"/>
<path d="M88.7501 133.695H83.8594V145.587H88.7501V133.695Z" fill="#F5F5F5"/>
<path d="M88.7501 180.234H83.8594V192.126H88.7501V180.234Z" fill="#F5F5F5"/>
<path d="M101.361 150.248C101.361 150.248 94.8829 150.441 86.9032 150.441C78.9235 150.441 72.4453 150.355 72.4453 150.248C72.4453 150.14 78.9235 150.055 86.9032 150.055C94.8829 150.055 101.361 150.14 101.361 150.248Z" fill="white"/>
<path d="M88.7501 157.133H83.8594V169.025H88.7501V157.133Z" fill="#F5F5F5"/>
<path d="M101.361 173.701C101.361 173.701 94.8829 173.894 86.9032 173.894C78.9235 173.894 72.4453 173.808 72.4453 173.701C72.4453 173.594 78.9235 173.508 86.9032 173.508C94.8829 173.508 101.361 173.594 101.361 173.701Z" fill="white"/>
<path d="M111.656 133.703H106.766V145.595H111.656V133.703Z" fill="#E1E1E1"/>
<path d="M122.274 133.703H117.383V145.595H122.274V133.703Z" fill="#E1E1E1"/>
<path d="M111.656 156.258H106.766V168.15H111.656V156.258Z" fill="#E1E1E1"/>
<path d="M122.274 156.258H117.383V168.15H122.274V156.258Z" fill="#E1E1E1"/>
<path d="M111.656 178.812H106.766V190.704H111.656V178.812Z" fill="#E1E1E1"/>
<path d="M122.274 178.812H117.383V190.704H122.274V178.812Z" fill="#E1E1E1"/>
<path d="M130.961 121.461H68.3672V124.057H130.961V121.461Z" fill="#E1E1E1"/>
<path d="M127.251 124.295C127.251 124.295 115.089 124.488 100.094 124.488C85.1002 124.488 72.9375 124.402 72.9375 124.295C72.9375 124.187 85.1002 124.102 100.094 124.102C115.089 124.102 127.251 124.187 127.251 124.295Z" fill="white"/>
<path d="M94.5701 70.5041L98.3418 83.0318L85.5543 76.7615L85.34 76.6564L85.1236 76.7569C78.7921 79.6963 71.4826 80.6503 64.1546 78.9838C46.5906 74.9852 35.5979 57.4977 39.5872 39.9253C43.5763 22.3537 61.0499 11.3632 78.6144 15.3619C96.1785 19.3604 107.171 36.848 103.182 54.4204L103.182 54.4207C101.8 60.5298 98.7898 65.8494 94.6927 70.0091L94.4847 70.2203L94.5701 70.5041Z" fill="white" stroke="#F3F3F3"/>
<mask id="path-274-inside-1_40000742_13818" fill="white">
<path d="M99.1586 84.0065C98.1292 83.4857 93.9917 81.4098 85.4078 77.0949L85.4412 77.3793L86.4204 76.5501L85.2448 77.0848C80.9591 79.0515 75.1304 80.5901 68.4125 79.9619C66.7326 79.7879 65.0239 79.533 63.2961 79.0341C62.4359 78.7948 61.5554 78.5628 60.6807 78.283C59.8319 77.9484 58.9557 77.6008 58.0795 77.2532C54.6322 75.7054 51.2651 73.4906 48.3231 70.5536C42.4278 64.7751 38.2906 55.9508 38.5741 46.3653C38.7203 41.6166 39.9154 36.7433 42.1787 32.3085C44.4493 27.8939 47.7448 23.7965 51.9532 20.7859C56.2278 17.706 61.1338 15.5629 66.1796 14.8289C71.2109 14.0544 76.3023 14.4667 80.927 15.8668C85.5517 17.2668 89.7702 19.6329 93.1422 22.6895C96.5345 25.7389 99.1726 29.3545 100.967 33.1582C102.781 36.9546 103.771 40.9319 104.079 44.7203C104.373 48.5361 103.89 52.1516 103.148 55.4264C101.488 61.9935 98.0896 66.9485 94.8585 70.2705L94.7922 70.3399L94.8211 70.4207C97.4791 78.9308 98.7349 82.9498 99.0706 84.0152C98.7551 82.9426 97.6001 78.8875 95.111 70.3398L95.0737 70.4899C98.3524 67.1736 101.859 62.2027 103.578 55.5461C104.346 52.2164 104.862 48.5663 104.566 44.6826C104.257 40.8263 103.265 36.7812 101.45 32.9169C99.6341 29.0526 96.9672 25.3561 93.5056 22.2403C90.0642 19.1174 85.7835 16.7051 81.0693 15.2459C76.3421 13.8141 71.1684 13.3629 66.0361 14.1735C60.8822 14.9234 55.8752 17.1027 51.5141 20.2591C47.212 23.3261 43.8502 27.4928 41.5277 32.0171C39.2125 36.5617 38.0189 41.5028 37.8685 46.367C37.7383 51.224 38.7249 55.955 40.5004 60.1528C42.276 64.3506 44.8477 68.0356 47.8647 70.9913C50.8615 73.9541 54.3108 76.208 57.8057 77.7615C58.7021 78.1019 59.5783 78.4495 60.4545 78.7971C61.3495 79.0696 62.2299 79.3017 63.1176 79.554C64.8655 80.0456 66.6147 80.286 68.3148 80.4528C75.1337 81.0449 81.0359 79.4572 85.3403 77.4154L85.1712 77.1339L84.9779 77.2943L85.1974 77.3981C93.8721 81.521 98.0485 83.5146 99.098 84.0282L99.1586 84.0065Z"/>
</mask>
<path d="M99.1586 84.0065C98.1292 83.4857 93.9917 81.4098 85.4078 77.0949L85.4412 77.3793L86.4204 76.5501L85.2448 77.0848C80.9591 79.0515 75.1304 80.5901 68.4125 79.9619C66.7326 79.7879 65.0239 79.533 63.2961 79.0341C62.4359 78.7948 61.5554 78.5628 60.6807 78.283C59.8319 77.9484 58.9557 77.6008 58.0795 77.2532C54.6322 75.7054 51.2651 73.4906 48.3231 70.5536C42.4278 64.7751 38.2906 55.9508 38.5741 46.3653C38.7203 41.6166 39.9154 36.7433 42.1787 32.3085C44.4493 27.8939 47.7448 23.7965 51.9532 20.7859C56.2278 17.706 61.1338 15.5629 66.1796 14.8289C71.2109 14.0544 76.3023 14.4667 80.927 15.8668C85.5517 17.2668 89.7702 19.6329 93.1422 22.6895C96.5345 25.7389 99.1726 29.3545 100.967 33.1582C102.781 36.9546 103.771 40.9319 104.079 44.7203C104.373 48.5361 103.89 52.1516 103.148 55.4264C101.488 61.9935 98.0896 66.9485 94.8585 70.2705L94.7922 70.3399L94.8211 70.4207C97.4791 78.9308 98.7349 82.9498 99.0706 84.0152C98.7551 82.9426 97.6001 78.8875 95.111 70.3398L95.0737 70.4899C98.3524 67.1736 101.859 62.2027 103.578 55.5461C104.346 52.2164 104.862 48.5663 104.566 44.6826C104.257 40.8263 103.265 36.7812 101.45 32.9169C99.6341 29.0526 96.9672 25.3561 93.5056 22.2403C90.0642 19.1174 85.7835 16.7051 81.0693 15.2459C76.3421 13.8141 71.1684 13.3629 66.0361 14.1735C60.8822 14.9234 55.8752 17.1027 51.5141 20.2591C47.212 23.3261 43.8502 27.4928 41.5277 32.0171C39.2125 36.5617 38.0189 41.5028 37.8685 46.367C37.7383 51.224 38.7249 55.955 40.5004 60.1528C42.276 64.3506 44.8477 68.0356 47.8647 70.9913C50.8615 73.9541 54.3108 76.208 57.8057 77.7615C58.7021 78.1019 59.5783 78.4495 60.4545 78.7971C61.3495 79.0696 62.2299 79.3017 63.1176 79.554C64.8655 80.0456 66.6147 80.286 68.3148 80.4528C75.1337 81.0449 81.0359 79.4572 85.3403 77.4154L85.1712 77.1339L84.9779 77.2943L85.1974 77.3981C93.8721 81.521 98.0485 83.5146 99.098 84.0282L99.1586 84.0065Z" fill="#02AA86"/>
<path d="M99.1586 84.0065L99.4955 84.9481L101.686 84.1644L99.61 83.1142L99.1586 84.0065ZM85.4078 77.0949L85.8569 76.2014L84.1974 75.3672L84.4146 77.2118L85.4078 77.0949ZM85.4412 77.3793L84.4481 77.4962L84.6659 79.3462L86.0875 78.1424L85.4412 77.3793ZM86.4204 76.5501L87.0666 77.3133L86.0064 75.6399L86.4204 76.5501ZM85.2448 77.0848L84.8308 76.1745L84.8277 76.1759L85.2448 77.0848ZM68.4125 79.9619L68.3094 80.9566L68.3194 80.9576L68.4125 79.9619ZM63.2961 79.0341L63.5736 78.0733L63.5642 78.0707L63.2961 79.0341ZM60.6807 78.283L60.3139 79.2133L60.3446 79.2254L60.376 79.2355L60.6807 78.283ZM58.0795 77.2532L57.6699 78.1655L57.6901 78.1745L57.7107 78.1827L58.0795 77.2532ZM48.3231 70.5536L49.0297 69.8459L49.0231 69.8395L48.3231 70.5536ZM38.5741 46.3653L37.5746 46.3346L37.5746 46.3358L38.5741 46.3653ZM42.1787 32.3085L41.2895 31.8511L41.288 31.854L42.1787 32.3085ZM51.9532 20.7859L52.535 21.5993L52.5377 21.5973L51.9532 20.7859ZM66.1796 14.8289L66.3236 15.8185L66.3317 15.8172L66.1796 14.8289ZM93.1422 22.6895L92.4706 23.4305L92.4737 23.4332L93.1422 22.6895ZM100.967 33.1582L100.062 33.5848L100.064 33.5894L100.967 33.1582ZM104.079 44.7203L105.076 44.6433L105.075 44.6394L104.079 44.7203ZM103.148 55.4264L104.118 55.6715L104.121 55.6595L104.123 55.6474L103.148 55.4264ZM94.8585 70.2705L94.1416 69.5733L94.1357 69.5795L94.8585 70.2705ZM94.7922 70.3399L94.0694 69.6488L93.6426 70.0952L93.8507 70.6768L94.7922 70.3399ZM94.8211 70.4207L95.7757 70.1226L95.7696 70.103L95.7627 70.0838L94.8211 70.4207ZM99.0706 84.0152L98.1168 84.3157L100.03 83.733L99.0706 84.0152ZM95.111 70.3398L96.0711 70.0602L95.0351 66.5025L94.1406 70.0983L95.111 70.3398ZM95.0737 70.4899L94.1033 70.2485L93.2239 73.7831L95.7848 71.193L95.0737 70.4899ZM103.578 55.5461L104.546 55.7961L104.55 55.7835L104.553 55.7708L103.578 55.5461ZM104.566 44.6826L105.563 44.6066L105.563 44.6027L104.566 44.6826ZM93.5056 22.2403L92.8336 22.9809L92.8366 22.9836L93.5056 22.2403ZM81.0693 15.2459L81.365 14.2906L81.3592 14.2888L81.0693 15.2459ZM66.0361 14.1735L66.1801 15.1631L66.1921 15.1612L66.0361 14.1735ZM51.5141 20.2591L52.0946 21.0734L52.1004 21.0692L51.5141 20.2591ZM41.5277 32.0171L40.6381 31.5605L40.6367 31.5632L41.5277 32.0171ZM37.8685 46.367L36.8689 46.3361L36.8688 46.3403L37.8685 46.367ZM47.8647 70.9913L48.5678 70.2801L48.5645 70.2769L47.8647 70.9913ZM57.8057 77.7615L57.3995 78.6753L57.4248 78.6866L57.4507 78.6964L57.8057 77.7615ZM60.4545 78.7971L60.0858 79.7266L60.124 79.7418L60.1632 79.7537L60.4545 78.7971ZM63.1176 79.554L62.8442 80.5159L62.8468 80.5167L63.1176 79.554ZM68.3148 80.4528L68.2171 81.4481L68.2283 81.4491L68.3148 80.4528ZM85.3403 77.4154L85.7689 78.3189L86.7657 77.846L86.1974 76.9003L85.3403 77.4154ZM85.1712 77.1339L86.0283 76.6189L85.4286 75.6208L84.5326 76.3644L85.1712 77.1339ZM84.9779 77.2943L84.3393 76.5247L83.1317 77.5269L84.5502 78.1982L84.9779 77.2943ZM85.1974 77.3981L85.6267 76.4949L85.6252 76.4942L85.1974 77.3981ZM99.098 84.0282L98.6585 84.9264L99.0376 85.1119L99.4349 84.9697L99.098 84.0282ZM99.61 83.1142C98.5791 82.5927 94.4388 80.5153 85.8569 76.2014L84.9586 77.9884C93.5446 82.3043 97.6793 84.3788 98.7071 84.8988L99.61 83.1142ZM84.4146 77.2118L84.4481 77.4962L86.4344 77.2623L86.4009 76.9779L84.4146 77.2118ZM86.0875 78.1424L87.0666 77.3133L85.7742 75.787L84.795 76.6161L86.0875 78.1424ZM86.0064 75.6399L84.8308 76.1745L85.6588 77.9951L86.8344 77.4604L86.0064 75.6399ZM84.8277 76.1759C80.6701 78.0839 75.0173 79.5752 68.5056 78.9662L68.3194 80.9576C75.2435 81.6051 81.2481 80.0192 85.6619 77.9937L84.8277 76.1759ZM68.5155 78.9672C66.8641 78.7961 65.2209 78.549 63.5735 78.0734L63.0187 79.9949C64.8269 80.517 66.6011 80.7796 68.3094 80.9566L68.5155 78.9672ZM63.5642 78.0707C62.6863 77.8265 61.836 77.6026 60.9853 77.3305L60.376 79.2355C61.2748 79.5229 62.1854 79.7631 63.0281 79.9976L63.5642 78.0707ZM61.0474 77.3527C60.1998 77.0185 59.3247 76.6713 58.4482 76.3237L57.7107 78.1827C58.5867 78.5302 59.4639 78.8783 60.3139 79.2133L61.0474 77.3527ZM58.4891 76.3409C55.144 74.839 51.8796 72.691 49.0297 69.8459L47.6166 71.2613C50.6505 74.2901 54.1203 76.5718 57.6699 78.1655L58.4891 76.3409ZM49.0231 69.8395C43.3109 64.2404 39.299 55.6797 39.5737 46.3949L37.5746 46.3358C37.2821 56.2219 41.5447 65.3097 47.6231 71.2678L49.0231 69.8395ZM39.5736 46.3961C39.7154 41.7908 40.8751 37.0628 43.0694 32.7631L41.288 31.854C38.9557 36.4239 37.7252 41.4424 37.5746 46.3346L39.5736 46.3961ZM43.068 32.7659C45.276 28.473 48.4729 24.5052 52.535 21.5993L51.3713 19.9726C47.0167 23.0878 43.6226 27.3149 41.2895 31.8511L43.068 32.7659ZM52.5377 21.5973C56.7005 18.598 61.458 16.5263 66.3235 15.8185L66.0356 13.8393C60.8097 14.5995 55.7552 16.8141 51.3686 19.9746L52.5377 21.5973ZM66.3317 15.8172C71.2121 15.066 76.1525 15.4662 80.6372 16.8239L81.2167 14.9097C76.452 13.4672 71.2097 13.0428 66.0274 13.8405L66.3317 15.8172ZM80.6372 16.8239C85.1273 18.1831 89.2136 20.4781 92.4706 23.4305L93.8138 21.9486C90.3267 18.7878 85.9761 16.3505 81.2167 14.9097L80.6372 16.8239ZM92.4737 23.4332C95.7663 26.393 98.3244 29.9005 100.062 33.5848L101.871 32.7316C100.021 28.8085 97.3027 25.0848 93.8108 21.9458L92.4737 23.4332ZM100.064 33.5894C101.823 37.2694 102.784 41.1271 103.082 44.8012L105.075 44.6394C104.758 40.7367 103.739 36.6399 101.869 32.727L100.064 33.5894ZM103.082 44.7973C103.366 48.4818 102.901 51.9919 102.173 55.2055L104.123 55.6474C104.879 52.3113 105.38 48.5904 105.076 44.6433L103.082 44.7973ZM102.179 55.1814C100.569 61.5478 97.2741 66.3527 94.1416 69.5733L95.5753 70.9678C98.9051 67.5443 102.407 62.4392 104.118 55.6715L102.179 55.1814ZM94.1357 69.5795L94.0694 69.6488L95.515 71.0309L95.5813 70.9616L94.1357 69.5795ZM93.8507 70.6768L93.8796 70.7576L95.7627 70.0838L95.7337 70.0029L93.8507 70.6768ZM93.8666 70.7188C96.5242 79.2278 97.7806 83.2488 98.1168 84.3157L100.024 83.7147C99.6892 82.6509 98.4339 78.6337 95.7757 70.1226L93.8666 70.7188ZM100.03 83.733C99.7141 82.6591 98.5635 78.6191 96.0711 70.0602L94.1509 70.6193C96.6367 79.1558 97.7961 83.2261 98.1112 84.2974L100.03 83.733ZM94.1406 70.0983L94.1033 70.2485L96.0441 70.7313L96.0814 70.5812L94.1406 70.0983ZM95.7848 71.193C99.1608 67.7784 102.775 62.6575 104.546 55.7961L102.61 55.296C100.944 61.7478 97.5441 66.5689 94.3626 69.7868L95.7848 71.193ZM104.553 55.7708C105.334 52.3828 105.87 48.6253 105.563 44.6065L103.569 44.7586C103.855 48.5073 103.358 52.05 102.604 55.3214L104.553 55.7708ZM105.563 44.6027C105.245 40.6341 104.225 36.4711 102.355 32.4916L100.545 33.3421C102.306 37.0912 103.269 41.0185 103.569 44.7625L105.563 44.6027ZM102.355 32.4916C100.484 28.5099 97.7379 24.7044 94.1746 21.4971L92.8366 22.9836C96.1964 26.0078 98.7842 29.5952 100.545 33.3421L102.355 32.4916ZM94.1776 21.4998C90.622 18.2732 86.2109 15.7906 81.365 14.2906L80.7736 16.2012C85.3561 17.6196 89.5064 19.9616 92.8336 22.9809L94.1776 21.4998ZM81.3592 14.2888C76.4962 12.8159 71.1701 12.3502 65.8801 13.1857L66.1921 15.1612C71.1667 14.3755 76.1879 14.8123 80.7794 16.203L81.3592 14.2888ZM65.8921 13.1839C60.5588 13.9599 55.4027 16.2102 50.9278 19.449L52.1004 21.0692C56.3478 17.9951 61.2055 15.8869 66.1801 15.163L65.8921 13.1839ZM50.9336 19.4449C46.4848 22.6163 43.0236 26.9131 40.6381 31.5605L42.4173 32.4738C44.6767 28.0725 47.9391 24.0358 52.0946 21.0734L50.9336 19.4449ZM40.6367 31.5632C38.2517 36.2446 37.0237 41.331 36.869 46.3361L38.868 46.398C39.014 41.6747 40.1732 36.8788 42.4187 32.4711L40.6367 31.5632ZM36.8688 46.3403C36.7346 51.3485 37.7517 56.221 39.5794 60.5423L41.4214 59.7632C39.6981 55.6889 38.742 51.0995 38.8681 46.3938L36.8688 46.3403ZM39.5794 60.5423C41.4076 64.8646 44.0555 68.6594 47.1649 71.7056L48.5645 70.2769C45.64 67.4118 43.1444 63.8366 41.4214 59.7632L39.5794 60.5423ZM47.1616 71.7024C50.25 74.7558 53.8017 77.076 57.3995 78.6753L58.2119 76.8477C54.8198 75.3399 51.473 73.1525 48.5678 70.2801L47.1616 71.7024ZM57.4507 78.6964C58.3391 79.0337 59.2085 79.3786 60.0858 79.7266L60.8233 77.8676C59.9481 77.5204 59.0651 77.1701 58.1607 76.8266L57.4507 78.6964ZM60.1632 79.7537C61.0685 80.0294 61.9822 80.2709 62.8442 80.5159L63.391 78.5921C62.4776 78.3325 61.6304 78.1098 60.7458 77.8405L60.1632 79.7537ZM62.8468 80.5167C64.6776 81.0316 66.4939 81.279 68.2171 81.4481L68.4124 79.4576C66.7356 79.2931 65.0534 79.0597 63.3883 78.5914L62.8468 80.5167ZM68.2283 81.4491C75.2517 82.0589 81.3312 80.424 85.7689 78.3189L84.9117 76.5119C80.7407 78.4905 75.0156 80.0309 68.4013 79.4566L68.2283 81.4491ZM86.1974 76.9003L86.0283 76.6189L84.314 77.649L84.4831 77.9305L86.1974 76.9003ZM84.5326 76.3644L84.3393 76.5247L85.6165 78.0638L85.8097 77.9035L84.5326 76.3644ZM84.5502 78.1982L84.7697 78.302L85.6252 76.4942L85.4057 76.3904L84.5502 78.1982ZM84.7682 78.3013C93.4465 82.4259 97.6156 84.4161 98.6585 84.9264L99.5376 83.1299C98.4814 82.6131 94.2978 80.6161 85.6267 76.4949L84.7682 78.3013ZM99.4349 84.9697L99.4955 84.9481L98.8216 83.065L98.7611 83.0866L99.4349 84.9697Z" fill="#F3F3F3" mask="url(#path-274-inside-1_40000742_13818)"/>
<path d="M62.5956 56.8992L62.617 56.8991C63.3698 57.4976 65.175 58.5005 65.175 58.5005L75.2348 64.6704C76.503 65.4603 78.174 64.7893 78.5767 63.3498L81.8201 51.7907C82.0741 50.7809 82.4149 50.0285 82.5619 49.105L82.5617 49.0406C83.0029 46.2487 82.5425 43.288 80.8817 40.5674C78.2501 36.2188 73.0511 33.875 68.0562 34.8361C60.1244 36.3437 55.883 44.5147 58.674 51.6533C59.5178 53.797 60.8965 55.5525 62.5741 56.8778L62.5956 56.8992ZM65.1649 49.0558C64.0615 46.226 65.4452 43.0446 68.2731 41.9404C71.1009 40.8362 74.2803 42.2208 75.3837 45.0506C76.4872 47.8803 75.1034 51.0618 72.2756 52.166C69.4477 53.2702 66.2684 51.8855 65.1649 49.0558Z" fill="#02AA86"/>
<path d="M127.38 43.4746C126.694 40.8988 124.763 39.6323 122.232 38.7737C119.722 37.9151 116.784 38.3874 114.66 39.9973C113.244 41.0705 112.129 42.6375 110.456 43.2385C107.688 44.2044 104.449 42.1223 101.789 43.3673C100.223 44.0971 99.3012 46.029 99.7302 47.7032C100.159 49.3775 101.854 50.6655 103.591 50.5796C101.789 51.245 101.232 53.8208 102.283 55.4307C103.334 57.0406 105.5 57.6416 107.41 57.2982C109.297 56.9547 110.949 55.7956 112.386 54.5077C113.823 53.2198 115.11 51.7602 116.633 50.601C118.156 49.4419 120.023 48.5404 121.932 48.6477C124.527 48.798 126.758 50.7513 127.917 53.091C129.075 55.4307 129.354 58.0924 129.483 60.6897C129.633 63.287 129.676 65.9487 130.448 68.4386C130.534 68.7391 130.684 69.0611 130.963 69.147C131.392 69.2758 131.735 68.825 131.949 68.4386C134.309 64.0383 135.811 59.1871 136.325 54.2072C136.626 51.3309 136.54 48.5833 134.952 46.1578C133.365 43.7322 129.354 41.9506 127.402 43.4746" fill="#1A2E35"/>
<path d="M132.418 55.5654L133.748 84.758C133.984 89.7165 133.298 97.0575 125.425 97.0575C118.604 96.5424 116.588 90.1672 116.373 85.5308C116.266 83.3413 116.18 81.4953 116.159 81.2806C116.159 81.2806 108.694 80.9157 107.836 73.5961C107.407 70.0543 107.149 62.6918 106.978 56.0161C106.785 48.8468 112.147 42.7507 119.269 41.9994L119.977 41.9135C127.656 41.5486 132.268 47.8594 132.418 55.5654Z" fill="#FFC19D"/>
<path d="M116.158 81.1725C116.158 81.1725 120.834 81.0651 125.425 77.4375C125.425 77.4375 123.73 82.9541 116.33 83.0829L116.137 81.1725H116.158Z" fill="#FF9C6A"/>
<path d="M108.87 61.4603C108.913 62.018 109.406 62.447 109.985 62.4041C110.565 62.3827 110.994 61.8893 110.972 61.3531C110.929 60.7953 110.436 60.3663 109.857 60.4092C109.277 60.4307 108.827 60.924 108.87 61.4603Z" fill="#1A2E35"/>
<path d="M108.934 59.4226C109.084 59.5513 109.813 58.8649 110.929 58.7577C112.044 58.629 112.945 59.1223 113.052 58.9722C113.095 58.9078 112.945 58.6719 112.559 58.4574C112.173 58.2428 111.551 58.0498 110.843 58.1141C110.135 58.1999 109.578 58.5217 109.277 58.822C108.955 59.1223 108.87 59.3797 108.934 59.4441V59.4226Z" fill="#1A2E35"/>
<path d="M119.979 60.6634C120.022 61.2211 120.516 61.6502 121.095 61.6073C121.674 61.5858 122.103 61.0924 122.082 60.5562C122.039 59.9984 121.545 59.5694 120.966 59.6123C120.387 59.6338 119.936 60.1271 119.979 60.6634Z" fill="#1A2E35"/>
<path d="M120.045 58.4539C120.195 58.5826 120.925 57.8962 122.04 57.7889C123.156 57.6602 124.057 58.1536 124.164 58.0034C124.207 57.9391 124.057 57.7031 123.67 57.4886C123.284 57.2741 122.662 57.081 121.954 57.1454C121.247 57.2312 120.689 57.553 120.367 57.8533C120.045 58.1536 119.959 58.411 120.024 58.4753L120.045 58.4539Z" fill="#1A2E35"/>
<path d="M116.85 67.2577C116.85 67.2577 116.143 67.1504 114.984 67.1289C114.684 67.1289 114.405 67.1074 114.341 66.9143C114.255 66.7211 114.341 66.3991 114.448 66.0342C114.641 65.3044 114.855 64.5531 115.07 63.7589C115.928 60.5176 116.507 57.856 116.379 57.813C116.25 57.7701 115.456 60.3888 114.598 63.6301C114.405 64.4243 114.191 65.197 114.019 65.9269C113.955 66.2703 113.804 66.6567 113.997 67.0645C114.105 67.2792 114.319 67.408 114.512 67.4294C114.705 67.4724 114.856 67.4509 115.006 67.4294C116.164 67.365 116.872 67.3006 116.872 67.2362L116.85 67.2577Z" fill="#1A2E35"/>
<path d="M119.292 54.0842C119.443 54.3845 120.537 54.1056 121.888 54.1271C123.218 54.1271 124.333 54.3845 124.483 54.1057C124.548 53.9555 124.333 53.6981 123.861 53.4407C123.411 53.1833 122.682 52.9902 121.888 52.9688C121.094 52.9688 120.365 53.1618 119.914 53.4192C119.443 53.6766 119.228 53.934 119.292 54.0842Z" fill="#1A2E35"/>
<path d="M109.015 56.1185C109.251 56.3544 109.98 56.0112 110.924 55.8825C111.847 55.7324 112.662 55.8825 112.812 55.5822C112.876 55.4535 112.726 55.1961 112.361 55.003C111.997 54.7885 111.396 54.6598 110.774 54.7456C110.13 54.8314 109.594 55.1317 109.315 55.4321C109.015 55.7324 108.929 56.0112 109.036 56.1185H109.015Z" fill="#1A2E35"/>
<path d="M132.402 61.059C132.531 60.9946 137.293 59.0198 137.658 64.0641C138.022 69.1085 132.896 68.443 132.874 68.2928C132.874 68.1425 132.402 61.059 132.402 61.059Z" fill="#FFC19D"/>
<path d="M134.268 66.2757C134.268 66.2757 134.353 66.3401 134.503 66.383C134.654 66.4474 134.911 66.4689 135.169 66.3401C135.683 66.1039 136.069 65.2239 136.027 64.3223C136.027 63.8716 135.876 63.4423 135.683 63.0774C135.512 62.7125 135.254 62.4763 134.975 62.4549C134.697 62.4119 134.525 62.5837 134.482 62.7339C134.418 62.8842 134.482 62.97 134.439 62.9915C134.439 62.9915 134.332 62.9056 134.353 62.7124C134.353 62.6051 134.418 62.4978 134.525 62.3905C134.632 62.2831 134.804 62.2188 134.997 62.2188C135.383 62.2188 135.769 62.5407 135.962 62.9271C136.198 63.3135 136.348 63.7857 136.37 64.3009C136.413 65.3097 135.962 66.2971 135.254 66.5762C134.911 66.705 134.611 66.6191 134.439 66.5118C134.268 66.4045 134.246 66.2971 134.246 66.2757H134.268Z" fill="#FF9C6A"/>
<path d="M105.266 54.6402C108.591 55.1553 112.13 53.9533 114.447 51.5062C116.077 49.8105 117.214 47.4708 119.38 46.5478C120.839 45.9253 122.534 46.0755 124.014 46.6766C125.494 47.2776 126.716 48.3294 127.81 49.4885C126.781 53.3737 128.175 57.4306 129.569 61.2085C129.72 61.6163 129.891 62.0671 130.277 62.3032C130.921 62.6896 131.779 62.2388 132.229 61.6378C132.959 60.6719 133.152 59.4269 133.238 58.2248C133.431 55.4773 133.195 52.6868 132.315 50.0895C131.436 47.4922 129.87 45.0881 127.703 43.4139C124.979 41.3103 121.397 40.4517 117.986 40.881C114.575 41.3103 111.379 42.9416 108.869 45.2813C107.711 46.3761 106.66 47.6425 106.167 49.1665" fill="#1A2E35"/>
<path d="M116.506 70.4659C116.677 70.9167 116.87 71.3675 117.149 71.7324C117.449 72.1187 117.878 72.3978 118.35 72.4407C118.865 72.4622 119.359 72.1617 119.637 71.7324C119.916 71.3031 120.024 70.7879 120.002 70.2727C120.002 69.822 119.766 69.2639 119.316 69.1995C119.123 69.178 118.93 69.2424 118.758 69.3283C117.964 69.6502 117.149 69.9722 116.355 70.2942" fill="#FF9C6A"/>
<path d="M117.45 72.4416C117.45 72.4416 117.986 72.5704 118.737 72.2913C119.101 72.1411 119.487 71.8621 119.702 71.4113C119.916 70.9605 119.959 70.3595 119.723 69.8443C119.68 69.7155 119.595 69.5867 119.509 69.4794C119.423 69.3721 119.423 69.3936 119.337 69.3936C119.23 69.415 119.08 69.5009 118.951 69.5438L118.565 69.6941C118.05 69.9087 117.578 70.0804 117.192 70.2307C116.398 70.5312 115.905 70.6815 115.884 70.6171C115.862 70.5527 116.313 70.3166 117.063 69.9516C117.45 69.7585 117.9 69.5653 118.393 69.3292L118.779 69.1574C118.93 69.093 119.037 69.0287 119.209 68.9857C119.294 68.9643 119.444 68.9428 119.573 68.9857C119.702 69.0287 119.788 69.1145 119.831 69.2004C119.938 69.3506 120.024 69.5009 120.109 69.6511C120.388 70.3166 120.324 71.0464 120.045 71.583C119.745 72.1411 119.251 72.4416 118.822 72.5704C118.393 72.6992 118.007 72.6777 117.771 72.6133C117.535 72.5489 117.428 72.4631 117.428 72.4416H117.45Z" fill="#1A2E35"/>
<path d="M145.635 189.124L107.517 245.063L86.9024 293.96L69.4414 284.623L87.074 235.64L113.03 184.188L145.635 189.124Z" fill="#1A2E35"/>
<path d="M161.401 184.188L167.75 229.221L193.792 286.018L178.283 295.055L145.184 238.731L126.801 184.188H161.401Z" fill="#1A2E35"/>
<path d="M110.608 159.825L111.895 140.506L116.786 94.9573L115.049 85.4482L134.312 77.7422L136.628 82.3787C148.212 84.1174 153.081 106.978 153.081 106.978L153.489 153.45L166.338 184.961L163.013 187.902C157.757 191.057 108.699 189.061 108.699 189.061L110.63 159.825H110.608Z" fill="#5DC099"/>
<g opacity="0.3">
<path d="M161.401 172.855C157.926 177.256 154.237 180.755 149.753 184.125C147.351 185.928 144.519 187.623 141.581 187.151C138.728 186.7 136.604 184.339 134.716 182.128C131.198 177.986 127.68 173.843 124.184 169.679C123.583 168.97 122.961 168.219 122.833 167.317C122.64 166.137 123.347 164.956 124.313 164.269C125.278 163.582 126.479 163.303 127.659 163.175C135.06 162.295 142.289 165.987 149.753 166.051C152.306 166.072 156.446 165.557 158.849 166.394L161.423 172.877" fill="black"/>
</g>
<path d="M121.678 142.525C117.731 146.389 117.13 152.528 120.262 157.1L126.848 166.76L136.415 179.231C139.16 182.816 144.437 183.181 147.655 180.004L191.286 146.368C194.053 144.221 194.654 140.272 192.616 137.417L174.855 112.431C172.752 109.491 168.677 108.804 165.738 110.907L121.678 142.525Z" fill="#375A64"/>
<path d="M144.266 181.911C144.266 181.911 144.223 181.825 144.138 181.675L143.751 181.009C143.408 180.451 142.872 179.614 142.185 178.541C140.813 176.416 138.775 173.368 136.222 169.611C133.691 165.855 130.645 161.39 127.341 156.41C126.548 155.144 125.668 153.877 125.025 152.482C124.724 151.774 124.489 151.023 124.531 150.271C124.574 149.52 124.875 148.79 125.368 148.168C126.333 146.923 127.792 146.043 129.143 145.055C130.516 144.089 131.91 143.08 133.305 142.093C144.545 134.065 154.734 126.81 162.113 121.529C165.781 118.889 168.742 116.764 170.822 115.262C171.831 114.532 172.624 113.952 173.182 113.544L173.783 113.094C173.911 112.986 173.976 112.943 173.976 112.922C173.976 112.922 173.89 112.965 173.761 113.051L173.139 113.48C172.56 113.866 171.766 114.424 170.737 115.133C168.634 116.614 165.653 118.696 161.963 121.293C154.563 126.552 144.352 133.765 133.069 141.771L128.907 144.733C127.556 145.721 126.097 146.579 125.046 147.932C124.531 148.597 124.167 149.413 124.145 150.271C124.102 151.108 124.36 151.924 124.682 152.654C125.347 154.114 126.226 155.38 127.041 156.625C130.366 161.626 133.433 166.048 135.986 169.783C141.134 177.253 144.245 181.911 144.245 181.911H144.266Z" fill="#1A2E35"/>
<path d="M127.704 83.8988C127.704 83.8988 140.081 77.3304 158.808 107.038L155.483 110.902C155.483 110.902 139.867 83.4051 129.528 86.7322C119.21 90.0593 134.354 133.397 134.354 133.397C134.354 133.397 111.659 90.1881 127.683 83.8988H127.704Z" fill="#1A2E35"/>
<path d="M169.102 117.324C174.336 122.69 175.366 131.04 171.269 137.329C171.119 137.544 170.99 137.759 170.84 137.952L154.001 164.139L139.886 155.446L153.55 130.654C153.55 130.654 147.201 124.085 140.294 116.723C130.984 106.784 121.074 94.592 128.174 87.5729C128.174 87.5729 133.022 83.7307 140.444 89.5048C145.828 93.669 161.058 109.103 169.081 117.345L169.102 117.324Z" fill="#5DC099"/>
<path d="M80.3406 98.7158L72.983 96.8913C72.983 96.8913 70.9882 98.6729 72.0178 100.519C73.0475 102.365 74.7635 107.023 74.7635 107.023L80.448 108.847L82.0568 113.462L91.8384 109.298L89.2213 100.648L83.7299 93.8647L79.5899 93.2422L76.8013 95.6034C76.8013 95.6034 79.118 97.2991 80.6839 95.4746L82.5931 96.2044L82.4214 97.342C82.2713 98.3509 81.2846 98.9949 80.2978 98.7587L80.3406 98.7158Z" fill="#FFC19D"/>
<path d="M73.0264 97.1599L68.2215 94.8202C68.2215 94.8202 67.0845 94.4768 66.4195 95.1637L66.1836 95.6574L71.9324 99.4138L73.0479 97.1385L73.0264 97.1599Z" fill="#FFC19D"/>
<path d="M83.1288 104.654C83.1288 104.654 82.9571 104.161 82.6353 103.431C82.3136 102.701 81.8632 101.649 81.9061 100.469C81.9061 99.8678 82.0777 99.3311 82.3351 98.8804C82.4638 98.6443 82.5925 98.4081 82.6568 98.172C82.7426 97.9144 82.7427 97.6568 82.7427 97.4637C82.7427 96.6265 82.6354 96.1328 82.5711 96.1328C82.5067 96.1328 82.5067 96.648 82.4424 97.4422C82.4424 97.85 82.2707 98.2149 81.9918 98.6872C81.6915 99.1594 81.4985 99.7819 81.4985 100.447C81.4556 101.757 81.9918 102.851 82.3779 103.56C82.7855 104.268 83.0859 104.676 83.1288 104.654Z" fill="#FF9C6A"/>
<path d="M61.3772 87.1152C61.3129 87.244 60.3047 88.7251 60.3047 88.7251L82.2274 104.867L83.6003 103.107L61.3772 87.0938V87.1152Z" fill="#1A2E35"/>
<path d="M74.8893 106.676C74.4388 106.182 74.7176 105.346 75.2539 104.981C75.7902 104.616 76.4981 104.573 77.1416 104.552C78.2141 104.531 79.2867 104.509 80.3377 104.724C80.681 104.788 81.0457 104.895 81.3031 105.131C81.5819 105.367 81.7321 105.753 81.6034 106.075C81.4533 106.483 80.9599 106.633 80.5523 106.719C79.4154 106.933 78.2571 107.04 77.0988 106.997" fill="#FFC19D"/>
<path d="M77.0991 106.972C77.0991 106.972 77.8927 107.144 79.1583 107.058C79.48 107.037 79.8232 106.994 80.2093 106.951C80.574 106.887 81.003 106.865 81.4106 106.608C81.6251 106.479 81.7967 106.243 81.8396 105.964C81.8825 105.685 81.7753 105.407 81.6252 105.192C81.2819 104.742 80.7242 104.613 80.2523 104.527C79.2655 104.355 78.3432 104.355 77.4852 104.377C76.67 104.398 75.8334 104.441 75.2542 104.827C74.6536 105.214 74.5249 105.857 74.5892 106.222C74.6536 106.608 74.8681 106.737 74.8895 106.715C74.911 106.715 74.7608 106.543 74.7608 106.2C74.7608 105.878 74.911 105.364 75.4258 105.063C75.9406 104.763 76.6914 104.742 77.528 104.742C78.3645 104.742 79.2655 104.742 80.2093 104.913C80.6598 104.999 81.1103 105.128 81.3463 105.428C81.5822 105.728 81.5394 106.114 81.2391 106.308C80.9387 106.501 80.5526 106.565 80.188 106.629C79.8233 106.694 79.48 106.758 79.1797 106.801C77.9356 106.951 77.1419 106.951 77.1419 107.015L77.0991 106.972Z" fill="#FF9C6A"/>
<path d="M73.0469 102.188C74.7844 101.758 76.05 101.587 77.7876 101.157C78.3667 101.007 78.9674 100.878 79.5251 101.115C80.0614 101.351 80.4045 102.102 80.0184 102.531C79.8683 102.682 79.6752 102.767 79.4821 102.832C77.7446 103.519 76.0071 104.206 74.2481 104.892" fill="#FFC19D"/>
<path d="M74.2485 104.887C74.2485 104.887 75.0423 104.694 76.2864 104.243L78.453 103.427C78.8605 103.277 79.2895 103.105 79.74 102.934C79.9759 102.848 80.2547 102.633 80.3405 102.311C80.4263 101.989 80.3406 101.689 80.1905 101.431C80.0403 101.195 79.8044 100.98 79.5255 100.873C79.2681 100.787 78.9891 100.766 78.7317 100.766C78.2169 100.809 77.7665 100.937 77.3589 101.045L75.1066 101.56C73.8196 101.86 73.0258 102.096 73.0473 102.161C73.0473 102.225 73.8624 102.054 75.1709 101.839C75.8144 101.732 76.5867 101.581 77.4447 101.41C77.8737 101.324 78.3242 101.195 78.7532 101.173C79.2036 101.152 79.6327 101.259 79.8472 101.646C79.9544 101.817 79.9973 102.032 79.9544 102.204C79.9115 102.376 79.7828 102.483 79.5683 102.569C79.1393 102.74 78.7104 102.912 78.3028 103.084C77.5306 103.406 76.8012 103.706 76.1577 103.964C74.935 104.479 74.2056 104.823 74.2271 104.887H74.2485Z" fill="#FF9C6A"/>
<path d="M71.9102 99.4321C73.6906 99.1101 74.8704 98.8955 76.6508 98.5735C77.23 98.4662 77.8521 98.3803 78.3884 98.6379C78.9032 98.8955 79.2035 99.6897 78.7745 100.098C78.6243 100.248 78.4098 100.312 78.2167 100.377C76.4363 100.956 74.6559 101.514 72.8755 102.094" fill="#FFC19D"/>
<path d="M72.8734 102.096C72.8734 102.096 73.6886 101.946 74.9542 101.581C75.6192 101.388 76.3699 101.152 77.1635 100.916L78.472 100.508C78.708 100.422 79.0084 100.25 79.1157 99.9497C79.2229 99.6492 79.1799 99.3272 79.0298 99.0696C78.9011 98.812 78.6866 98.5759 78.4077 98.4686C78.1503 98.3398 77.8715 98.3183 77.6355 98.2969C77.1207 98.2969 76.6702 98.4042 76.2412 98.4901L73.9674 98.9408C72.6803 99.2199 71.8867 99.4131 71.8867 99.456C71.8867 99.5204 72.7018 99.4131 74.0103 99.2199C74.6968 99.1126 75.469 98.9838 76.2841 98.855C76.7131 98.7906 77.1636 98.6833 77.5926 98.7047C78.0216 98.7047 78.4506 98.855 78.6437 99.2628C79.1585 100.207 77.7427 100.272 77.0134 100.594L74.8255 101.345C73.5813 101.774 72.8304 102.075 72.8304 102.139L72.8734 102.096Z" fill="#FF9C6A"/>
<path d="M81.5195 112.804L95.7843 143.285C97.1357 146.182 99.8814 148.179 103.035 148.586C107.132 149.123 111.1 146.869 112.752 143.07L123.392 118.685L117.342 92.3906L103.056 123.064L91.3654 106.493L81.5195 112.804Z" fill="#5DC099"/>
<path d="M107.263 133.372C107.263 133.372 106.533 130.925 105.418 128.006C104.302 125.086 103.294 122.747 103.208 122.79C103.101 122.833 103.938 125.237 105.053 128.156C106.169 131.075 107.177 133.415 107.263 133.372Z" fill="#1A2E35"/>
<path d="M110.412 159.503C110.412 159.503 110.455 159.288 110.498 158.859C110.541 158.387 110.605 157.764 110.669 156.97C110.82 155.296 111.013 152.934 111.27 150.037C111.785 144.134 112.471 136.063 113.265 127.155C114.08 118.225 114.874 110.133 115.517 104.294C115.839 101.396 116.118 99.0568 116.311 97.3825L116.526 95.4936C116.569 95.0643 116.59 94.8281 116.568 94.8281C116.568 94.8281 116.504 95.0428 116.44 95.4721L116.139 97.3396C115.903 98.9709 115.582 101.332 115.217 104.251C114.509 110.09 113.651 118.182 112.836 127.112C112.021 136.041 111.399 144.155 110.97 150.015C110.777 152.913 110.627 155.296 110.498 156.97L110.391 158.859C110.391 159.288 110.391 159.524 110.391 159.503H110.412Z" fill="#1A2E35"/>
<path d="M142.824 157.188L140.958 161.073C140.958 161.073 137.268 161.523 135.745 162.232C134.222 162.94 128.731 167.705 128.731 167.705C128.731 167.705 129.396 169.079 130.833 168.671C131.477 168.478 134.308 166.332 134.308 166.332C135.617 166.525 136.282 168.07 135.531 169.165C134.437 170.796 133.171 172.707 133.064 172.986C132.935 173.286 130.511 174.317 128.709 175.047C127.615 175.476 127.744 177.214 128.902 177.386C129.031 177.386 129.138 177.386 129.224 177.343C129.224 177.343 128.345 179.189 131.541 178.653C131.541 178.653 133.665 180.091 135.295 179.211C135.295 179.211 138.298 179.898 139.649 179.447C140.979 178.996 146.514 171.204 146.514 171.204L151.319 162.489L142.824 157.188Z" fill="#FFC19D"/>
<path d="M137.824 171.186C137.824 171.186 137.653 171.809 137.202 172.753C136.73 173.676 136.023 174.985 134.693 175.951C133.363 176.896 131.883 177.11 130.874 177.218C129.866 177.304 129.223 177.304 129.223 177.239C129.223 177.175 129.845 177.089 130.831 176.917C131.818 176.724 133.213 176.467 134.435 175.586C135.658 174.685 136.387 173.461 136.923 172.581C137.438 171.701 137.76 171.143 137.824 171.165V171.186Z" fill="#FF9C6A"/>
<path d="M139.414 172.967C139.414 172.967 139.349 173.59 138.92 174.427C138.706 174.856 138.405 175.35 138.041 175.844C137.655 176.337 137.226 176.917 136.561 177.303C135.917 177.668 135.252 177.84 134.651 178.012L133.086 178.42C132.185 178.656 131.627 178.763 131.605 178.699C131.605 178.634 132.12 178.42 133 178.119C133.429 177.969 133.965 177.797 134.544 177.604C135.123 177.411 135.767 177.217 136.346 176.896C136.925 176.574 137.354 176.037 137.719 175.586C138.084 175.114 138.405 174.642 138.641 174.255C139.135 173.461 139.349 172.924 139.414 172.946V172.967Z" fill="#FF9C6A"/>
<path d="M141.063 175.196C141.213 175.304 140.227 176.699 138.94 178.287C138.746 178.566 138.468 178.652 138.253 178.781C138.017 178.888 137.803 178.974 137.588 179.039C137.159 179.167 136.752 179.253 136.408 179.296C135.722 179.382 135.293 179.296 135.293 179.232C135.293 179.167 135.701 179.146 136.344 178.974C136.666 178.888 137.03 178.781 137.438 178.631C137.631 178.566 137.846 178.481 138.06 178.373C138.253 178.266 138.489 178.159 138.575 178.008C139.218 177.193 139.84 176.484 140.269 175.991C140.72 175.475 140.977 175.175 141.02 175.196H141.063Z" fill="#FF9C6A"/>
<path d="M118.521 84.219C118.414 84.2404 118.735 85.9362 119.1 88.0183C119.465 90.1004 119.722 91.8176 119.851 91.7962C119.958 91.7962 119.851 90.0575 119.508 87.9539C119.143 85.8503 118.65 84.1975 118.542 84.219H118.521Z" fill="#1A2E35"/>
<path d="M124.44 86.5602C124.44 86.5602 124.332 85.5513 123.968 84.3922C123.603 83.2331 123.217 82.3101 123.11 82.353C123.002 82.3959 123.217 83.3619 123.582 84.521C123.946 85.6801 124.333 86.6031 124.44 86.5602Z" fill="#1A2E35"/>
<path d="M128.792 84.4242C128.792 84.4242 128.556 83.5227 128.041 82.5138C127.527 81.505 127.033 80.7322 126.926 80.7751C126.819 80.8181 127.162 81.6767 127.677 82.6855C128.191 83.6944 128.685 84.4671 128.792 84.4242Z" fill="#1A2E35"/>
<path d="M134.52 83.7766C134.52 83.7766 133.919 82.6604 132.997 81.4369C132.074 80.2133 131.238 79.2903 131.152 79.3547C131.066 79.4191 131.752 80.4709 132.675 81.6944C133.597 82.918 134.434 83.841 134.52 83.7766Z" fill="#1A2E35"/>
<path d="M153.466 130.887C153.466 130.887 153.959 130.5 154.753 129.964C155.546 129.405 156.726 128.762 158.121 128.332C159.536 127.924 160.888 127.817 161.853 127.86C162.818 127.903 163.419 128.01 163.44 127.946C163.44 127.903 162.883 127.688 161.874 127.581C160.888 127.474 159.493 127.517 158.013 127.946C156.555 128.375 155.353 129.105 154.581 129.727C153.809 130.35 153.444 130.865 153.466 130.887Z" fill="#1A2E35"/>
<path d="M157.604 121.031C157.604 121.031 157.068 121.375 156.36 122.126C155.674 122.877 154.816 124.036 154.172 125.475C153.529 126.913 153.228 128.308 153.121 129.338C153.014 130.369 153.078 130.991 153.121 130.991C153.25 130.991 153.25 128.437 154.537 125.646C155.781 122.834 157.69 121.117 157.583 121.031H157.604Z" fill="#1A2E35"/>
<path d="M139.8 155.249C139.8 155.249 139.907 155.099 140.1 154.777L140.916 153.403C141.623 152.158 142.61 150.419 143.854 148.252C146.343 143.83 149.753 137.734 153.636 130.822L153.7 130.693L153.593 130.586C152.628 129.577 151.619 128.504 150.59 127.43C144.412 120.969 138.835 115.109 134.759 110.859C132.743 108.777 131.091 107.081 129.933 105.858L128.603 104.505C128.302 104.205 128.131 104.055 128.109 104.055C128.109 104.055 128.238 104.248 128.538 104.57L129.804 105.965L134.545 111.052C138.599 115.345 144.155 121.227 150.29 127.709C151.319 128.783 152.327 129.856 153.293 130.865V130.629C149.432 137.562 146.064 143.679 143.597 148.123C142.417 150.312 141.452 152.072 140.765 153.339C140.444 153.94 140.208 154.391 140.015 154.755C139.843 155.077 139.757 155.249 139.779 155.249H139.8Z" fill="#1A2E35"/>
<g opacity="0.3">
<path d="M147.201 124.147L141.71 128.097C141.088 127.86 140.101 126.937 139.715 126.401C135.596 120.627 132.55 114.08 130.812 107.211L147.222 124.147H147.201Z" fill="black"/>
</g>
<path d="M139.241 115.451C139.241 115.451 139.198 114.206 140.142 112.532C140.614 111.716 141.322 110.814 142.33 110.042C143.317 109.269 144.561 108.625 145.912 108.088C147.264 107.53 148.615 107.165 149.816 106.693C151.017 106.221 152.047 105.577 152.691 104.826C153.356 104.074 153.656 103.301 153.742 102.765C153.828 102.207 153.742 101.906 153.742 101.906C153.699 101.906 153.742 102.207 153.592 102.722C153.463 103.237 153.141 103.945 152.476 104.632C151.833 105.319 150.846 105.92 149.666 106.35C148.486 106.8 147.135 107.165 145.741 107.723C144.368 108.26 143.081 108.947 142.073 109.763C141.043 110.578 140.313 111.523 139.863 112.403C139.413 113.283 139.241 114.077 139.198 114.614C139.155 115.172 139.198 115.472 139.22 115.451H139.241Z" fill="#F5F5F5"/>
<path d="M114.035 118.906C114.035 118.906 114.4 118.885 115.065 118.842C115.73 118.799 116.674 118.778 117.853 118.842C119.033 118.928 120.428 119.121 121.972 119.357C123.516 119.593 125.233 119.851 127.077 119.851C128.901 119.851 130.681 119.55 132.118 118.863C133.577 118.177 134.649 117.146 135.314 116.137C135.979 115.128 136.258 114.163 136.301 113.476C136.323 113.132 136.323 112.875 136.301 112.703C136.301 112.531 136.258 112.445 136.258 112.445C136.215 112.445 136.258 112.81 136.151 113.454C136.044 114.098 135.765 115.021 135.078 115.966C134.413 116.91 133.341 117.855 131.947 118.52C130.552 119.164 128.836 119.443 127.056 119.443C125.254 119.443 123.559 119.207 122.015 118.992C120.47 118.778 119.055 118.606 117.853 118.563C116.652 118.52 115.687 118.563 115.043 118.67C114.378 118.756 114.035 118.885 114.035 118.885V118.906Z" fill="#F5F5F5"/>
<path d="M108.871 111.715C108.871 111.715 109.6 113.196 111.209 114.377C112.818 115.579 114.427 115.944 114.448 115.836C114.491 115.729 112.99 115.214 111.445 114.055C109.901 112.917 108.978 111.629 108.871 111.715Z" fill="#F5F5F5"/>
<path d="M106.658 116.91C106.658 116.91 107.666 118.734 109.747 120.194C111.806 121.675 113.866 122.126 113.866 122.018C113.909 121.889 111.978 121.288 109.962 119.872C107.945 118.455 106.744 116.824 106.637 116.91H106.658Z" fill="#F5F5F5"/>
<path d="M113.027 127.539C113.027 127.539 114.572 126.423 117.511 126.144C118.969 125.994 120.707 126.037 122.659 126.144C124.589 126.273 126.756 126.359 129.008 126.101C133.534 125.607 137.396 124.04 139.948 122.559C141.235 121.829 142.2 121.121 142.865 120.627C143.509 120.112 143.852 119.812 143.831 119.79C143.831 119.769 143.445 120.026 142.78 120.499C142.093 120.949 141.107 121.615 139.819 122.323C137.267 123.718 133.427 125.242 128.965 125.715C126.756 125.972 124.611 125.886 122.68 125.779C120.728 125.672 118.969 125.65 117.489 125.843C116.009 126.037 114.851 126.445 114.121 126.831C113.757 127.003 113.478 127.196 113.306 127.325C113.135 127.453 113.027 127.518 113.049 127.539H113.027Z" fill="#F5F5F5"/>
<path d="M142.395 118.095C142.395 118.095 142.437 118.267 142.566 118.632L142.63 118.782L142.695 118.632C142.931 118.031 143.682 116.893 145.183 116.056C145.934 115.627 146.835 115.305 147.822 115.004C148.83 114.704 149.924 114.446 151.039 114.06C153.828 113.051 155.93 111.269 157.131 109.809C157.753 109.08 158.182 108.436 158.44 107.963C158.697 107.491 158.826 107.234 158.804 107.212C158.74 107.169 158.182 108.221 156.917 109.616C155.673 111.012 153.592 112.686 150.889 113.673C149.795 114.06 148.722 114.317 147.714 114.639C146.706 114.94 145.784 115.305 145.011 115.777C143.467 116.678 142.738 117.945 142.566 118.567H142.673C142.502 118.224 142.416 118.074 142.395 118.074V118.095Z" fill="#F5F5F5"/>
<path d="M250.184 318.397L159.919 317.989C149.065 317.946 140.291 309.102 140.356 298.22L141.321 71.7619C141.364 60.9005 150.202 52.1213 161.077 52.1642L251.343 52.5721C262.197 52.615 270.97 61.4586 270.906 72.3415L269.94 298.799C269.898 309.661 261.06 318.44 250.184 318.397Z" fill="#1A2E35"/>
<path d="M167.535 170.656L149.816 174.048C149.859 179.757 150.374 185.467 151.339 191.091C151.683 193.087 152.133 195.363 153.12 197.295C154.772 200.536 158.032 202.747 161.507 203.047C164.124 196.221 165.347 188.236 166.419 179.586L167.535 170.656ZM163.759 178.062C163.33 181.947 162.901 185.832 162.472 189.739C162.344 190.962 162.194 192.186 161.722 193.302C161.25 194.418 160.392 195.427 159.255 195.706C157.732 196.092 156.144 195.105 155.265 193.753C154.386 192.4 154.085 190.726 153.806 189.116C153.463 187.184 153.12 185.253 152.777 183.299C152.562 182.054 152.348 180.723 152.734 179.521C153.377 177.568 155.458 176.538 157.41 176.194C159.362 175.829 161.4 175.915 163.245 175.164L163.845 177.01L163.717 178.083L163.759 178.062Z" fill="white"/>
<path d="M176.737 198.969C177.724 194.483 182.186 191.886 186.304 193.41L194.97 196.608C195.485 190.641 196.708 185.06 197.995 180.359L172.812 170.914L171.632 180.294C169.808 194.848 167.62 207.684 159.255 217.257C156.766 220.091 153.913 222.409 150.953 224.513L156.895 231.102C158.161 230.136 159.34 229.192 160.306 228.248C167.942 220.756 174.313 209.959 176.716 198.948L176.737 198.969Z" fill="white"/>
<path d="M250.36 71.8072V61.6327L233.822 61.5469C231.483 61.5469 229.596 63.4787 229.574 65.8828C236.331 66.8058 243.582 68.5231 250.36 71.8072Z" fill="white"/>
<path d="M216.486 181.41L232.274 187.334C236.157 188.794 239.46 191.219 242.034 194.267L264.408 178.104L264.45 166.577L255.956 175.721L234.698 165.998L246.088 151.036L264.472 159.451V155.05L248.555 147.752L255.72 138.35L264.558 139.96V134.315L254.068 132.641L216.465 181.431L216.486 181.41ZM253.103 178.791L244.587 187.956L225.152 178.555L232.253 169.239L253.124 178.791H253.103Z" fill="white"/>
<path d="M198.853 174.816L199.926 116.473L180.362 110.57L173.52 165.307L198.853 174.794V174.816ZM184.374 120.423H195.228V157.493H184.374V120.423ZM179.848 155.69V162.924H177.145V155.69H179.848Z" fill="white"/>
<path d="M228.672 156.657L248.407 131.071L228.672 125.125V156.657Z" fill="white"/>
<path d="M255.783 86.8164V127.3L264.621 128.695V123.801L263.227 123.565C262.068 123.372 261.189 122.32 261.189 121.075V102.357C261.189 100.404 263.184 99.2662 264.728 100.168V93.6208C263.505 92.6764 262.261 91.7319 261.039 90.7874C259.258 89.4136 257.499 88.0613 255.762 86.7734L255.783 86.8164Z" fill="white"/>
<path d="M264.837 81.2078V75.4552C264.88 69.4879 261.105 64.4006 255.785 62.4688V74.8112C258.96 76.786 261.941 78.9969 264.837 81.2078Z" fill="white"/>
<path d="M197.309 197.491L231.158 210.006C233.968 210.993 233.711 215.243 230.815 215.866C221.334 217.862 212.153 221.339 203.615 226.19C205.396 228.916 207.476 231.256 209.836 233.166C212.882 231.728 216.121 230.569 219.575 229.818C223.929 228.873 228.391 228.637 232.874 229.088C237.658 225.525 241.133 219.965 242.248 213.912C242.291 213.633 242.334 213.376 242.377 213.097C243.707 204.274 238.709 195.645 230.493 192.576L200.269 181.242C198.681 187.167 197.695 192.533 197.309 197.491Z" fill="white"/>
<path d="M181.158 61.6094H180.793C180.9 61.6308 181.029 61.6737 181.136 61.6952V61.6094H181.158Z" fill="white"/>
<path d="M168.246 164.883L175.153 109.61L147.181 107.828L146.988 155.803L149.305 168.51L168.246 164.883ZM153.66 113.28L170.756 114.117L167.731 142.108H153.681V113.28H153.66ZM167.216 147.539V159.302H150.957V147.539H167.216Z" fill="white"/>
<path d="M217.923 74.959C214.855 74.8088 211.724 74.7014 208.678 74.6156C201.041 74.4009 193.147 74.1648 185.339 72.8554C185.253 72.8554 185.167 72.8125 185.06 72.8125L181.027 105.01L250.335 125.896V83.1587C249.327 82.5362 248.297 81.9567 247.246 81.42C237.765 76.5474 226.589 75.4098 217.901 74.959H217.923ZM200.655 104.431L187.27 100.503L189.265 79.7243H200.655V104.431ZM206.082 78.8227H217.837V91.4872H206.082V78.8227ZM246.753 116.773L209.707 106.685V100.524H223.264V86.958H246.753V116.773Z" fill="white"/>
<path d="M155.395 213.547C157.497 211.143 159.149 208.438 160.5 205.476C156.553 204.832 152.928 202.214 151.019 198.5C149.86 196.246 149.367 193.735 149.002 191.545C148.037 185.943 147.522 180.212 147.436 174.523L146.943 174.609L146.75 220.867C149.946 218.677 152.928 216.402 155.416 213.547H155.395Z" fill="white"/>
<path d="M179.892 71.7685C171.419 69.7293 164.212 66.4236 158.399 61.8516C154.28 62.4311 151.684 64.1913 150.076 66.2734C148.574 68.3126 147.909 70.6308 147.609 72.3695L152.779 72.7129V97.6769L147.266 97.3764V102.292L175.881 104.116L179.914 71.7685H179.892ZM157.283 97.8701V72.9491L174.272 74.0652L171.677 98.6429L157.305 97.8487L157.283 97.8701Z" fill="white"/>
<path d="M225.969 124.314L202.33 117.188L201.258 175.702L211.147 179.415L225.969 160.182V124.314ZM207.886 167.437H204.261V156.576H207.886V167.437ZM213.313 167.437H209.688V156.576H213.313V167.437ZM218.74 167.437H215.115V156.576H218.74V167.437ZM206.084 145.736V123.67L222.344 128.886V145.736H206.084Z" fill="white"/>
<path d="M246.708 202.787L264.341 194.673L264.405 181.172L243.555 196.24C244.928 198.237 246 200.448 246.729 202.787H246.708Z" fill="white"/>
<path d="M185.082 72.8157C185.082 72.8157 185.254 72.8586 185.361 72.8586C193.169 74.1465 201.063 74.3826 208.699 74.6187C211.745 74.7046 214.877 74.7905 217.945 74.9622C226.632 75.4129 237.83 76.5506 247.29 81.4232C248.341 81.9598 249.37 82.5608 250.378 83.1619V71.8068C243.6 68.5226 236.35 66.8269 229.593 65.8824V69.0378C229.571 71.4633 227.662 73.3952 225.324 73.3952L191.324 73.245C188.986 73.245 187.098 71.2702 187.098 68.8446V65.9253C187.098 65.9253 187.098 64.4657 186.283 63.2422L185.082 72.8371V72.8157Z" fill="#F5F5F5"/>
<path d="M255.783 86.8115C257.542 88.0994 259.28 89.4303 261.06 90.8255C262.283 91.77 263.506 92.7145 264.771 93.6589L264.814 81.2091C261.918 78.9982 258.936 76.7873 255.762 74.8125V86.833L255.783 86.8115Z" fill="#F5F5F5"/>
<path d="M181.156 61.6913C181.049 61.6698 180.92 61.6269 180.813 61.6054L180.663 61.5625L176.801 61.6054H161.485C160.37 61.6054 159.362 61.6698 158.418 61.7986C164.253 66.3707 171.439 69.6763 179.912 71.7155L181.177 61.6698L181.156 61.6913Z" fill="#E1E1E1"/>
<path d="M157.452 176.192C155.5 176.557 153.419 177.566 152.776 179.52C152.368 180.722 152.583 182.052 152.819 183.297C153.162 185.229 153.505 187.161 153.848 189.114C154.127 190.724 154.428 192.399 155.307 193.751C156.187 195.103 157.774 196.112 159.297 195.704C160.434 195.404 161.292 194.416 161.764 193.3C162.236 192.184 162.364 190.939 162.515 189.737C162.944 185.852 163.373 181.967 163.802 178.06L163.93 176.987L163.33 175.141C161.485 175.892 159.447 175.828 157.495 176.171L157.452 176.192Z" fill="#F5F5F5"/>
<path d="M261.211 102.393V121.111C261.211 122.356 262.069 123.407 263.227 123.601L264.643 123.837L264.75 100.225C263.184 99.3234 261.211 100.483 261.211 102.414V102.393Z" fill="#F5F5F5"/>
<path d="M234.719 165.998L255.977 175.722L264.471 166.578L264.493 159.43L246.109 151.016L234.719 165.998Z" fill="#E7E7E7"/>
<path d="M248.598 147.753L264.514 155.051L264.579 139.961L255.741 138.352L248.598 147.753Z" fill="#E7E7E7"/>
<path d="M250.359 83.1623V125.899L181.051 105.014L185.084 72.8161L186.285 63.2212C185.685 62.3196 184.655 61.5469 182.853 61.5469H181.18V61.6971L179.915 71.7428L175.882 104.091L147.245 102.266V107.826L175.174 109.607L168.267 164.88L149.326 168.508L147.009 155.8L146.945 168.894V168.959V174.604L147.416 174.518C147.502 180.228 148.017 185.938 148.982 191.54C149.368 193.729 149.862 196.241 150.999 198.495C152.908 202.208 156.533 204.827 160.48 205.471C159.129 208.412 157.477 211.138 155.375 213.542C152.887 216.397 149.905 218.672 146.709 220.861V227.451C147.438 226.958 148.189 226.464 148.94 225.949L154.924 232.603L172.707 252.372L178.07 258.318C172.857 262.783 167.688 266.325 162.239 267.269C160.952 267.505 159.408 267.613 157.756 267.741C154.517 267.999 150.849 268.278 146.923 269.48C146.773 269.523 146.623 269.587 146.473 269.63V275.447C147.03 275.211 147.631 274.997 148.253 274.825C151.642 273.795 155.032 273.516 158.013 273.301C159.772 273.172 161.424 273.043 162.968 272.764C172.493 271.09 180.451 263.62 188.881 255.678C197.654 247.414 207.608 238.055 220.5 235.243C234.164 232.259 249.415 237.411 260.269 248.702C261.642 250.14 262.908 251.6 264.088 253.124L264.131 244.752C257.181 237.54 248.6 232.581 239.634 230.306C243.559 226.142 246.348 220.733 247.42 214.98C247.485 214.637 247.549 214.315 247.592 213.971C247.785 212.748 247.871 211.503 247.871 210.279C247.871 209.635 247.849 208.991 247.807 208.369L264.345 200.77V194.695L246.734 202.809C246.005 200.47 244.932 198.28 243.559 196.262L264.41 181.194V178.124L242.036 194.288C239.462 191.24 236.159 188.792 232.276 187.354L216.488 181.43L254.092 132.64L264.603 134.314V128.711L255.786 127.316V62.4913C254.349 61.9762 252.783 61.6542 251.153 61.6542H250.359V83.1838V83.1623ZM248.386 131.073L228.672 156.659V125.127L248.386 131.073ZM199.907 116.455L198.834 174.797L173.501 165.31L180.344 110.573L199.907 116.476V116.455ZM153.101 197.293C152.114 195.361 151.664 193.085 151.321 191.089C150.355 185.487 149.84 179.756 149.798 174.046L167.516 170.654L166.401 179.584C165.328 188.234 164.105 196.219 161.488 203.045C158.013 202.723 154.774 200.512 153.101 197.293ZM150.956 224.532C153.916 222.428 156.769 220.132 159.257 217.277C167.623 207.682 169.811 194.867 171.635 180.314L172.814 170.933L197.998 180.378C196.732 185.079 195.488 190.66 194.973 196.627C194.63 200.555 194.587 204.655 195.059 208.755C195.188 209.936 195.381 211.073 195.595 212.232L165.371 240.524L156.919 231.143L150.977 224.553L150.956 224.532ZM185.492 251.514C183.604 253.274 181.759 255.034 179.915 256.687L174.487 250.655L167.001 242.348L196.196 215.023C197.354 219.574 199.156 223.759 201.494 227.387C203.21 230.027 205.184 232.388 207.415 234.363C198.963 238.892 191.927 245.482 185.513 251.535L185.492 251.514ZM242.358 213.07C242.315 213.349 242.272 213.606 242.229 213.885C241.114 219.938 237.639 225.498 232.855 229.061C228.394 228.61 223.91 228.846 219.556 229.791C216.102 230.542 212.863 231.701 209.817 233.14C207.458 231.229 205.377 228.868 203.596 226.163C200.357 221.205 198.191 215.109 197.418 208.455C197.032 204.977 196.968 201.35 197.29 197.486C197.676 192.527 198.663 187.161 200.25 181.237L230.474 192.57C238.669 195.64 243.667 204.269 242.358 213.091V213.07ZM201.215 175.699L202.288 117.185L225.927 124.311V160.179L211.104 179.412L201.215 175.699Z" fill="#E1E1E1"/>
<path d="M170.753 114.113L153.656 113.297V142.125H167.707L170.753 114.113Z" fill="#ECECEC"/>
<path d="M167.213 147.539H150.953V159.302H167.213V147.539Z" fill="#ECECEC"/>
<path d="M223.241 100.527H209.684V106.666L246.751 116.755V86.9609H223.241V100.527Z" fill="#ECECEC"/>
<path d="M187.27 100.513L200.655 104.441V79.7344H189.264L187.27 100.513Z" fill="#ECECEC"/>
<path d="M217.837 78.7969H206.082V91.4613H217.837V78.7969Z" fill="#E1E1E1"/>
<path d="M225.133 178.582L244.589 187.983L253.105 178.818L232.233 169.266L225.133 178.582Z" fill="#E7E7E7"/>
<path d="M195.249 120.406H184.395V157.477H195.249V120.406Z" fill="#ECECEC"/>
<path d="M179.871 155.695H177.168V162.929H179.871V155.695Z" fill="#E1E1E1"/>
<path d="M206.082 123.672V142.583V145.738H222.342V128.888L206.082 123.672Z" fill="#ECECEC"/>
<path d="M207.906 156.594H204.281V167.455H207.906V156.594Z" fill="#ECECEC"/>
<path d="M213.309 156.594H209.684V167.455H213.309V156.594Z" fill="#ECECEC"/>
<path d="M218.738 156.594H215.113V167.455H218.738V156.594Z" fill="#ECECEC"/>
<path d="M152.757 72.6872L147.587 72.3438H147.523C147.266 73.9322 147.352 75.0698 147.352 75.0698L147.266 97.3507L152.779 97.6512V72.6872H152.757Z" fill="#E7E7E7"/>
<path d="M157.281 72.9219V97.843L171.653 98.6372L174.27 74.0595L157.281 72.9219Z" fill="#E7E7E7"/>
<path d="M197.523 80.7109V125.938L209.043 114.411H292.937V80.7109H197.523Z" fill="#359B73"/>
<path d="M220.67 111.45C227.695 111.45 233.39 105.751 233.39 98.721C233.39 91.6911 227.695 85.9922 220.67 85.9922C213.644 85.9922 207.949 91.6911 207.949 98.721C207.949 105.751 213.644 111.45 220.67 111.45Z" fill="#FF4F5B"/>
<path d="M220.67 111.45C227.695 111.45 233.39 105.751 233.39 98.721C233.39 91.6911 227.695 85.9922 220.67 85.9922C213.644 85.9922 207.949 91.6911 207.949 98.721C207.949 105.751 213.644 111.45 220.67 111.45Z" fill="white"/>
<path d="M284.121 94.5915C284.121 94.5915 274.275 94.3984 262.155 94.3984C250.014 94.3984 240.168 94.4842 240.168 94.5915C240.168 94.6988 250.014 94.7846 262.155 94.7846C274.296 94.7846 284.121 94.6988 284.121 94.5915Z" fill="white"/>
<path d="M284.121 99.4274C284.121 99.4274 274.275 99.2344 262.155 99.2344C250.035 99.2344 240.168 99.3202 240.168 99.4274C240.168 99.5347 250.014 99.6205 262.155 99.6205C274.296 99.6205 284.121 99.5347 284.121 99.4274Z" fill="white"/>
<path d="M263.011 104.193C263.011 104.193 257.906 104 251.599 104C245.293 104 240.188 104.086 240.188 104.193C240.188 104.3 245.293 104.386 251.599 104.386C257.906 104.386 263.011 104.3 263.011 104.193Z" fill="white"/>
<path d="M263.869 89.6227C263.869 89.6227 258.549 89.4297 252.007 89.4297C245.464 89.4297 240.145 89.5155 240.145 89.6227C240.145 89.73 245.443 89.8158 252.007 89.8158C258.571 89.8158 263.869 89.73 263.869 89.6227Z" fill="white"/>
<path d="M219.574 98.5046C218.48 98.0323 217.729 96.8732 217.751 95.5424C217.772 93.8037 219.123 92.4085 220.754 92.4299C222.384 92.4514 223.692 93.8896 223.671 95.6282C223.671 96.9805 222.856 98.0967 221.74 98.5475C226.288 99.3203 225.988 104.257 225.988 104.257L215.219 104.107C215.219 104.107 215.069 99.1056 219.595 98.5046H219.574Z" fill="#E7E7E7"/>
<path d="M219.465 145.32V168.546L213.544 162.621H170.449V145.32H219.465Z" fill="#359B73"/>
<path d="M191.816 150.857C191.816 150.857 196.6 150.664 202.477 150.664C208.355 150.664 213.139 150.75 213.139 150.857C213.139 150.964 208.355 151.05 202.477 151.05C196.6 151.05 191.816 150.964 191.816 150.857Z" fill="white"/>
<path d="M206.23 155.693C206.23 155.693 207.582 155.5 209.234 155.5C210.885 155.5 212.237 155.586 212.237 155.693C212.237 155.8 210.885 155.886 209.234 155.886C207.582 155.886 206.23 155.8 206.23 155.693Z" fill="white"/>
<path d="M204.692 155.789C204.692 155.789 204.292 155.88 203.843 155.844C203.393 155.807 203.029 155.795 203.016 155.688C203.003 155.582 203.376 155.451 203.855 155.479C204.334 155.508 204.697 155.693 204.662 155.797L204.692 155.789Z" fill="white"/>
<path d="M193.746 155.521C193.746 155.521 195.591 155.328 197.865 155.328C200.138 155.328 201.983 155.414 201.983 155.521C201.983 155.628 200.138 155.714 197.865 155.714C195.591 155.714 193.746 155.628 193.746 155.521Z" fill="white"/>
<path d="M192.807 155.819C192.807 155.819 192.413 155.988 191.905 155.967C191.415 155.957 191.009 155.846 191.014 155.75C191.02 155.654 191.409 155.581 191.917 155.602C192.406 155.613 192.813 155.723 192.807 155.819Z" fill="white"/>
<path d="M180.746 155.427C180.746 155.427 182.677 155.234 185.079 155.234C187.482 155.234 189.412 155.32 189.412 155.427C189.412 155.535 187.482 155.62 185.079 155.62C182.677 155.62 180.746 155.535 180.746 155.427Z" fill="white"/>
<path d="M180.045 155.522C180.045 155.522 179.675 155.686 179.228 155.694C178.776 155.672 178.42 155.586 178.433 155.491C178.428 155.384 178.803 155.327 179.249 155.319C179.701 155.341 180.058 155.427 180.045 155.522Z" fill="white"/>
<path d="M174.996 155.193C174.996 155.193 175.575 155 176.283 155C176.991 155 177.57 155.086 177.57 155.193C177.57 155.3 176.991 155.386 176.283 155.386C175.575 155.386 174.996 155.3 174.996 155.193Z" fill="white"/>
<path d="M293.642 143.703H254.516V195.348H293.642V143.703Z" fill="#E1E1E1"/>
<path d="M293.645 143.703H275.305V195.348H293.645V143.703Z" fill="#F0F0F0"/>
<path d="M266.229 150.703H262.711V159.268H266.229V150.703Z" fill="#F5F5F5"/>
<path d="M266.229 184.188H262.711V192.752H266.229V184.188Z" fill="#F5F5F5"/>
<path d="M275.302 162.621C275.302 162.621 270.647 162.75 264.919 162.75C259.192 162.75 254.516 162.685 254.516 162.621C254.516 162.557 259.171 162.492 264.919 162.492C270.668 162.492 275.302 162.557 275.302 162.621Z" fill="white"/>
<path d="M266.229 167.57H262.711V176.135H266.229V167.57Z" fill="#F5F5F5"/>
<path d="M275.302 179.488C275.302 179.488 270.647 179.617 264.919 179.617C259.192 179.617 254.516 179.552 254.516 179.488C254.516 179.424 259.171 179.359 264.919 179.359C270.668 179.359 275.302 179.424 275.302 179.488Z" fill="white"/>
<path d="M282.702 150.695H279.184V159.26H282.702V150.695Z" fill="#E1E1E1"/>
<path d="M290.338 150.695H286.82V159.26H290.338V150.695Z" fill="#E1E1E1"/>
<path d="M282.702 166.922H279.184V175.486H282.702V166.922Z" fill="#E1E1E1"/>
<path d="M290.338 166.922H286.82V175.486H290.338V166.922Z" fill="#E1E1E1"/>
<path d="M282.702 183.148H279.184V191.713H282.702V183.148Z" fill="#E1E1E1"/>
<path d="M290.338 183.148H286.82V191.713H290.338V183.148Z" fill="#E1E1E1"/>
<path d="M296.58 141.898H251.555V143.765H296.58V141.898Z" fill="#E1E1E1"/>
<path d="M293.923 143.941C293.923 143.941 285.171 144.07 274.382 144.07C263.592 144.07 254.84 144.006 254.84 143.941C254.84 143.877 263.592 143.812 274.382 143.812C285.171 143.812 293.923 143.877 293.923 143.941Z" fill="white"/>
</g>
</svg>
